STARTFONT 2.1
FONT -FontForge-Inknut Antiqua-Bold-R-Normal--25-190-96-96-P-217-ISO10646-1
SIZE 19 96 96
FONTBOUNDINGBOX 108 63 -33 -22
COMMENT "Generated by fontforge, http://fontforge.sourceforge.net"
COMMENT "Copyright (c) 2014 by Claus Eggers Srensen (es@forthehearts.net)."
STARTPROPERTIES 39
FOUNDRY "FontForge"
FAMILY_NAME "Inknut Antiqua"
WEIGHT_NAME "Bold"
SLANT "R"
SETWIDTH_NAME "Normal"
ADD_STYLE_NAME ""
PIXEL_SIZE 25
POINT_SIZE 190
RESOLUTION_X 96
RESOLUTION_Y 96
SPACING "P"
AVERAGE_WIDTH 217
CHARSET_REGISTRY "ISO10646"
CHARSET_ENCODING "1"
FONTNAME_REGISTRY ""
CHARSET_COLLECTIONS "ISO8859-2 ISO8859-9 ISO8859-4 ISO10646-1"
FONT_NAME "InknutAntiqua-Bold"
FACE_NAME "Inknut Antiqua Bold"
COPYRIGHT "Copyright (c) 2014 by Claus Eggers Srensen (es@forthehearts.net)."
FONT_VERSION "1.003"
FONT_ASCENT 20
FONT_DESCENT 5
UNDERLINE_POSITION -4
UNDERLINE_THICKNESS 2
X_HEIGHT 12
CAP_HEIGHT 19
RAW_ASCENT 800
RAW_DESCENT 200
NORM_SPACE 7
RELATIVE_WEIGHT 70
RELATIVE_SETWIDTH 50
SUPERSCRIPT_X 0
SUPERSCRIPT_Y 8
SUPERSCRIPT_SIZE 15
SUBSCRIPT_X 0
SUBSCRIPT_Y 1
SUBSCRIPT_SIZE 15
AVG_LOWERCASE_WIDTH 163
AVG_UPPERCASE_WIDTH 216
ENDPROPERTIES
CHARS 1263
STARTCHAR space
ENCODING 32
SWIDTH 279 0
DWIDTH 7 0
BBX 1 1 0 0
BITMAP
00
ENDCHAR
STARTCHAR exclam
ENCODING 33
SWIDTH 343 0
DWIDTH 9 0
BBX 6 20 1 0
BITMAP
0C
3C
FC
FC
FC
78
78
78
78
78
38
38
38
00
00
38
7C
7C
7C
78
ENDCHAR
STARTCHAR quotedbl
ENCODING 34
SWIDTH 658 0
DWIDTH 16 0
BBX 13 10 2 10
BITMAP
1818
7878
F9F8
F9F8
F9F8
F8F8
78F0
7870
3870
3830
ENDCHAR
STARTCHAR numbersign
ENCODING 35
SWIDTH 780 0
DWIDTH 20 0
BBX 18 14 1 0
BITMAP
004000
004200
00C600
008400
1FFFC0
1FFF80
021800
063000
042000
FFFE00
FFFC00
10C000
308000
218000
ENDCHAR
STARTCHAR dollar
ENCODING 36
SWIDTH 700 0
DWIDTH 18 0
BBX 15 30 1 -5
BITMAP
0180
0180
0180
0180
0180
07F8
1FFE
3C7E
783E
781E
F80E
FC0E
7F00
7F80
3FE0
0FF8
03FC
01FE
007E
E03E
F01E
F81E
FC3C
FFF8
7FE0
0180
0180
0180
0180
0180
ENDCHAR
STARTCHAR percent
ENCODING 37
SWIDTH 1116 0
DWIDTH 28 0
BBX 26 25 1 -3
BITMAP
07C00180
1FF00380
78F80700
70780E00
F0381C00
F0381800
F0383000
78706000
7FE0C000
3FC18000
00030000
00060000
000C0000
00180000
00300000
0060FE00
00C1FF80
01838780
030703C0
060703C0
0C0703C0
18078380
3007C700
6003FE00
0000F800
ENDCHAR
STARTCHAR ampersand
ENCODING 38
SWIDTH 1285 0
DWIDTH 32 0
BBX 30 20 1 0
BITMAP
000000F0
000001F8
000000F8
0000003C
0000001C
00E0701C
07F1FC18
1FFBFFF8
3CFFFFF0
387C1FE0
78780F80
78783C00
F8F03800
FBC07800
7901F800
7C03F800
7E0EFC38
3FFC7FF8
1FF87FE0
0FF01FC0
ENDCHAR
STARTCHAR quotesingle
ENCODING 39
SWIDTH 357 0
DWIDTH 9 0
BBX 5 10 2 10
BITMAP
18
78
F8
F8
F8
F8
78
78
38
38
ENDCHAR
STARTCHAR parenleft
ENCODING 40
SWIDTH 511 0
DWIDTH 13 0
BBX 11 28 1 -5
BITMAP
00E0
01C0
0380
0700
0E00
1E00
1C00
3C00
3C00
7800
7800
7800
7800
F800
F800
7800
7800
7800
7C00
7C00
3C00
3E00
1E00
1F00
0F80
07C0
01E0
00E0
ENDCHAR
STARTCHAR parenright
ENCODING 41
SWIDTH 511 0
DWIDTH 13 0
BBX 10 29 1 -5
BITMAP
C000
F000
7800
3C00
1E00
1F00
0F00
0F80
0780
07C0
07C0
07C0
03C0
03C0
03C0
03C0
03C0
03C0
07C0
0780
0780
0700
0F00
0E00
1C00
3800
7000
E000
C000
ENDCHAR
STARTCHAR asterisk
ENCODING 42
SWIDTH 698 0
DWIDTH 17 0
BBX 16 14 1 6
BITMAP
1E70
1EF8
1CF8
1CC8
6E80
629E
E07F
FD8E
73C6
0260
1E70
3E70
1EF0
0870
ENDCHAR
STARTCHAR plus
ENCODING 43
SWIDTH 545 0
DWIDTH 14 0
BBX 12 12 1 2
BITMAP
0600
0600
0600
0600
0600
FFF0
FFF0
0600
0600
0600
0600
0600
ENDCHAR
STARTCHAR comma
ENCODING 44
SWIDTH 370 0
DWIDTH 9 0
BBX 7 11 1 -7
BITMAP
0C
3C
FC
FE
3E
3C
38
70
60
C0
40
ENDCHAR
STARTCHAR hyphen
ENCODING 45
SWIDTH 513 0
DWIDTH 13 0
BBX 9 3 2 6
BITMAP
FF80
FF80
FF00
ENDCHAR
STARTCHAR period
ENCODING 46
SWIDTH 330 0
DWIDTH 8 0
BBX 6 5 1 0
BITMAP
38
7C
FC
FC
78
ENDCHAR
STARTCHAR slash
ENCODING 47
SWIDTH 355 0
DWIDTH 9 0
BBX 9 27 0 -3
BITMAP
0100
0380
0300
0300
0300
0300
0600
0600
0600
0600
0C00
0C00
0C00
0C00
1800
1800
1800
1800
3000
3000
3000
3000
6000
6000
6000
6000
C000
ENDCHAR
STARTCHAR zero
ENCODING 48
SWIDTH 780 0
DWIDTH 20 0
BBX 17 15 1 0
BITMAP
00F000
07FC00
0FFE00
1C3F00
3C1F00
780F80
780F80
F80F80
F80F80
780F80
7C0F00
7E0E00
3FFE00
1FF800
0FE000
ENDCHAR
STARTCHAR one
ENCODING 49
SWIDTH 507 0
DWIDTH 13 0
BBX 9 14 2 0
BITMAP
FF80
7F00
3E00
3C00
3C00
3C00
3C00
3C00
3C00
3C00
3C00
7C00
FF80
FF80
ENDCHAR
STARTCHAR two
ENCODING 50
SWIDTH 653 0
DWIDTH 16 0
BBX 14 15 1 0
BITMAP
0F00
3FE0
7FF0
FBF0
01F8
00F0
00E0
01E0
0380
070C
0E0C
1FFC
7FFC
FFFC
FFFC
ENDCHAR
STARTCHAR three
ENCODING 51
SWIDTH 560 0
DWIDTH 14 0
BBX 12 22 1 -7
BITMAP
1C00
3F80
FFC0
E7E0
83E0
03C0
03C0
0380
0600
0F80
0FE0
03F0
01F0
01F0
01F0
01E0
03C0
0780
1F00
FC00
E000
8000
ENDCHAR
STARTCHAR four
ENCODING 52
SWIDTH 723 0
DWIDTH 18 0
BBX 17 20 1 -5
BITMAP
001800
007800
00F800
01F800
03F800
077800
067800
0E7800
1C7800
387800
707800
FFFF80
FFFF80
FFFF00
007800
007800
007800
007800
007800
006000
ENDCHAR
STARTCHAR five
ENCODING 53
SWIDTH 626 0
DWIDTH 16 0
BBX 13 23 1 -7
BITMAP
0030
0030
3FF0
3FF0
3FF0
3FF0
6000
7000
7E00
7F80
7FC0
1FF0
03F0
01F0
00F8
00F0
00F0
01E0
03C0
0F80
7E00
F000
8000
ENDCHAR
STARTCHAR six
ENCODING 54
SWIDTH 764 0
DWIDTH 19 0
BBX 16 22 2 0
BITMAP
0018
0038
00F0
03E0
0780
0F00
1E00
3E00
3CC0
79F0
78FC
F87E
F83E
F81F
F81F
F81F
F81E
F81E
7C3C
3F78
3FF0
0FC0
ENDCHAR
STARTCHAR seven
ENCODING 55
SWIDTH 658 0
DWIDTH 16 0
BBX 14 21 2 -6
BITMAP
8000
FFFC
FFFC
FFF8
FFF0
C030
8060
0060
00C0
00C0
0180
0180
0300
0700
0600
0E00
0C00
1800
1800
3000
3000
ENDCHAR
STARTCHAR eight
ENCODING 56
SWIDTH 766 0
DWIDTH 19 0
BBX 17 22 1 0
BITMAP
01F000
07FC00
0F7E00
1E3E00
3C1E00
3C1E00
3E1C00
3F1C00
1FB800
0FF000
07F800
0FFC00
1CFE00
383F00
781F80
780F80
F80F80
7C0F00
7C0F00
3F1E00
1FF800
07F000
ENDCHAR
STARTCHAR nine
ENCODING 57
SWIDTH 764 0
DWIDTH 19 0
BBX 16 21 1 -6
BITMAP
01E0
07F8
1FFC
3C7E
383E
781F
781F
F81F
F80F
7C1F
7C1F
3E1F
1F9E
07BE
007C
0078
00F0
03E0
0780
1F00
1C00
ENDCHAR
STARTCHAR colon
ENCODING 58
SWIDTH 330 0
DWIDTH 8 0
BBX 6 14 1 0
BITMAP
18
7C
FC
FC
78
00
00
00
00
38
7C
FC
FC
78
ENDCHAR
STARTCHAR semicolon
ENCODING 59
SWIDTH 370 0
DWIDTH 9 0
BBX 7 21 1 -7
BITMAP
18
7C
FC
FC
78
00
00
00
00
00
0C
3C
FC
FE
3E
3C
38
70
60
C0
40
ENDCHAR
STARTCHAR less
ENCODING 60
SWIDTH 485 0
DWIDTH 12 0
BBX 10 12 1 2
BITMAP
0080
0180
0700
0C00
3800
7000
FC00
3E00
1F00
0FC0
03C0
0100
ENDCHAR
STARTCHAR equal
ENCODING 61
SWIDTH 545 0
DWIDTH 14 0
BBX 12 6 1 5
BITMAP
FFF0
FFF0
0000
0000
0000
FFF0
ENDCHAR
STARTCHAR greater
ENCODING 62
SWIDTH 485 0
DWIDTH 12 0
BBX 10 11 1 2
BITMAP
7000
F800
7E00
1F00
0F80
07C0
0300
0E00
1800
7000
C000
ENDCHAR
STARTCHAR question
ENCODING 63
SWIDTH 520 0
DWIDTH 13 0
BBX 12 20 0 0
BITMAP
1F00
7FC0
FFE0
47F0
01E0
01E0
03C0
0700
0E00
1F00
1F80
1F00
0E00
0000
0000
0600
1F00
1F80
1F00
0E00
ENDCHAR
STARTCHAR at
ENCODING 64
SWIDTH 1422 0
DWIDTH 36 0
BBX 33 28 1 -7
BITMAP
0000300000
000FFF8000
003FFFE000
00FC07F800
03E001FC00
0780007E00
0F00003F00
1E01C61F00
3C07FE1F80
3C0FFE0F80
781E3E0F80
783C1E0F80
783C1E0F80
787C1E0F80
F87C1E0F80
F87C1E0F00
787C1E1E00
7C3E3E3C00
7C3FFEF800
7C1FFFF000
3E0F9F8000
3F00000000
1F00000000
0FC0000000
07E0000000
03FC000000
00FF000000
0006000000
ENDCHAR
STARTCHAR A
ENCODING 65
SWIDTH 916 0
DWIDTH 23 0
BBX 23 20 0 0
BITMAP
001C00
007C00
007C00
00FE00
00DE00
01DF00
019F00
038F80
030F80
030780
0707C0
07FFC0
0FFFE0
0C03E0
0C01E0
1801F0
1801F0
7E01F8
FF87FE
FF07FC
ENDCHAR
STARTCHAR B
ENCODING 66
SWIDTH 795 0
DWIDTH 20 0
BBX 18 20 1 0
BITMAP
7FF800
FFFE00
3F3F00
1E0F80
1E0F80
1E0F80
1E0F80
1E0F00
1E0E00
1FFE00
1FFF00
1E0F80
1E07C0
1E07C0
1E07C0
1E07C0
1E0780
3F0F80
FFFE00
FFF800
ENDCHAR
STARTCHAR C
ENCODING 67
SWIDTH 837 0
DWIDTH 21 0
BBX 19 20 1 0
BITMAP
00FF00
03FFC0
07FFC0
0F07C0
1E03C0
3C01C0
7C0000
7C0000
780000
780000
F80000
FC0000
7C0000
7C0000
7E0000
3E0040
3F01E0
1FFF80
0FFF00
03FE00
ENDCHAR
STARTCHAR D
ENCODING 68
SWIDTH 920 0
DWIDTH 23 0
BBX 21 20 1 0
BITMAP
7FFC00
FFFF00
7F3FC0
1E07E0
1E03E0
1E03F0
1E01F0
1E01F0
1E01F8
1E00F8
1E00F8
1E00F0
1E00F0
1E01F0
1E01E0
1E03C0
1E03C0
3E0F00
FFFE00
FFF800
ENDCHAR
STARTCHAR E
ENCODING 69
SWIDTH 820 0
DWIDTH 21 0
BBX 18 20 1 0
BITMAP
7FFFC0
FFFFC0
3E07C0
1E03C0
1E01C0
1E01C0
1E0880
1E1800
1E3800
1FF800
1FF800
1E3800
1E1800
1E18C0
1E01C0
1E01C0
1E03C0
3E07C0
FFFFC0
FFFFC0
ENDCHAR
STARTCHAR F
ENCODING 70
SWIDTH 780 0
DWIDTH 20 0
BBX 18 20 1 0
BITMAP
7FFFC0
FFFFC0
3E07C0
1E03C0
1E01C0
1E01C0
1E0880
1E1800
1E3800
1FF800
1FF800
1E3800
1E1800
1E1800
1E0000
1E0000
1E0000
3E0000
FFE000
FFE000
ENDCHAR
STARTCHAR G
ENCODING 71
SWIDTH 941 0
DWIDTH 24 0
BBX 22 20 1 0
BITMAP
007F80
01FFE0
07FFE0
0F03E0
1E01E0
3C00E0
3C0060
7C0000
780000
780000
F81FFC
FC1FF8
7C01F0
7C01E0
7E01E0
3E01E0
3F01F0
1FE3E0
0FFFC0
03FF00
ENDCHAR
STARTCHAR H
ENCODING 72
SWIDTH 985 0
DWIDTH 25 0
BBX 23 20 1 0
BITMAP
7F83FC
FF87FC
3F81FC
1E00F0
1E00F0
1E00F0
1E00F0
1E00F0
1E00F0
1FFFF0
1FFFF0
1E00F0
1E00F0
1E00F0
1E00F0
1E00F0
1E00F0
7E03F0
FFC7FE
FF87FC
ENDCHAR
STARTCHAR I
ENCODING 73
SWIDTH 465 0
DWIDTH 12 0
BBX 10 20 1 0
BITMAP
7F80
FF80
3F80
1E00
1E00
1E00
1E00
1E00
1E00
1E00
1E00
1E00
1E00
1E00
1E00
1E00
1E00
7E00
FFC0
FF80
ENDCHAR
STARTCHAR J
ENCODING 74
SWIDTH 437 0
DWIDTH 11 0
BBX 10 26 0 -6
BITMAP
7FC0
FFC0
3F80
1F00
1F00
1F00
1F00
1F00
1F00
1F00
1F00
1F00
1F00
1F00
1F00
1F00
1F00
1F00
1F00
1F00
1F00
1E00
1C00
3800
7000
6000
ENDCHAR
STARTCHAR K
ENCODING 75
SWIDTH 904 0
DWIDTH 23 0
BBX 21 20 1 0
BITMAP
7F87F8
FF87F8
3F87F0
1E01E0
1E03C0
1E0700
1E0E00
1E1C00
1E3800
1E7800
1EFC00
1E7C00
1E3E00
1E3F00
1E1F80
1E0F80
1E07C0
7E07E0
FFC3F8
FF81F8
ENDCHAR
STARTCHAR L
ENCODING 76
SWIDTH 797 0
DWIDTH 20 0
BBX 18 20 1 0
BITMAP
7F8000
FF8000
3F0000
1E0000
1E0000
1E0000
1E0000
1E0000
1E0000
1E0000
1E0000
1E0000
1E0000
1E00C0
1E01C0
1E03C0
1E03C0
3E07C0
FFFFC0
FFFFC0
ENDCHAR
STARTCHAR M
ENCODING 77
SWIDTH 1139 0
DWIDTH 28 0
BBX 27 20 1 0
BITMAP
7F001FC0
FF003FC0
7F003F80
1F803F00
1F807F00
1FC07F00
1FC0FF00
1BE0DF00
1BE0DF00
19E19F00
19F19F00
19F39F00
18FB1F00
18FB1F00
187E1F00
187E1F00
183E1F00
383C1F00
FE3C7FE0
FE187FC0
ENDCHAR
STARTCHAR N
ENCODING 78
SWIDTH 899 0
DWIDTH 22 0
BBX 21 20 1 0
BITMAP
7803F8
FC07F8
7E03F0
1F00E0
1F80E0
1FC0E0
1FC0E0
1FE0E0
1BF0E0
19F8E0
18FCE0
187EE0
183FE0
181FE0
180FE0
180FE0
1807E0
7C03E0
FF01E0
FF00E0
ENDCHAR
STARTCHAR O
ENCODING 79
SWIDTH 960 0
DWIDTH 24 0
BBX 22 20 1 0
BITMAP
007F00
03FFC0
07FFE0
0F07F0
1E01F0
3C01F8
7C00F8
7C00F8
7800FC
78007C
F8007C
FC0078
7C00F8
7C00F8
7C00F0
3E01E0
3F03E0
1FEFC0
0FFF00
03FC00
ENDCHAR
STARTCHAR P
ENCODING 80
SWIDTH 792 0
DWIDTH 20 0
BBX 18 20 1 0
BITMAP
7FFC00
FFFF00
7F3F80
1E0FC0
1E07C0
1E07C0
1E07C0
1E07C0
1E0780
1E0F80
1E7E00
1EFC00
1E4000
1E0000
1E0000
1E0000
1E0000
3E0000
FFE000
FFE000
ENDCHAR
STARTCHAR Q
ENCODING 81
SWIDTH 960 0
DWIDTH 24 0
BBX 26 27 1 -7
BITMAP
007F0000
03FFC000
07FFE000
0F07F000
1E01F000
3C01F800
7C00F800
7C00F800
7800FC00
78007C00
F8007C00
FC007800
7C00F800
7C00F800
7C00F000
3E01F000
3F03E000
1FEFC000
0FFF0000
03FF0000
00078000
0003E000
0001F000
0001FF80
0000FFC0
00007F00
00001000
ENDCHAR
STARTCHAR R
ENCODING 82
SWIDTH 847 0
DWIDTH 21 0
BBX 20 20 1 0
BITMAP
7FFC00
FFFF00
3F3F80
1E0F80
1E07C0
1E07C0
1E07C0
1E0780
1E0F00
1E7E00
1EF800
1E7E00
1E3E00
1E3F00
1E1F00
1E0F80
1E0F80
3E07C0
FFC7F0
FF83F0
ENDCHAR
STARTCHAR S
ENCODING 83
SWIDTH 700 0
DWIDTH 18 0
BBX 15 20 1 0
BITMAP
07F8
1FFE
3C7E
783E
781E
F80E
FC0E
7F00
7F80
3FE0
0FF8
03FC
01FE
007E
E03E
F01E
F81E
FC3C
FFF8
7FE0
ENDCHAR
STARTCHAR T
ENCODING 84
SWIDTH 845 0
DWIDTH 21 0
BBX 19 20 1 0
BITMAP
FFFFE0
FFFFE0
F9F3E0
F1F1E0
E1F0E0
E1F0E0
C1F060
01F000
01F000
01F000
01F000
01F000
01F000
01F000
01F000
01F000
01F000
03F000
07FE00
07FC00
ENDCHAR
STARTCHAR U
ENCODING 85
SWIDTH 898 0
DWIDTH 22 0
BBX 22 20 0 0
BITMAP
7FC1FC
FFC1FC
3F80F8
1F0070
1F0070
1F0070
1F0070
1F0070
1F0070
1F0070
1F0070
1F0070
1F0070
1F0070
1F0060
1F0060
0F80E0
07F3C0
07FF80
01FE00
ENDCHAR
STARTCHAR V
ENCODING 86
SWIDTH 917 0
DWIDTH 23 0
BBX 23 20 0 0
BITMAP
7FC1FE
FFC3FE
7F81FC
3E0078
1F0030
1F0060
0F0060
0F80E0
0780C0
07C1C0
07C180
03E180
03E380
01E300
01F700
01F600
00FE00
00FC00
007C00
007800
ENDCHAR
STARTCHAR W
ENCODING 87
SWIDTH 1281 0
DWIDTH 32 0
BBX 32 20 0 0
BITMAP
7F8FF8FF
FF9FF9FF
7F0FF0FE
3E03C03C
1F03E018
1F03E038
0F01E038
0F81F030
0F83F070
0783F060
07C3F860
03C7F8E0
03E678C0
03E67CC0
01E63DC0
01FC3D80
01FC3F80
00FC1F80
00FC1F00
00701E00
ENDCHAR
STARTCHAR X
ENCODING 88
SWIDTH 886 0
DWIDTH 22 0
BBX 22 20 0 0
BITMAP
7FC7F8
FFC7F8
7F03F0
1F00E0
1F81C0
0FC380
07E700
03FE00
01FC00
00F800
007C00
00FE00
01FF00
039F80
070FC0
0E07C0
1C03E0
3E03F0
FF8FFC
FF0FF8
ENDCHAR
STARTCHAR Y
ENCODING 89
SWIDTH 847 0
DWIDTH 21 0
BBX 21 20 0 0
BITMAP
FF87F8
FF87F8
7F07F0
3E01E0
1F01C0
1F0180
0F8380
07C700
07C600
03EE00
01FC00
01F800
00F800
00F800
00F800
00F800
00F800
01F800
03FF00
03FE00
ENDCHAR
STARTCHAR Z
ENCODING 90
SWIDTH 790 0
DWIDTH 20 0
BBX 18 20 1 0
BITMAP
7FFFC0
7FFFC0
780F80
781F80
703F00
603E00
607C00
00FC00
01F800
01F000
03E000
07C000
0FC000
0F8180
1F0180
3E0380
7E0780
7C0780
FFFF80
FFFF80
ENDCHAR
STARTCHAR bracketleft
ENCODING 91
SWIDTH 435 0
DWIDTH 11 0
BBX 8 29 2 -5
BITMAP
FF
FF
F8
F8
F8
F8
F8
F8
F8
F8
F8
F8
F8
F8
F8
F8
F8
F8
F8
F8
F8
F8
F8
F8
F8
F8
F8
FF
FF
ENDCHAR
STARTCHAR backslash
ENCODING 92
SWIDTH 355 0
DWIDTH 9 0
BBX 9 27 0 -3
BITMAP
4000
C000
6000
6000
6000
6000
3000
3000
3000
3000
1800
1800
1800
1800
0C00
0C00
0C00
0C00
0600
0600
0600
0600
0300
0300
0300
0300
0180
ENDCHAR
STARTCHAR bracketright
ENCODING 93
SWIDTH 435 0
DWIDTH 11 0
BBX 8 29 1 -5
BITMAP
FF
FF
1F
1F
1F
1F
1F
1F
1F
1F
1F
1F
1F
1F
1F
1F
1F
1F
1F
1F
1F
1F
1F
1F
1F
1F
1F
1F
FF
ENDCHAR
STARTCHAR asciicircum
ENCODING 94
SWIDTH 642 0
DWIDTH 16 0
BBX 14 11 1 7
BITMAP
0380
0FC0
0FC0
1FE0
1BF0
39F0
30F8
70F8
E07C
C07C
C03C
ENDCHAR
STARTCHAR underscore
ENCODING 95
SWIDTH 523 0
DWIDTH 13 0
BBX 11 2 1 -4
BITMAP
FFE0
FFE0
ENDCHAR
STARTCHAR grave
ENCODING 96
SWIDTH 380 0
DWIDTH 10 0
BBX 8 5 1 17
BITMAP
F8
FC
3C
1E
07
ENDCHAR
STARTCHAR a
ENCODING 97
SWIDTH 665 0
DWIDTH 17 0
BBX 15 14 1 0
BITMAP
0FC0
1FF0
7FF0
70F8
0078
0078
3FF8
7FF8
F878
F078
F8F8
FFFC
7F7E
3C7E
ENDCHAR
STARTCHAR b
ENCODING 98
SWIDTH 730 0
DWIDTH 18 0
BBX 17 22 0 0
BITMAP
0E0000
3E0000
FE0000
FE0000
3E0000
1E0000
1E0000
1E0000
1E3800
1EFE00
1FFF00
1FFF00
1E1F00
1E0F80
1E0F80
1E0F80
1E0F80
1E0F00
1F0F00
1FFE00
1FFC00
1BF000
ENDCHAR
STARTCHAR c
ENCODING 99
SWIDTH 638 0
DWIDTH 16 0
BBX 13 14 1 0
BITMAP
01C0
0FF8
1FF8
3C78
7838
7818
7800
F800
F800
7C00
7C18
3FF8
3FF0
0FE0
ENDCHAR
STARTCHAR d
ENCODING 100
SWIDTH 730 0
DWIDTH 18 0
BBX 17 22 1 0
BITMAP
000E00
003E00
00FE00
00FE00
003E00
003E00
003E00
003E00
01FE00
07FE00
1FFE00
3C7E00
783E00
783E00
783E00
F83E00
F83E00
7C3E00
7C3E00
7FFE00
3FFF80
1FBF00
ENDCHAR
STARTCHAR e
ENCODING 101
SWIDTH 661 0
DWIDTH 17 0
BBX 14 14 1 0
BITMAP
03E0
0FF0
1FF8
3C78
787C
783C
7FFC
FFFC
7800
7C08
7E1C
3FF8
1FF0
0FC0
ENDCHAR
STARTCHAR f
ENCODING 102
SWIDTH 488 0
DWIDTH 12 0
BBX 13 22 1 0
BITMAP
01F8
07F8
0FF8
0E38
1E18
1E00
3E00
3E00
3E00
FFE0
FFE0
3E00
3E00
3E00
3E00
3E00
3E00
3E00
3E00
7E00
FFC0
FFC0
ENDCHAR
STARTCHAR g
ENCODING 103
SWIDTH 640 0
DWIDTH 16 0
BBX 15 21 1 -7
BITMAP
0780
1FFE
3FFE
79F8
F0F8
F078
F870
FFF0
7FC0
3F80
0300
0F00
1F80
0FE0
07F8
C1F8
E078
F078
FFF0
7FC0
0300
ENDCHAR
STARTCHAR h
ENCODING 104
SWIDTH 724 0
DWIDTH 18 0
BBX 17 22 1 0
BITMAP
0C0000
7C0000
FC0000
FC0000
7C0000
3C0000
3C0000
3C0000
3C7000
3CFC00
3FFC00
3FFC00
3C3E00
3C3E00
3C3E00
3C3E00
3C3E00
3C3E00
3C3E00
7C3E00
FF3F80
FF3F00
ENDCHAR
STARTCHAR i
ENCODING 105
SWIDTH 408 0
DWIDTH 10 0
BBX 9 21 1 0
BITMAP
3C00
7E00
7E00
3C00
1000
0000
0000
0E00
7E00
FE00
FE00
3E00
3E00
3E00
3E00
3E00
3E00
3E00
7E00
FF80
FF00
ENDCHAR
STARTCHAR j
ENCODING 106
SWIDTH 386 0
DWIDTH 10 0
BBX 6 27 1 -6
BITMAP
3C
7C
7C
7C
38
00
00
1C
FC
FC
FC
3C
3C
3C
3C
3C
3C
3C
3C
3C
3C
3C
3C
78
70
E0
C0
ENDCHAR
STARTCHAR k
ENCODING 107
SWIDTH 733 0
DWIDTH 18 0
BBX 17 22 1 0
BITMAP
0C0000
7C0000
FC0000
FC0000
7C0000
3C0000
3C0000
3C0000
3C7F00
3C7F00
3C7F00
3C1C00
3C1800
3C7000
3CE000
3DF000
3CF800
3CF800
3C7C00
7C3E00
FF3F80
FF1F80
ENDCHAR
STARTCHAR l
ENCODING 108
SWIDTH 388 0
DWIDTH 10 0
BBX 8 22 1 0
BITMAP
0C
7C
FC
FC
7C
3C
3C
3C
3C
3C
3C
3C
3C
3C
3C
3C
3C
3C
3C
7C
FF
FF
ENDCHAR
STARTCHAR m
ENCODING 109
SWIDTH 1052 0
DWIDTH 26 0
BBX 25 14 1 0
BITMAP
08707000
3CFCFC00
FDFDFC00
FFFFFE00
7E3E3E00
3E3E3E00
3E3E3E00
3E3E3E00
3E3E3E00
3E3E3E00
3E3E3E00
7E3E3E00
FFBFBF80
FF3F3F00
ENDCHAR
STARTCHAR n
ENCODING 110
SWIDTH 744 0
DWIDTH 19 0
BBX 17 14 1 0
BITMAP
087000
3CFC00
FDFE00
FFFE00
7E1E00
3E1E00
3E1E00
3E1E00
3E1E00
3E1E00
3E1E00
7E1E00
FF9F80
FF1F80
ENDCHAR
STARTCHAR o
ENCODING 111
SWIDTH 696 0
DWIDTH 17 0
BBX 15 14 1 0
BITMAP
01C0
07F0
1FF8
3CFC
787E
783E
783E
F83E
F83E
7C3C
7C3C
3FF8
3FF0
0FC0
ENDCHAR
STARTCHAR p
ENCODING 112
SWIDTH 760 0
DWIDTH 19 0
BBX 17 20 1 -6
BITMAP
087800
3CFC00
FDFE00
FFFF00
7E1F00
3E0F00
3E0F80
3E0F80
3E0F00
3E0F00
3E1E00
3FFC00
3FF800
3FF000
3E0000
3E0000
3E0000
3E0000
7FC000
FFC000
ENDCHAR
STARTCHAR q
ENCODING 113
SWIDTH 730 0
DWIDTH 18 0
BBX 17 20 1 -6
BITMAP
018600
0FFE00
1FFE00
3C7E00
783E00
783E00
783E00
F83E00
F83E00
7C3E00
7E3E00
7FFE00
3FFE00
1FBE00
003E00
003E00
003E00
003E00
00FF00
01FF80
ENDCHAR
STARTCHAR r
ENCODING 114
SWIDTH 569 0
DWIDTH 14 0
BBX 13 14 1 0
BITMAP
08E0
3DF8
FDF8
FFF8
7E70
3E60
3E00
3E00
3E00
3E00
3E00
7E00
FFC0
FFC0
ENDCHAR
STARTCHAR s
ENCODING 115
SWIDTH 559 0
DWIDTH 14 0
BBX 11 14 2 0
BITMAP
1F80
7FC0
F1C0
F0C0
F840
FE00
7F80
3FC0
1FE0
87E0
C3E0
E3C0
FF80
FE00
ENDCHAR
STARTCHAR t
ENCODING 116
SWIDTH 493 0
DWIDTH 12 0
BBX 12 18 0 0
BITMAP
0600
0E00
1E00
3E00
7E00
7FF0
FFF0
1E00
1E00
1E00
1E00
1E00
1E00
1E00
1E20
1FF0
0FE0
07C0
ENDCHAR
STARTCHAR u
ENCODING 117
SWIDTH 718 0
DWIDTH 18 0
BBX 17 14 0 0
BITMAP
060600
3E1E00
FE7E00
FE7E00
3E3E00
1E1E00
1E1E00
1E1E00
1E1E00
1E1E00
1F3E00
1FFE00
1FDF80
0F9F80
ENDCHAR
STARTCHAR v
ENCODING 118
SWIDTH 651 0
DWIDTH 16 0
BBX 16 14 0 0
BITMAP
0C00
3C7F
FC7E
FC1E
3E0C
1E0C
1E18
1F18
0F30
0FB0
07E0
07E0
07C0
0380
ENDCHAR
STARTCHAR w
ENCODING 119
SWIDTH 955 0
DWIDTH 24 0
BBX 23 14 0 0
BITMAP
0C0C00
3C3CFE
FCFC7E
FCFC3C
3E3E0C
1E1E1C
1E1F18
1F1F18
0F3FB0
0FBFB0
07E7E0
07E7E0
07C3C0
0383C0
ENDCHAR
STARTCHAR x
ENCODING 120
SWIDTH 662 0
DWIDTH 17 0
BBX 16 13 0 0
BITMAP
7E3F
7E3E
1F0C
0FB8
0FF0
07E0
03E0
07F0
0FF8
1CF8
387E
7E7F
FE3F
ENDCHAR
STARTCHAR y
ENCODING 121
SWIDTH 651 0
DWIDTH 16 0
BBX 16 20 0 -6
BITMAP
0C00
3C7F
FC7E
FC1E
3E0C
1E0C
1E18
1F18
0F30
0FB0
07E0
07E0
07C0
0780
0780
0F00
0E00
1C00
3800
3000
ENDCHAR
STARTCHAR z
ENCODING 122
SWIDTH 645 0
DWIDTH 16 0
BBX 13 14 2 0
BITMAP
C000
FFF8
FFF0
FFE0
FFC0
C180
8300
0600
1C30
3830
7FF0
FFF0
FFF0
FFF0
ENDCHAR
STARTCHAR braceleft
ENCODING 123
SWIDTH 496 0
DWIDTH 12 0
BBX 9 29 1 -5
BITMAP
0080
0180
0380
0700
0F00
0F00
0F00
0F00
0F00
0F00
0F00
0E00
1E00
3C00
F000
F800
1C00
0E00
0F00
0F00
0F00
0F00
0F00
0F00
0F00
0700
0780
0380
0180
ENDCHAR
STARTCHAR bar
ENCODING 124
SWIDTH 373 0
DWIDTH 9 0
BBX 2 30 4 -5
BITMAP
C0
C0
C0
C0
C0
C0
C0
C0
C0
C0
C0
C0
C0
C0
C0
C0
C0
C0
C0
C0
C0
C0
C0
C0
C0
C0
C0
C0
C0
C0
ENDCHAR
STARTCHAR braceright
ENCODING 125
SWIDTH 496 0
DWIDTH 12 0
BBX 9 28 2 -5
BITMAP
E000
7000
7800
7800
7800
7800
7800
7800
7800
3800
3C00
1C00
0E00
0780
0F80
1C00
3C00
3800
7800
7800
7800
7800
7800
7800
7800
7000
E000
C000
ENDCHAR
STARTCHAR asciitilde
ENCODING 126
SWIDTH 653 0
DWIDTH 16 0
BBX 14 7 1 4
BITMAP
3C00
7F04
7FDC
FFFC
C3F8
01F0
0020
ENDCHAR
STARTCHAR uni00A0
ENCODING 160
SWIDTH 279 0
DWIDTH 7 0
BBX 1 1 0 0
BITMAP
00
ENDCHAR
STARTCHAR exclamdown
ENCODING 161
SWIDTH 338 0
DWIDTH 8 0
BBX 6 20 1 -6
BITMAP
18
7C
FC
FC
78
00
00
30
38
38
38
78
78
7C
7C
7C
7C
7C
7C
F0
ENDCHAR
STARTCHAR cent
ENCODING 162
SWIDTH 638 0
DWIDTH 16 0
BBX 13 24 1 -5
BITMAP
0380
0380
0380
0380
0380
03C0
0FF8
1FF8
3C78
7838
7818
7800
F800
F800
7C00
7C18
3FF8
3FF0
0FE0
0380
0380
0380
0380
0380
ENDCHAR
STARTCHAR sterling
ENCODING 163
SWIDTH 721 0
DWIDTH 18 0
BBX 17 20 0 0
BITMAP
00FE00
01FF00
03FF00
070F00
0F0300
0F0000
0F0000
1F0000
1F0000
1F0000
7FF000
FFE000
1F0000
1E0000
1E0180
1C0380
1FFF80
3FFF80
7FFF80
7FFF80
ENDCHAR
STARTCHAR currency
ENCODING 164
SWIDTH 891 0
DWIDTH 22 0
BBX 19 19 2 0
BITMAP
C00060
E000C0
71F980
3FFF00
1FFF00
1C0F00
380780
780780
780780
780380
780380
780780
3C0700
3F1E00
1FFF00
3FF380
6001C0
C000E0
800040
ENDCHAR
STARTCHAR yen
ENCODING 165
SWIDTH 847 0
DWIDTH 21 0
BBX 21 20 0 0
BITMAP
FF87F8
FF87F8
7F07F0
3E01E0
1F01C0
1F0180
0F8380
07C700
07C600
03EE00
03FC00
3FFFE0
00F800
00F800
00FFE0
3FFFE0
00F800
01F800
03FE00
03FE00
ENDCHAR
STARTCHAR brokenbar
ENCODING 166
SWIDTH 373 0
DWIDTH 9 0
BBX 2 30 4 -5
BITMAP
C0
C0
C0
C0
C0
C0
C0
C0
C0
C0
C0
C0
00
00
00
00
00
00
C0
C0
C0
C0
C0
C0
C0
C0
C0
C0
C0
C0
ENDCHAR
STARTCHAR section
ENCODING 167
SWIDTH 738 0
DWIDTH 18 0
BBX 15 22 2 -2
BITMAP
0FF0
1FFC
78FC
71FC
F1CC
E3C4
E1E0
F1E0
F1F0
78F0
7878
3C78
3C3C
1E3E
0F1E
0F1E
8F1E
CF1E
FE3C
FC78
FFF0
3FC0
ENDCHAR
STARTCHAR dieresis
ENCODING 168
SWIDTH 597 0
DWIDTH 15 0
BBX 13 5 1 17
BITMAP
0020
78F0
F8F8
F8F0
70F0
ENDCHAR
STARTCHAR copyright
ENCODING 169
SWIDTH 1053 0
DWIDTH 26 0
BBX 23 20 2 0
BITMAP
00FF00
03FFC0
07FFE0
1E01F0
3C00F8
787E7C
71FE3C
F3CE3C
E3C61C
E3821E
E7C01E
F7C01C
F3E71C
F3FF3C
F9FC38
7C0070
3E00E0
3F83C0
0FFF80
07FE00
ENDCHAR
STARTCHAR ordfeminine
ENCODING 170
SWIDTH 574 0
DWIDTH 14 0
BBX 13 11 1 10
BITMAP
1F80
3FC0
73E0
01E0
01E0
7FE0
F1E0
F1E0
FFE0
7FF8
1800
ENDCHAR
STARTCHAR guillemotleft
ENCODING 171
SWIDTH 738 0
DWIDTH 18 0
BBX 15 12 1 1
BITMAP
0100
0700
0F0C
1E1C
3C3C
7C78
FCF8
7C3C
1E1C
0F0E
0700
0300
ENDCHAR
STARTCHAR logicalnot
ENCODING 172
SWIDTH 578 0
DWIDTH 14 0
BBX 12 7 1 2
BITMAP
FFF0
FFF0
0030
0030
0030
0030
0030
ENDCHAR
STARTCHAR softhyphen
ENCODING 173
SWIDTH 513 0
DWIDTH 13 0
BBX 9 3 2 6
BITMAP
FF80
FF80
FF00
ENDCHAR
STARTCHAR registered
ENCODING 174
SWIDTH 1028 0
DWIDTH 26 0
BBX 23 20 1 0
BITMAP
007F80
01FFE0
07FFF0
0F01F8
1C007C
39FF3C
39EF9E
70E79E
70E71E
70FE1E
F0F80E
F0EF0E
78EF1E
79E79C
7BE79C
3C0038
3F0070
1FC3E0
0FFF80
03FE00
ENDCHAR
STARTCHAR macron
ENCODING 175
SWIDTH 600 0
DWIDTH 15 0
BBX 11 2 2 18
BITMAP
FFE0
FFE0
ENDCHAR
STARTCHAR degree
ENCODING 176
SWIDTH 431 0
DWIDTH 11 0
BBX 9 8 1 14
BITMAP
1E00
7F00
E700
C380
C300
E300
FE00
7800
ENDCHAR
STARTCHAR plusminus
ENCODING 177
SWIDTH 545 0
DWIDTH 14 0
BBX 12 16 1 -2
BITMAP
0600
0600
0600
0600
0600
FFF0
FFF0
0600
0600
0600
0600
0600
0000
0000
0000
FFF0
ENDCHAR
STARTCHAR twosuperior
ENCODING 178
SWIDTH 539 0
DWIDTH 13 0
BBX 11 11 1 10
BITMAP
1E00
7F80
FFC0
C3C0
0380
0700
0E20
1860
7FE0
FFE0
FFE0
ENDCHAR
STARTCHAR threesuperior
ENCODING 179
SWIDTH 461 0
DWIDTH 12 0
BBX 9 15 1 6
BITMAP
3800
7F00
FF00
0700
0700
0E00
1E00
1F00
0780
0380
0380
0700
1E00
F800
E000
ENDCHAR
STARTCHAR acute
ENCODING 180
SWIDTH 380 0
DWIDTH 10 0
BBX 8 5 2 17
BITMAP
3E
3F
7C
F0
E0
ENDCHAR
STARTCHAR uni00B5
ENCODING 181
SWIDTH 702 0
DWIDTH 18 0
BBX 16 20 1 -6
BITMAP
1C0C
7C7C
FC7C
7C7C
7C3C
7C3C
7C3C
7C3C
7C3C
7C3C
7E7C
7FFE
7FBF
7F38
7C00
7C00
7C00
7C00
7E00
7800
ENDCHAR
STARTCHAR paragraph
ENCODING 182
SWIDTH 847 0
DWIDTH 21 0
BBX 19 26 1 -6
BITMAP
07F3E0
1FF3E0
3FF3C0
7FF380
FFF380
FFF380
FFF380
FFF380
FFF380
FFF380
7FF380
3FF380
043380
003380
003380
003380
003380
003380
003380
003380
003380
003380
003380
007380
00F3E0
00F3E0
ENDCHAR
STARTCHAR periodcentered
ENCODING 183
SWIDTH 330 0
DWIDTH 8 0
BBX 6 5 1 4
BITMAP
78
7C
FC
78
70
ENDCHAR
STARTCHAR cedilla
ENCODING 184
SWIDTH 600 0
DWIDTH 15 0
BBX 7 9 5 -7
BITMAP
0E
1C
38
70
38
3C
3C
F8
80
ENDCHAR
STARTCHAR onesuperior
ENCODING 185
SWIDTH 427 0
DWIDTH 11 0
BBX 7 11 2 10
BITMAP
FE
FE
3C
38
38
38
38
38
78
FE
FE
ENDCHAR
STARTCHAR ordmasculine
ENCODING 186
SWIDTH 609 0
DWIDTH 15 0
BBX 13 11 1 10
BITMAP
0380
1FE0
3FF0
78F0
7078
F078
F878
7870
7CE0
3FC0
0F00
ENDCHAR
STARTCHAR guillemotright
ENCODING 187
SWIDTH 738 0
DWIDTH 18 0
BBX 14 12 3 1
BITMAP
0100
0380
C1C0
E1E0
F0F0
7CFC
7C7C
78F8
F0F0
E1E0
43C0
0300
ENDCHAR
STARTCHAR onequarter
ENCODING 188
SWIDTH 1059 0
DWIDTH 26 0
BBX 24 31 2 -6
BITMAP
000030
000030
000060
000060
FE00C0
FE00C0
3C0180
380180
380300
380300
380600
380400
780C00
FE0800
FE1800
003000
003000
006038
006078
00C0F8
00C1F8
0183B8
018738
030E38
031FFF
061FFF
040038
0C0038
080038
080038
000020
ENDCHAR
STARTCHAR onehalf
ENCODING 189
SWIDTH 1180 0
DWIDTH 30 0
BBX 26 30 2 -5
BITMAP
00003000
00003000
00006000
00006000
FE00C000
FE00C000
3C018000
38018000
38030000
38030000
38060000
38040000
780C0000
FE080000
FE180000
00300000
00300000
00607F00
0060FF80
00C1CF80
00C00780
01800F00
01801C40
030038C0
03007FC0
0601FFC0
0401FFC0
0C000000
08000000
08000000
ENDCHAR
STARTCHAR threequarters
ENCODING 190
SWIDTH 1093 0
DWIDTH 27 0
BBX 26 31 1 -6
BITMAP
00000C00
00000C00
00001800
00001800
38003000
7F002000
FF006000
07004000
0700C000
0E018000
1E018000
1F030000
07830000
03860000
03860000
070C0000
1E0C0000
F8180E00
E0181E00
00303E00
00306E00
0060CE00
0041CE00
00C38E00
0087FFC0
018FFFC0
03000E00
03000E00
06000E00
02000E00
00000800
ENDCHAR
STARTCHAR questiondown
ENCODING 191
SWIDTH 440 0
DWIDTH 11 0
BBX 11 21 0 -7
BITMAP
0600
1F00
1F00
1F00
1E00
0000
0000
0400
0F00
1F00
1F00
0F00
0E00
3800
7000
F000
F800
FFE0
7FC0
3F80
0600
ENDCHAR
STARTCHAR Agrave
ENCODING 192
SWIDTH 916 0
DWIDTH 23 0
BBX 23 28 0 0
BITMAP
03E000
03F000
00F000
007800
001800
000000
000000
000000
001C00
007C00
007C00
00FE00
00DE00
01DF00
019F00
038F80
030F80
030780
0707C0
07FFC0
0FFFE0
0C03E0
0C01E0
1801F0
1801F0
7E01F8
FF87FE
FF07FC
ENDCHAR
STARTCHAR Aacute
ENCODING 193
SWIDTH 916 0
DWIDTH 23 0
BBX 23 28 0 0
BITMAP
001F80
001F80
003E00
003800
007000
000000
000000
000000
001C00
007C00
007C00
00FE00
00DE00
01DF00
019F00
038F80
030F80
030780
0707C0
07FFC0
0FFFE0
0C03E0
0C01E0
1801F0
1801F0
7E01F8
FF87FE
FF07FC
ENDCHAR
STARTCHAR Acircumflex
ENCODING 194
SWIDTH 916 0
DWIDTH 23 0
BBX 23 28 0 0
BITMAP
003800
00FC00
01DF00
079FC0
020F80
000000
000000
000000
001C00
007C00
007C00
00FE00
00DE00
01DF00
019F00
038F80
030F80
030780
0707C0
07FFC0
0FFFE0
0C03E0
0C01E0
1801F0
1801F0
7E01F8
FF87FE
FF07FC
ENDCHAR
STARTCHAR Atilde
ENCODING 195
SWIDTH 916 0
DWIDTH 23 0
BBX 23 29 0 0
BITMAP
002000
007080
01FF80
03FF00
033E00
001800
000000
000000
000000
001C00
007C00
007C00
00FE00
00DE00
01DF00
019F00
038F80
030F80
030780
0707C0
07FFC0
0FFFE0
0C03E0
0C01E0
1801F0
1801F0
7E01F8
FF87FE
FF07FC
ENDCHAR
STARTCHAR Adieresis
ENCODING 196
SWIDTH 916 0
DWIDTH 23 0
BBX 23 28 0 0
BITMAP
030180
0783C0
0FC7C0
0787C0
070380
000000
000000
000000
001C00
007C00
007C00
00FE00
00DE00
01DF00
019F00
038F80
030F80
030780
0707C0
07FFC0
0FFFE0
0C03E0
0C01E0
1801F0
1801F0
7E01F8
FF87FE
FF07FC
ENDCHAR
STARTCHAR Aring
ENCODING 197
SWIDTH 916 0
DWIDTH 23 0
BBX 23 28 0 0
BITMAP
007E00
00CE00
01C700
01C600
00FC00
006000
000000
000000
001C00
007C00
007C00
00FE00
00DE00
01DF00
019F00
038F80
030F80
030780
0707C0
07FFC0
0FFFE0
0C03E0
0C01E0
1801F0
1801F0
7E01F8
FF87FE
FF07FC
ENDCHAR
STARTCHAR AE
ENCODING 198
SWIDTH 1119 0
DWIDTH 28 0
BBX 26 20 0 0
BITMAP
01FFFFC0
03FFFFC0
00FF03C0
007F03C0
006F01C0
00EF00C0
00CF0C80
01CF1C00
018F1C00
03FFFC00
03FFFC00
070F1C00
060F1C00
0E0F0C40
0C0F00C0
1C0F01C0
180F03C0
7C1F03C0
FF3FFFC0
FE3FFFC0
ENDCHAR
STARTCHAR Ccedilla
ENCODING 199
SWIDTH 837 0
DWIDTH 21 0
BBX 19 27 1 -7
BITMAP
00FF00
03FFC0
07FFC0
0F07C0
1E03C0
3C01C0
7C0000
7C0000
780000
780000
F80000
FC0000
7C0000
7C0000
7E0000
3E0040
3F01E0
1FFF80
0FFF00
03FE00
007000
00E000
007800
003800
007800
00F800
008000
ENDCHAR
STARTCHAR Egrave
ENCODING 200
SWIDTH 820 0
DWIDTH 21 0
BBX 18 28 1 0
BITMAP
0FC000
0FC000
03E000
00E000
006000
000000
000000
000000
7FFFC0
FFFFC0
3E07C0
1E03C0
1E01C0
1E01C0
1E0880
1E1800
1E3800
1FF800
1FF800
1E3800
1E1800
1E18C0
1E01C0
1E01C0
1E03C0
3E07C0
FFFFC0
FFFFC0
ENDCHAR
STARTCHAR Eacute
ENCODING 201
SWIDTH 820 0
DWIDTH 21 0
BBX 18 28 1 0
BITMAP
007E00
007E00
00F800
00E000
00C000
000000
000000
000000
7FFFC0
FFFFC0
3E07C0
1E03C0
1E01C0
1E01C0
1E0880
1E1800
1E3800
1FF800
1FF800
1E3800
1E1800
1E18C0
1E01C0
1E01C0
1E03C0
3E07C0
FFFFC0
FFFFC0
ENDCHAR
STARTCHAR Ecircumflex
ENCODING 202
SWIDTH 820 0
DWIDTH 21 0
BBX 18 28 1 0
BITMAP
00E000
01F000
077C00
0E3F00
083E00
000000
000000
000000
7FFFC0
FFFFC0
3E07C0
1E03C0
1E01C0
1E01C0
1E0880
1E1800
1E3800
1FF800
1FF800
1E3800
1E1800
1E18C0
1E01C0
1E01C0
1E03C0
3E07C0
FFFFC0
FFFFC0
ENDCHAR
STARTCHAR Edieresis
ENCODING 203
SWIDTH 820 0
DWIDTH 21 0
BBX 18 28 1 0
BITMAP
0E0600
1E0F00
1F1F00
1E1F00
1C0E00
000000
000000
000000
7FFFC0
FFFFC0
3E07C0
1E03C0
1E01C0
1E01C0
1E0880
1E1800
1E3800
1FF800
1FF800
1E3800
1E1800
1E18C0
1E01C0
1E01C0
1E03C0
3E07C0
FFFFC0
FFFFC0
ENDCHAR
STARTCHAR Igrave
ENCODING 204
SWIDTH 465 0
DWIDTH 12 0
BBX 11 28 0 0
BITMAP
FC00
7C00
3E00
0E00
0300
0000
0000
0000
3FC0
7FC0
1FC0
0F00
0F00
0F00
0F00
0F00
0F00
0F00
0F00
0F00
0F00
0F00
0F00
0F00
0F00
3F00
7FE0
7FC0
ENDCHAR
STARTCHAR Iacute
ENCODING 205
SWIDTH 465 0
DWIDTH 12 0
BBX 10 28 1 0
BITMAP
07C0
0FC0
0F00
1E00
1800
0000
0000
0000
7F80
FF80
3F80
1E00
1E00
1E00
1E00
1E00
1E00
1E00
1E00
1E00
1E00
1E00
1E00
1E00
1E00
7E00
FFC0
FF80
ENDCHAR
STARTCHAR Icircumflex
ENCODING 206
SWIDTH 465 0
DWIDTH 12 0
BBX 12 28 0 0
BITMAP
0E00
1F80
7FC0
E3F0
C1F0
0000
0000
0000
3FC0
7FC0
1FC0
0F00
0F00
0F00
0F00
0F00
0F00
0F00
0F00
0F00
0F00
0F00
0F00
0F00
0F00
3F00
7FE0
7FC0
ENDCHAR
STARTCHAR Idieresis
ENCODING 207
SWIDTH 465 0
DWIDTH 12 0
BBX 12 28 0 0
BITMAP
2060
F0F0
F9F0
F1F0
E0E0
0000
0000
0000
3FC0
7FC0
1FC0
0F00
0F00
0F00
0F00
0F00
0F00
0F00
0F00
0F00
0F00
0F00
0F00
0F00
0F00
3F00
7FE0
7FC0
ENDCHAR
STARTCHAR Eth
ENCODING 208
SWIDTH 920 0
DWIDTH 23 0
BBX 21 20 1 0
BITMAP
7FFC00
FFFF00
7F3FC0
1E07E0
1E03E0
1E03F0
1E01F0
1E01F0
1E01F8
3FC0F8
3FC0F8
1E00F0
1E00F0
1E01F0
1E01E0
1E03C0
1E03C0
3E0F00
FFFE00
FFF800
ENDCHAR
STARTCHAR Ntilde
ENCODING 209
SWIDTH 899 0
DWIDTH 22 0
BBX 21 29 1 0
BITMAP
004000
00E100
03FF00
07FE00
067C00
003000
000000
000000
000000
7803F8
FC07F8
7E03F0
1F00E0
1F80E0
1FC0E0
1FC0E0
1FE0E0
1BF0E0
19F8E0
18FCE0
187EE0
183FE0
181FE0
180FE0
180FE0
1807E0
7C03E0
FF01E0
FF00E0
ENDCHAR
STARTCHAR Ograve
ENCODING 210
SWIDTH 960 0
DWIDTH 24 0
BBX 22 29 1 0
BITMAP
002000
03E000
03F000
01F000
007800
001800
000000
000000
000000
007F00
03FFC0
07FFE0
0F07F0
1E01F0
3C01F8
7C00F8
7C00F8
7800FC
78007C
F8007C
FC0078
7C00F8
7C00F8
7C00F0
3E01E0
3F03E0
1FEFC0
0FFF00
03FC00
ENDCHAR
STARTCHAR Oacute
ENCODING 211
SWIDTH 960 0
DWIDTH 24 0
BBX 22 28 1 0
BITMAP
001F00
003F00
003E00
007800
006000
000000
000000
000000
007F00
03FFC0
07FFE0
0F07F0
1E01F0
3C01F8
7C00F8
7C00F8
7800FC
78007C
F8007C
FC0078
7C00F8
7C00F8
7C00F0
3E01E0
3F03E0
1FEFC0
0FFF00
03FC00
ENDCHAR
STARTCHAR Ocircumflex
ENCODING 212
SWIDTH 960 0
DWIDTH 24 0
BBX 22 28 1 0
BITMAP
003000
00FC00
01FF00
071F80
060F80
000000
000000
000000
007F00
03FFC0
07FFE0
0F07F0
1E01F0
3C01F8
7C00F8
7C00F8
7800FC
78007C
F8007C
FC0078
7C00F8
7C00F8
7C00F0
3E01E0
3F03E0
1FEFC0
0FFF00
03FC00
ENDCHAR
STARTCHAR Otilde
ENCODING 213
SWIDTH 960 0
DWIDTH 24 0
BBX 22 29 1 0
BITMAP
002000
00F000
01FF80
07FF00
067C00
001800
000000
000000
000000
007F00
03FFC0
07FFE0
0F07F0
1E01F0
3C01F8
7C00F8
7C00F8
7800FC
78007C
F8007C
FC0078
7C00F8
7C00F8
7C00F0
3E01E0
3F03E0
1FEFC0
0FFF00
03FC00
ENDCHAR
STARTCHAR Odieresis
ENCODING 214
SWIDTH 960 0
DWIDTH 24 0
BBX 22 28 1 0
BITMAP
030180
0787C0
0F87C0
0F87C0
070380
000000
000000
000000
007F00
03FFC0
07FFE0
0F07F0
1E01F0
3C01F8
7C00F8
7C00F8
7800FC
78007C
F8007C
FC0078
7C00F8
7C00F8
7C00F0
3E01E0
3F03E0
1FEFC0
0FFF00
03FC00
ENDCHAR
STARTCHAR multiply
ENCODING 215
SWIDTH 528 0
DWIDTH 13 0
BBX 11 10 1 3
BITMAP
C060
60C0
3180
1B00
0E00
0E00
1B00
3180
60C0
C060
ENDCHAR
STARTCHAR Oslash
ENCODING 216
SWIDTH 960 0
DWIDTH 24 0
BBX 22 27 1 -4
BITMAP
000060
000060
0000C0
00FFC0
03FFC0
07FFE0
0F07F0
1E07F0
3C07F8
7C0CF8
7C0CF8
7818F8
F8307C
F8307C
FC6078
7C60F8
7CC0F8
7DC0F0
3F81E0
3F03E0
1FEFC0
0FFF00
07FC00
0C0000
180000
180000
100000
ENDCHAR
STARTCHAR Ugrave
ENCODING 217
SWIDTH 898 0
DWIDTH 22 0
BBX 22 28 0 0
BITMAP
03F000
03F000
00F800
003800
001800
000000
000000
000000
7FC1FC
FFC1FC
3F80F8
1F0070
1F0070
1F0070
1F0070
1F0070
1F0070
1F0070
1F0070
1F0070
1F0070
1F0070
1F0060
1F0060
0F80E0
07F3C0
07FF80
01FE00
ENDCHAR
STARTCHAR Uacute
ENCODING 218
SWIDTH 898 0
DWIDTH 22 0
BBX 22 28 0 0
BITMAP
000F80
001F80
003E00
003C00
003000
000000
000000
000000
7FC1FC
FFC1FC
3F80F8
1F0070
1F0070
1F0070
1F0070
1F0070
1F0070
1F0070
1F0070
1F0070
1F0070
1F0070
1F0060
1F0060
0F80E0
07F3C0
07FF80
01FE00
ENDCHAR
STARTCHAR Ucircumflex
ENCODING 219
SWIDTH 898 0
DWIDTH 22 0
BBX 22 28 0 0
BITMAP
003800
007C00
01DF00
038FC0
020F80
000000
000000
000000
7FC1FC
FFC1FC
3F80F8
1F0070
1F0070
1F0070
1F0070
1F0070
1F0070
1F0070
1F0070
1F0070
1F0070
1F0070
1F0060
1F0060
0F80E0
07F3C0
07FF80
01FE00
ENDCHAR
STARTCHAR Udieresis
ENCODING 220
SWIDTH 898 0
DWIDTH 22 0
BBX 22 28 0 0
BITMAP
018180
0783C0
07C7C0
0787C0
078380
000000
000000
000000
7FC1FC
FFC1FC
3F80F8
1F0070
1F0070
1F0070
1F0070
1F0070
1F0070
1F0070
1F0070
1F0070
1F0070
1F0070
1F0060
1F0060
0F80E0
07F3C0
07FF80
01FE00
ENDCHAR
STARTCHAR Yacute
ENCODING 221
SWIDTH 847 0
DWIDTH 21 0
BBX 21 28 0 0
BITMAP
001F00
003F00
003C00
007800
006000
000000
000000
000000
FF87F8
FF87F8
7F07F0
3E01E0
1F01C0
1F0180
0F8380
07C700
07C600
03EE00
01FC00
01F800
00F800
00F800
00F800
00F800
00F800
01F800
03FF00
03FE00
ENDCHAR
STARTCHAR Thorn
ENCODING 222
SWIDTH 779 0
DWIDTH 19 0
BBX 18 20 1 0
BITMAP
FF8000
FF8000
3F8000
1E0000
1E0000
1FFE00
1FFF00
1F1F80
1E0FC0
1E07C0
1E07C0
1E0780
1E0F80
1E7E00
1EFC00
1E0000
1E0000
7E0000
FFC000
FF8000
ENDCHAR
STARTCHAR germandbls
ENCODING 223
SWIDTH 817 0
DWIDTH 20 0
BBX 18 22 1 0
BITMAP
00F800
03FC00
07FE00
0E3F00
1E1F00
1E0F00
1E0E00
1E1C00
1E3800
FE3800
FE7800
1E7800
1E7C00
1E7F00
1E3F80
1E1FC0
1E0FC0
1EC3C0
1EE3C0
3EF3C0
FEFF80
FEFE00
ENDCHAR
STARTCHAR agrave
ENCODING 224
SWIDTH 665 0
DWIDTH 17 0
BBX 15 22 1 0
BITMAP
3E00
7E00
1F00
0700
0380
0000
0000
0000
0FC0
1FF0
7FF0
70F8
0078
0078
3FF8
7FF8
F878
F078
F8F8
FFFC
7F7E
3C7E
ENDCHAR
STARTCHAR aacute
ENCODING 225
SWIDTH 665 0
DWIDTH 17 0
BBX 15 22 1 0
BITMAP
01F0
03F8
03E0
0780
0700
0000
0000
0000
0FC0
1FF0
7FF0
70F8
0078
0078
3FF8
7FF8
F878
F078
F8F8
FFFC
7F7E
3C7E
ENDCHAR
STARTCHAR acircumflex
ENCODING 226
SWIDTH 665 0
DWIDTH 17 0
BBX 15 22 1 0
BITMAP
0300
0F80
1FE0
79F8
61F8
0000
0000
0000
0FC0
1FF0
7FF0
70F8
0078
0078
3FF8
7FF8
F878
F078
F8F8
FFFC
7F7E
3C7E
ENDCHAR
STARTCHAR atilde
ENCODING 227
SWIDTH 665 0
DWIDTH 17 0
BBX 15 23 1 0
BITMAP
0400
0610
1FB8
3FF0
77C0
4380
0000
0000
0000
0FC0
1FF0
7FF0
70F8
0078
0078
3FF8
7FF8
F878
F078
F8F8
FFFC
7F7E
3C7E
ENDCHAR
STARTCHAR adieresis
ENCODING 228
SWIDTH 665 0
DWIDTH 17 0
BBX 15 22 1 0
BITMAP
1020
7878
7CF8
7CF8
7870
0000
0000
0000
0FC0
1FF0
7FF0
70F8
0078
0078
3FF8
7FF8
F878
F078
F8F8
FFFC
7F7E
3C7E
ENDCHAR
STARTCHAR aring
ENCODING 229
SWIDTH 665 0
DWIDTH 17 0
BBX 15 22 1 0
BITMAP
07C0
1DE0
18E0
1CE0
1FC0
0F00
0000
0000
0FC0
1FF0
7FF0
70F8
0078
0078
3FF8
7FF8
F878
F078
F8F8
FFFC
7F7E
3C7E
ENDCHAR
STARTCHAR ae
ENCODING 230
SWIDTH 947 0
DWIDTH 24 0
BBX 21 14 1 0
BITMAP
070180
1FEFE0
3FFFF0
7FFCF8
40F878
00F878
00FFF8
3FFFF8
78F800
F07800
F87C18
FFFFF8
7FBFE0
3F1FC0
ENDCHAR
STARTCHAR ccedilla
ENCODING 231
SWIDTH 638 0
DWIDTH 16 0
BBX 13 21 1 -7
BITMAP
01C0
0FF8
1FF8
3CF8
7838
7818
7800
F800
F800
7C00
7C18
3FF8
3FF0
0FE0
0180
0380
03C0
01E0
01E0
07C0
0600
ENDCHAR
STARTCHAR egrave
ENCODING 232
SWIDTH 661 0
DWIDTH 17 0
BBX 14 22 1 0
BITMAP
3E00
3F00
1F00
0780
0180
0040
0000
0000
03E0
0FF0
1FF8
3C78
787C
783C
7FFC
FFFC
7800
7C08
7E1C
3FF8
1FF0
0FC0
ENDCHAR
STARTCHAR eacute
ENCODING 233
SWIDTH 661 0
DWIDTH 17 0
BBX 14 22 1 0
BITMAP
01F8
01F8
03E0
03C0
0700
0000
0000
0000
03E0
0FF0
1FF8
3C78
787C
783C
7FFC
FFFC
7800
7C08
7E1C
3FF8
1FF0
0FC0
ENDCHAR
STARTCHAR ecircumflex
ENCODING 234
SWIDTH 661 0
DWIDTH 17 0
BBX 14 22 1 0
BITMAP
0300
07C0
1FF0
39F8
70FC
0000
0000
0000
03E0
0FF0
1FF8
3C78
787C
783C
7FFC
FFFC
7800
7C08
7E1C
3FF8
1FF0
0FC0
ENDCHAR
STARTCHAR edieresis
ENCODING 235
SWIDTH 661 0
DWIDTH 17 0
BBX 14 22 1 0
BITMAP
1020
3C78
7C7C
7C78
3878
0000
0000
0000
03E0
0FF0
1FF8
3C78
787C
783C
7FFC
FFFC
7800
7C08
7E1C
3FF8
1FF0
0FC0
ENDCHAR
STARTCHAR igrave
ENCODING 236
SWIDTH 408 0
DWIDTH 10 0
BBX 11 22 -1 0
BITMAP
7C00
FE00
3E00
0F00
0700
0000
0000
0000
0380
1F80
3F80
3F80
0F80
0F80
0F80
0F80
0F80
0F80
0F80
1F80
3FE0
3FC0
ENDCHAR
STARTCHAR iacute
ENCODING 237
SWIDTH 408 0
DWIDTH 10 0
BBX 10 22 1 0
BITMAP
0F80
0FC0
1F00
1C00
3800
0000
0000
0000
0E00
7E00
FE00
FE00
3E00
3E00
3E00
3E00
3E00
3E00
3E00
7E00
FF80
FF00
ENDCHAR
STARTCHAR icircumflex
ENCODING 238
SWIDTH 408 0
DWIDTH 10 0
BBX 12 22 -1 0
BITMAP
0600
1F80
3FC0
F3F0
C1F0
0000
0000
0000
0380
1F80
3F80
3F80
0F80
0F80
0F80
0F80
0F80
0F80
0F80
1F80
3FE0
3FC0
ENDCHAR
STARTCHAR idieresis
ENCODING 239
SWIDTH 408 0
DWIDTH 10 0
BBX 12 21 -1 0
BITMAP
78F0
F9F0
F9F0
70E0
0000
0000
0000
0380
1F80
3F80
3F80
0F80
0F80
0F80
0F80
0F80
0F80
0F80
1F80
3FE0
3FC0
ENDCHAR
STARTCHAR eth
ENCODING 240
SWIDTH 671 0
DWIDTH 17 0
BBX 15 22 1 0
BITMAP
3804
FE18
FFE0
1FC0
07E0
0FF0
31F0
40F8
03FC
0FFC
1FFC
3C3E
783E
F83E
F83E
F83E
F83C
F83C
7C38
7FF0
3FE0
1FC0
ENDCHAR
STARTCHAR ntilde
ENCODING 241
SWIDTH 744 0
DWIDTH 19 0
BBX 17 22 1 0
BITMAP
038000
0FDC00
1FF800
3BF000
00C000
000000
000000
000000
087000
3CFC00
FDFE00
FFFE00
7E1E00
3E1E00
3E1E00
3E1E00
3E1E00
3E1E00
3E1E00
7E1E00
FF9F80
FF1F80
ENDCHAR
STARTCHAR ograve
ENCODING 242
SWIDTH 696 0
DWIDTH 17 0
BBX 15 22 1 0
BITMAP
3F00
3F00
0F80
0780
01C0
0000
0000
0000
01C0
07F0
1FF8
3CFC
787E
783E
783E
F83E
F83E
7C3C
7C3C
3FF8
3FF0
0FC0
ENDCHAR
STARTCHAR oacute
ENCODING 243
SWIDTH 696 0
DWIDTH 17 0
BBX 15 22 1 0
BITMAP
00F8
01F8
01F0
03C0
0300
0000
0000
0000
01C0
07F0
1FF8
3CFC
787E
783E
783E
F83E
F83E
7C3C
7C3C
3FF8
3FF0
0FC0
ENDCHAR
STARTCHAR ocircumflex
ENCODING 244
SWIDTH 696 0
DWIDTH 17 0
BBX 15 22 1 0
BITMAP
0180
07C0
0FF0
38FC
30FC
0000
0000
0000
01C0
07F0
1FF8
3CFC
787E
783E
783E
F83E
F83E
7C3C
7C3C
3FF8
3FF0
0FC0
ENDCHAR
STARTCHAR otilde
ENCODING 245
SWIDTH 696 0
DWIDTH 17 0
BBX 15 22 1 0
BITMAP
0700
0FFC
3FF8
3BE0
01C0
0000
0000
0000
01C0
07F0
1FF8
3CFC
787E
783E
783E
F83E
F83E
7C3C
7C3C
3FF8
3FF0
0FC0
ENDCHAR
STARTCHAR odieresis
ENCODING 246
SWIDTH 696 0
DWIDTH 17 0
BBX 15 21 1 0
BITMAP
3C3C
3C7C
3C7C
3C38
0000
0000
0000
01C0
07F0
1FF8
3CFC
787E
783E
783E
F83E
F83E
7C3C
7C3C
3FF8
3FF0
0FC0
ENDCHAR
STARTCHAR divide
ENCODING 247
SWIDTH 545 0
DWIDTH 14 0
BBX 12 15 1 0
BITMAP
0F00
1F80
1F80
1F00
0C00
0000
FFF0
FFF0
0000
0000
0F00
1F80
1F80
1F00
0E00
ENDCHAR
STARTCHAR oslash
ENCODING 248
SWIDTH 696 0
DWIDTH 17 0
BBX 15 21 1 -4
BITMAP
000C
000C
0018
01D8
07F0
1FF8
3CFC
78FE
78FE
79BE
F9BE
FB3E
7E3C
7E3C
3FF8
3FF0
1FC0
1000
3000
6000
2000
ENDCHAR
STARTCHAR ugrave
ENCODING 249
SWIDTH 718 0
DWIDTH 18 0
BBX 17 22 0 0
BITMAP
0F8000
0FC000
07C000
01E000
006000
000000
000000
000000
060600
3E1E00
FE7E00
FE7E00
3E3E00
1E1E00
1E1E00
1E1E00
1E1E00
1E1E00
1F3E00
1FFE00
1FDF80
0F9F80
ENDCHAR
STARTCHAR uacute
ENCODING 250
SWIDTH 718 0
DWIDTH 18 0
BBX 17 22 0 0
BITMAP
007E00
007E00
00F800
00F000
01C000
000000
000000
000000
060600
3E1E00
FE7E00
FE7E00
3E3E00
1E1E00
1E1E00
1E1E00
1E1E00
1E1E00
1F3E00
1FFE00
1FDF80
0F9F80
ENDCHAR
STARTCHAR ucircumflex
ENCODING 251
SWIDTH 718 0
DWIDTH 18 0
BBX 17 22 0 0
BITMAP
00C000
01F000
07F800
0E7E00
183E00
000000
000000
000000
060600
3E1E00
FE7E00
FE7E00
3E3E00
1E1E00
1E1E00
1E1E00
1E1E00
1E1E00
1F3E00
1FFE00
1FDF80
0F9F80
ENDCHAR
STARTCHAR udieresis
ENCODING 252
SWIDTH 718 0
DWIDTH 18 0
BBX 17 21 0 0
BITMAP
0F1E00
1F1E00
1F1E00
0E1C00
000000
000000
000000
060600
3E1E00
FE7E00
FE7E00
3E3E00
1E1E00
1E1E00
1E1E00
1E1E00
1E1E00
1F3E00
1FFE00
1FDF80
0F9F80
ENDCHAR
STARTCHAR yacute
ENCODING 253
SWIDTH 651 0
DWIDTH 16 0
BBX 16 28 0 -6
BITMAP
00F8
00FC
01F0
03C0
0380
0000
0000
0000
0C00
3C7F
FC7E
FC1E
3E0C
1E0C
1E18
1F18
0F30
0FB0
07E0
07E0
07C0
0780
0780
0F00
0E00
1C00
3800
3000
ENDCHAR
STARTCHAR thorn
ENCODING 254
SWIDTH 740 0
DWIDTH 19 0
BBX 16 28 1 -6
BITMAP
0C00
7C00
FC00
FC00
7C00
3C00
3C00
3C00
3C70
3CFC
3FFE
3FFE
3C1F
3C1F
3C1F
3C0F
3C0F
3C1E
3E1E
3FFC
3FF8
3FE0
3C00
3C00
3C00
7C00
FF80
FF80
ENDCHAR
STARTCHAR ydieresis
ENCODING 255
SWIDTH 651 0
DWIDTH 16 0
BBX 16 27 0 -6
BITMAP
1C3C
3E7C
3E7C
3C38
0000
0000
0000
0C00
3C7F
FC7E
FC1E
3E0C
1E0C
1E18
1F18
0F30
0FB0
07E0
07E0
07C0
0780
0780
0F00
0E00
1C00
3800
3000
ENDCHAR
STARTCHAR Amacron
ENCODING 256
SWIDTH 916 0
DWIDTH 23 0
BBX 23 26 0 0
BITMAP
07FFC0
07FFC0
000000
000000
000000
000000
001C00
007C00
007C00
00FE00
00DE00
01DF00
019F00
038F80
030F80
030780
0707C0
07FFC0
0FFFE0
0C03E0
0C01E0
1801F0
1801F0
7E01F8
FF87FE
FF07FC
ENDCHAR
STARTCHAR amacron
ENCODING 257
SWIDTH 665 0
DWIDTH 17 0
BBX 15 20 1 0
BITMAP
7FF8
7FF8
0000
0000
0000
0000
0FC0
1FF0
7FF0
70F8
0078
0078
3FF8
7FF8
F878
F078
F8F8
FFFC
7F7E
3C7E
ENDCHAR
STARTCHAR Abreve
ENCODING 258
SWIDTH 916 0
DWIDTH 23 0
BBX 23 28 0 0
BITMAP
008180
01C380
03FF00
03FE00
00FC00
000000
000000
000000
001C00
007C00
007C00
00FE00
00DE00
01DF00
019F00
038F80
030F80
030780
0707C0
07FFC0
0FFFE0
0C03E0
0C01E0
1801F0
1801F0
7E01F8
FF87FE
FF07FC
ENDCHAR
STARTCHAR abreve
ENCODING 259
SWIDTH 665 0
DWIDTH 17 0
BBX 15 22 1 0
BITMAP
0818
1878
7EF0
3FE0
1FC0
0000
0000
0000
0FC0
1FF0
7FF0
70F8
0078
0078
3FF8
7FF8
F878
F078
F8F8
FFFC
7F7E
3C7E
ENDCHAR
STARTCHAR Aogonek
ENCODING 260
SWIDTH 916 0
DWIDTH 23 0
BBX 23 26 0 -6
BITMAP
001C00
007C00
007C00
00FE00
00DE00
01DF00
019F00
038F80
030F80
030780
0707C0
07FFC0
0FFFE0
0C03E0
0C01E0
1801F0
1801F0
7E01F8
FF87FE
FF07FC
00000C
000038
000078
00007C
00007C
00003C
ENDCHAR
STARTCHAR aogonek
ENCODING 261
SWIDTH 665 0
DWIDTH 17 0
BBX 15 20 1 -6
BITMAP
0FC0
1FF0
7FF0
70F8
0078
0078
3FF8
7FF8
F878
F078
F8F8
FFFC
7F7E
3C7E
000C
0038
0078
007C
007C
003C
ENDCHAR
STARTCHAR Cacute
ENCODING 262
SWIDTH 837 0
DWIDTH 21 0
BBX 19 28 1 0
BITMAP
003F00
003E00
007C00
007000
00E000
000000
000000
000000
00FF00
03FFC0
07FFC0
0F07C0
1E03C0
3C01C0
7C0000
7C0000
780000
780000
F80000
FC0000
7C0000
7C0000
7E0000
3E0040
3F01E0
1FFF80
0FFF00
03FE00
ENDCHAR
STARTCHAR cacute
ENCODING 263
SWIDTH 638 0
DWIDTH 16 0
BBX 13 22 1 0
BITMAP
01F8
01F8
03E0
03C0
0700
0000
0000
0000
01C0
0FF8
1FF8
3C78
7838
7818
7800
F800
F800
7C00
7C18
3FF8
3FF0
0FE0
ENDCHAR
STARTCHAR Cdotaccent
ENCODING 266
SWIDTH 837 0
DWIDTH 21 0
BBX 19 28 1 0
BITMAP
003000
00F800
01F800
01F800
00F000
000000
000000
000000
00FF00
03FFC0
07FFC0
0F07C0
1E03C0
3C01C0
7C0000
7C0000
780000
780000
F80000
FC0000
7C0000
7C0000
7E0000
3E0040
3F01E0
1FFF80
0FFF00
03FE00
ENDCHAR
STARTCHAR cdotaccent
ENCODING 267
SWIDTH 638 0
DWIDTH 16 0
BBX 13 21 1 0
BITMAP
07C0
07C0
0FC0
0780
0200
0000
0000
01C0
0FF8
1FF8
3C78
7838
7818
7800
F800
F800
7C00
7C18
3FF8
3FF0
0FE0
ENDCHAR
STARTCHAR Ccaron
ENCODING 268
SWIDTH 837 0
DWIDTH 21 0
BBX 19 28 1 0
BITMAP
0FC300
0FCF00
03FC00
00F800
006000
000000
000000
000000
00FF00
03FFC0
07FFC0
0F07C0
1E03C0
3C01C0
7C0000
7C0000
780000
780000
F80000
FC0000
7C0000
7C0000
7E0000
3E0040
3F01E0
1FFF80
0FFF00
03FE00
ENDCHAR
STARTCHAR ccaron
ENCODING 269
SWIDTH 638 0
DWIDTH 16 0
BBX 13 22 1 0
BITMAP
7E18
7E38
1FF0
0FC0
0380
0000
0000
0000
01C0
0FF8
1FF8
3C78
7838
7818
7800
F800
F800
7C00
7C18
3FF8
3FF0
0FE0
ENDCHAR
STARTCHAR Dcaron
ENCODING 270
SWIDTH 920 0
DWIDTH 23 0
BBX 21 28 1 0
BITMAP
1F8600
0FCE00
07F800
01F000
006000
000000
000000
000000
7FFC00
FFFF00
7F3FC0
1E07E0
1E03E0
1E03F0
1E01F0
1E01F0
1E01F8
1E00F8
1E00F8
1E00F0
1E00F0
1E01F0
1E01E0
1E03C0
1E03C0
3E0F00
FFFE00
FFF800
ENDCHAR
STARTCHAR dcaron
ENCODING 271
SWIDTH 730 0
DWIDTH 18 0
BBX 21 22 1 0
BITMAP
000E18
003E78
00FEF8
00FE78
003E38
003E70
003E70
003E20
01FE00
07FE00
1FFE00
3C7E00
783E00
783E00
783E00
F83E00
F83E00
7C3E00
7C3E00
7FFE00
3FFF80
1FBF00
ENDCHAR
STARTCHAR Dcroat
ENCODING 272
SWIDTH 920 0
DWIDTH 23 0
BBX 21 20 1 0
BITMAP
7FFC00
FFFF00
7F3FC0
1E07E0
1E03E0
1E03F0
1E01F0
1E01F0
1E01F8
3FC0F8
3FC0F8
1E00F0
1E00F0
1E01F0
1E01E0
1E03C0
1E03C0
3E0F00
FFFE00
FFF800
ENDCHAR
STARTCHAR dcroat
ENCODING 273
SWIDTH 730 0
DWIDTH 18 0
BBX 17 22 1 0
BITMAP
001E00
003E00
003E00
003E00
03FF80
03FF80
003E00
003E00
01FE00
07FE00
1FFE00
3C7E00
783E00
783E00
783E00
F83E00
F83E00
7C3E00
7C3E00
7FFE00
3FFF80
1FBF00
ENDCHAR
STARTCHAR Emacron
ENCODING 274
SWIDTH 820 0
DWIDTH 21 0
BBX 18 26 1 0
BITMAP
1FFF00
1FFF00
000000
000000
000000
000000
7FFFC0
FFFFC0
3E07C0
1E03C0
1E01C0
1E01C0
1E0880
1E1800
1E3800
1FF800
1FF800
1E3800
1E1800
1E18C0
1E01C0
1E01C0
1E03C0
3E07C0
FFFFC0
FFFFC0
ENDCHAR
STARTCHAR emacron
ENCODING 275
SWIDTH 661 0
DWIDTH 17 0
BBX 14 20 1 0
BITMAP
3FF8
3FF8
0000
0000
0000
0000
03E0
0FF0
1FF8
3C78
787C
783C
7FFC
FFFC
7800
7C08
7E1C
3FF8
1FF0
0FC0
ENDCHAR
STARTCHAR Edotaccent
ENCODING 278
SWIDTH 820 0
DWIDTH 21 0
BBX 18 28 1 0
BITMAP
006000
01F000
01F000
01F000
01E000
000000
000000
000000
7FFFC0
FFFFC0
3E07C0
1E03C0
1E01C0
1E01C0
1E0880
1E1800
1E3800
1FF800
1FF800
1E3800
1E1800
1E18C0
1E01C0
1E01C0
1E03C0
3E07C0
FFFFC0
FFFFC0
ENDCHAR
STARTCHAR edotaccent
ENCODING 279
SWIDTH 661 0
DWIDTH 17 0
BBX 14 21 1 0
BITMAP
07C0
07C0
07C0
0780
0300
0000
0000
03E0
0FF0
1FF8
3C78
787C
783C
7FFC
FFFC
7800
7C08
7E1C
3FF8
1FF0
0FC0
ENDCHAR
STARTCHAR Eogonek
ENCODING 280
SWIDTH 820 0
DWIDTH 21 0
BBX 18 27 1 -7
BITMAP
7FFFC0
FFFFC0
3E07C0
1E03C0
1E01C0
1E01C0
1E0880
1E1800
1E3800
1FF800
1FF800
1E3800
1E1800
1E18C0
1E01C0
1E01C0
1E03C0
3E07C0
FFFFC0
FFFFC0
000380
000700
000F00
001F80
000F80
000F00
000200
ENDCHAR
STARTCHAR eogonek
ENCODING 281
SWIDTH 661 0
DWIDTH 17 0
BBX 14 20 1 -6
BITMAP
03E0
0FF0
1FF8
3C78
787C
783C
7FFC
FFFC
7800
7C08
7E1C
3FF8
1FF0
0FC0
0180
0380
0780
07C0
07C0
0380
ENDCHAR
STARTCHAR Ecaron
ENCODING 282
SWIDTH 820 0
DWIDTH 21 0
BBX 18 28 1 0
BITMAP
1F8600
0FCE00
07FC00
01F000
006000
000000
000000
000000
7FFFC0
FFFFC0
3E07C0
1E03C0
1E01C0
1E01C0
1E0880
1E1800
1E3800
1FF800
1FF800
1E3800
1E1800
1E18C0
1E01C0
1E01C0
1E03C0
3E07C0
FFFFC0
FFFFC0
ENDCHAR
STARTCHAR ecaron
ENCODING 283
SWIDTH 661 0
DWIDTH 17 0
BBX 14 22 1 0
BITMAP
7E18
7E3C
1F70
0FC0
0380
0000
0000
0000
03E0
0FF0
1FF8
3C78
787C
783C
7FFC
FFFC
7800
7C08
7E1C
3FF8
1FF0
0FC0
ENDCHAR
STARTCHAR Gbreve
ENCODING 286
SWIDTH 941 0
DWIDTH 24 0
BBX 22 28 1 0
BITMAP
008180
01C780
07FF00
03FE00
00FC00
000000
000000
000000
007F80
01FFE0
07FFE0
0F03E0
1E01E0
3C00E0
3C0060
7C0000
780000
780000
F81FFC
FC1FF8
7C01F0
7C01E0
7E01E0
3E01E0
3F01F0
1FE3E0
0FFFC0
03FF00
ENDCHAR
STARTCHAR gbreve
ENCODING 287
SWIDTH 640 0
DWIDTH 16 0
BBX 15 29 1 -7
BITMAP
0818
3870
7EF0
7FE0
1F80
0000
0000
0000
0780
1FFE
3FFE
79F8
F0F8
F078
F870
FFF0
7FC0
3F80
0300
0F00
1F80
0FE0
07F8
C1F8
E078
F078
FFF0
7FC0
0300
ENDCHAR
STARTCHAR Gdotaccent
ENCODING 288
SWIDTH 941 0
DWIDTH 24 0
BBX 22 28 1 0
BITMAP
001800
007C00
00FC00
00FC00
007800
000000
000000
000000
007F80
01FFE0
07FFE0
0F03E0
1E01E0
3C00E0
3C0060
7C0000
780000
780000
F81FFC
FC1FF8
7C01F0
7C01E0
7E01E0
3E01E0
3F01F0
1FE3E0
0FFFC0
03FF00
ENDCHAR
STARTCHAR gdotaccent
ENCODING 289
SWIDTH 640 0
DWIDTH 16 0
BBX 15 28 1 -7
BITMAP
0780
0F80
0F80
0F80
0600
0000
0000
0780
1FFE
3FFE
79F8
F0F8
F078
F870
FFF0
7FC0
3F80
0300
0F00
1F80
0FE0
07F8
C1F8
E078
F078
FFF0
7FC0
0300
ENDCHAR
STARTCHAR Gcommaaccent
ENCODING 290
SWIDTH 941 0
DWIDTH 24 0
BBX 22 28 1 -8
BITMAP
007F80
01FFE0
07FFE0
0F03E0
1E01E0
3C00E0
3C0060
7C0000
780000
780000
F81FFC
FC1FF8
7C01F0
7C01E0
7E01E0
3E01E0
3F01F0
1FE3E0
0FFFC0
03FF00
000000
000000
007E00
00FE00
003C00
003800
003800
003000
ENDCHAR
STARTCHAR gcommaaccent
ENCODING 291
SWIDTH 640 0
DWIDTH 16 0
BBX 15 30 1 -7
BITMAP
0300
0700
0F00
0F80
1FC0
0000
0000
0000
0000
0780
1FFE
3FFE
79F8
F0F8
F078
F870
FFF0
7FC0
3F80
0300
0F00
1F80
0FE0
07F8
C1F8
E078
F078
FFF0
7FC0
0300
ENDCHAR
STARTCHAR Hbar
ENCODING 294
SWIDTH 985 0
DWIDTH 25 0
BBX 25 20 0 0
BITMAP
3FC1FE00
7FC3FE00
1FC0FE00
0F007800
0F007800
FFFFFF80
FFFFFF80
0F007800
0F007800
0FFFF800
0FFFF800
0F007800
0F007800
0F007800
0F007800
0F007800
0F007800
3F01F800
7FE3FF00
7FC3FE00
ENDCHAR
STARTCHAR hbar
ENCODING 295
SWIDTH 724 0
DWIDTH 18 0
BBX 18 22 0 0
BITMAP
0E0000
1E0000
1E0000
1E0000
FFF000
FFF000
1E0000
1E0000
1E3800
1E7E00
1FFE00
1FFE00
1E1F00
1E1F00
1E1F00
1E1F00
1E1F00
1E1F00
1E1F00
3E1F00
7F9FC0
7F9F80
ENDCHAR
STARTCHAR Imacron
ENCODING 298
SWIDTH 465 0
DWIDTH 12 0
BBX 13 26 -1 0
BITMAP
FFF8
FFF8
0000
0000
0000
0000
1FE0
3FE0
0FE0
0780
0780
0780
0780
0780
0780
0780
0780
0780
0780
0780
0780
0780
0780
1F80
3FF0
3FE0
ENDCHAR
STARTCHAR imacron
ENCODING 299
SWIDTH 408 0
DWIDTH 10 0
BBX 12 20 -1 0
BITMAP
FFF0
FFF0
0000
0000
0000
0000
0380
1F80
3F80
3F80
0F80
0F80
0F80
0F80
0F80
0F80
0F80
1F80
3FE0
3FC0
ENDCHAR
STARTCHAR Iogonek
ENCODING 302
SWIDTH 465 0
DWIDTH 12 0
BBX 10 26 1 -6
BITMAP
7F80
FF80
3F80
1E00
1E00
1E00
1E00
1E00
1E00
1E00
1E00
1E00
1E00
1E00
1E00
1E00
1E00
7E00
FFC0
FF80
0380
0700
0F00
0F80
0F80
0F00
ENDCHAR
STARTCHAR iogonek
ENCODING 303
SWIDTH 408 0
DWIDTH 10 0
BBX 9 27 1 -6
BITMAP
3C00
7E00
7E00
3C00
1000
0000
0000
0E00
7E00
FE00
FE00
3E00
3E00
3E00
3E00
3E00
3E00
3E00
7E00
FF80
FF00
0700
0E00
1E00
3F00
1F00
1E00
ENDCHAR
STARTCHAR Idotaccent
ENCODING 304
SWIDTH 465 0
DWIDTH 12 0
BBX 10 28 1 0
BITMAP
0C00
1E00
3F00
3E00
3E00
0000
0000
0000
7F80
FF80
3F80
1E00
1E00
1E00
1E00
1E00
1E00
1E00
1E00
1E00
1E00
1E00
1E00
1E00
1E00
7E00
FFC0
FF80
ENDCHAR
STARTCHAR dotlessi
ENCODING 305
SWIDTH 408 0
DWIDTH 10 0
BBX 9 14 1 0
BITMAP
0E00
7E00
FE00
FE00
3E00
3E00
3E00
3E00
3E00
3E00
3E00
7E00
FF80
FF00
ENDCHAR
STARTCHAR IJ
ENCODING 306
SWIDTH 902 0
DWIDTH 23 0
BBX 21 26 1 -6
BITMAP
7F9FF8
FF9FF8
3F87F0
1E03E0
1E03C0
1E03C0
1E03C0
1E03C0
1E03C0
1E03C0
1E03C0
1E03C0
1E03C0
1E03C0
1E03C0
1E03C0
1E03C0
7E03C0
FFC3C0
FF83C0
0003E0
0003C0
000780
000700
000E00
000C00
ENDCHAR
STARTCHAR ij
ENCODING 307
SWIDTH 794 0
DWIDTH 20 0
BBX 17 27 1 -6
BITMAP
3C0F00
7E1F80
7E1F80
3C1F00
100E00
000000
000000
0E0700
7E3F00
FE3F00
FE1F00
3E0F00
3E0F00
3E0F00
3E0F00
3E0F00
3E0F00
3E0F00
7E0F00
FF8F00
FF0F00
000F80
000F00
000E00
001C00
003800
003000
ENDCHAR
STARTCHAR Kcommaaccent
ENCODING 310
SWIDTH 904 0
DWIDTH 23 0
BBX 21 28 1 -8
BITMAP
7F87F8
FF87F8
3F87F0
1E01E0
1E03C0
1E0700
1E0E00
1E1C00
1E3800
1E7800
1EFC00
1E7C00
1E3E00
1E3F00
1E1F80
1E0F80
1E07C0
7E07E0
FFC3F8
FF81F8
000000
000000
00FC00
00FC00
007C00
003800
007000
006000
ENDCHAR
STARTCHAR kcommaaccent
ENCODING 311
SWIDTH 733 0
DWIDTH 18 0
BBX 17 30 1 -8
BITMAP
0C0000
7C0000
FC0000
FC0000
7C0000
3C0000
3C0000
3C0000
3C7F00
3C7F00
3C7F00
3C1C00
3C1800
3C7000
3CE000
3DF000
3CF800
3CF800
3C7C00
7C3E00
FF3F80
FF1F80
000000
000000
03F000
07F000
01E000
01E000
01C000
018000
ENDCHAR
STARTCHAR Lacute
ENCODING 313
SWIDTH 797 0
DWIDTH 20 0
BBX 18 28 1 0
BITMAP
07E000
07C000
0F8000
0E0000
180000
000000
000000
000000
7F8000
FF8000
3F0000
1E0000
1E0000
1E0000
1E0000
1E0000
1E0000
1E0000
1E0000
1E0000
1E0000
1E00C0
1E01C0
1E03C0
1E03C0
3E07C0
FFFFC0
FFFFC0
ENDCHAR
STARTCHAR lacute
ENCODING 314
SWIDTH 388 0
DWIDTH 10 0
BBX 9 29 1 0
BITMAP
0F80
1F80
1F00
3C00
3000
0000
0000
0C00
7C00
FC00
FC00
7C00
3C00
3C00
3C00
3C00
3C00
3C00
3C00
3C00
3C00
3C00
3C00
3C00
3C00
3C00
7C00
FF00
FF00
ENDCHAR
STARTCHAR Lcommaaccent
ENCODING 315
SWIDTH 797 0
DWIDTH 20 0
BBX 18 28 1 -8
BITMAP
7F8000
FF8000
3F0000
1E0000
1E0000
1E0000
1E0000
1E0000
1E0000
1E0000
1E0000
1E0000
1E0000
1E00C0
1E01C0
1E03C0
1E03C0
3E07C0
FFFFC0
FFFFC0
000000
000000
01F800
03F800
01F000
00E000
00C000
01C000
ENDCHAR
STARTCHAR lcommaaccent
ENCODING 316
SWIDTH 388 0
DWIDTH 10 0
BBX 8 30 1 -8
BITMAP
0C
7C
FC
FC
7C
3C
3C
3C
3C
3C
3C
3C
3C
3C
3C
3C
3C
3C
3C
7C
FF
FF
00
00
7E
7E
3C
1C
38
30
ENDCHAR
STARTCHAR Lcaron
ENCODING 317
SWIDTH 797 0
DWIDTH 20 0
BBX 18 20 1 0
BITMAP
7F8300
FF8F00
3F1F00
1E0F00
1E0700
1E0F00
1E0E00
1E0400
1E0000
1E0000
1E0000
1E0000
1E0000
1E00C0
1E01C0
1E03C0
1E03C0
3E07C0
FFFFC0
FFFFC0
ENDCHAR
STARTCHAR lcaron
ENCODING 318
SWIDTH 388 0
DWIDTH 10 0
BBX 13 22 1 0
BITMAP
0C38
7CF8
FCF8
FCF8
7C78
3C70
3CE0
3C00
3C00
3C00
3C00
3C00
3C00
3C00
3C00
3C00
3C00
3C00
3C00
7C00
FF00
FF00
ENDCHAR
STARTCHAR Ldot
ENCODING 319
SWIDTH 797 0
DWIDTH 20 0
BBX 18 20 1 0
BITMAP
7F8000
FF8000
3F0000
1E0000
1E0000
1E0F80
1E0F80
1E1F80
1E0F00
1E0600
1E0000
1E0000
1E0000
1E00C0
1E01C0
1E03C0
1E03C0
3E07C0
FFFFC0
FFFFC0
ENDCHAR
STARTCHAR ldot
ENCODING 320
SWIDTH 551 0
DWIDTH 14 0
BBX 14 22 1 0
BITMAP
0C00
7C00
FC00
FC00
7C00
3C00
3C00
3C00
3C00
3C38
3CF8
3CFC
3CF8
3C70
3C00
3C00
3C00
3C00
3C00
7C00
FF00
FF00
ENDCHAR
STARTCHAR Lslash
ENCODING 321
SWIDTH 784 0
DWIDTH 20 0
BBX 19 20 0 0
BITMAP
3FC000
7FC000
1FC000
0F0000
0F0000
0F0400
0F0C00
0F3000
0F6000
0FC000
0F0000
0F0000
1F0000
6F0060
CF00E0
8F01E0
0F01E0
1F03E0
7FFFE0
7FFFE0
ENDCHAR
STARTCHAR lslash
ENCODING 322
SWIDTH 384 0
DWIDTH 10 0
BBX 11 22 -1 0
BITMAP
0300
1F00
3F00
3F00
1F00
0F00
0F20
0F60
0FC0
0F80
0F00
1F00
3F00
6F00
CF00
8F00
0F00
0F00
0F00
1F00
3FC0
3FC0
ENDCHAR
STARTCHAR Nacute
ENCODING 323
SWIDTH 899 0
DWIDTH 22 0
BBX 21 28 1 0
BITMAP
003F00
003F00
007C00
007000
00E000
000000
000000
000000
7803F8
FC07F8
7E03F0
1F00E0
1F80E0
1FC0E0
1FC0E0
1FE0E0
1BF0E0
19F8E0
18FCE0
187EE0
183FE0
181FE0
180FE0
180FE0
1807E0
7C03E0
FF01E0
FF00E0
ENDCHAR
STARTCHAR nacute
ENCODING 324
SWIDTH 744 0
DWIDTH 19 0
BBX 17 22 1 0
BITMAP
00F800
00FC00
01F000
01C000
038000
000000
000000
000000
087000
3CFC00
FDFE00
FFFE00
7E1E00
3E1E00
3E1E00
3E1E00
3E1E00
3E1E00
3E1E00
7E1E00
FF9F80
FF1F80
ENDCHAR
STARTCHAR Ncommaaccent
ENCODING 325
SWIDTH 899 0
DWIDTH 22 0
BBX 21 28 1 -8
BITMAP
7803F8
FC07F8
7E03F0
1F00E0
1F80E0
1FC0E0
1FC0E0
1FE0E0
1BF0E0
19F8E0
18FCE0
187EE0
183FE0
181FE0
180FE0
180FE0
1807E0
7C03E0
FF01E0
FF00E0
000000
000000
00FC00
01FC00
00F800
007000
006000
00E000
ENDCHAR
STARTCHAR ncommaaccent
ENCODING 326
SWIDTH 744 0
DWIDTH 19 0
BBX 17 22 1 -8
BITMAP
087000
3CFC00
FDFE00
FFFE00
7E1E00
3E1E00
3E1E00
3E1E00
3E1E00
3E1E00
3E1E00
7E1E00
FF9F80
FF1F80
000000
000000
03F000
03F000
01F000
00E000
00C000
018000
ENDCHAR
STARTCHAR Ncaron
ENCODING 327
SWIDTH 899 0
DWIDTH 22 0
BBX 21 28 1 0
BITMAP
0FC300
0FC700
03FC00
00F800
006000
000000
000000
000000
7803F8
FC07F8
7E03F0
1F00E0
1F80E0
1FC0E0
1FC0E0
1FE0E0
1BF0E0
19F8E0
18FCE0
187EE0
183FE0
181FE0
180FE0
180FE0
1807E0
7C03E0
FF01E0
FF00E0
ENDCHAR
STARTCHAR ncaron
ENCODING 328
SWIDTH 744 0
DWIDTH 19 0
BBX 17 22 1 0
BITMAP
3E0C00
3F1C00
0FF000
07E000
018000
000000
000000
000000
087000
3CFC00
FDFE00
FFFE00
7E1E00
3E1E00
3E1E00
3E1E00
3E1E00
3E1E00
3E1E00
7E1E00
FF9F80
FF1F80
ENDCHAR
STARTCHAR Eng
ENCODING 330
SWIDTH 899 0
DWIDTH 22 0
BBX 21 26 1 -6
BITMAP
7803F8
FC07F8
7E03F0
1F00E0
1F80E0
1FC0E0
1FC0E0
1FE0E0
1BF0E0
19F8E0
18FCE0
187EE0
183FE0
181FE0
180FE0
180FE0
1807E0
7C03E0
FF01E0
FF01E0
0001E0
0003C0
000380
000700
000E00
000C00
ENDCHAR
STARTCHAR eng
ENCODING 331
SWIDTH 740 0
DWIDTH 19 0
BBX 15 20 1 -6
BITMAP
0870
3CFC
FDFE
FFFE
7E1E
3E1E
3E1E
3E1E
3E1E
3E1E
3E1E
7E1E
FF9E
FF1E
001E
001C
003C
0038
0070
00E0
ENDCHAR
STARTCHAR Omacron
ENCODING 332
SWIDTH 960 0
DWIDTH 24 0
BBX 22 26 1 0
BITMAP
07FF80
07FF80
000000
000000
000000
000000
007F00
03FFC0
07FFE0
0F07F0
1E01F0
3C01F8
7C00F8
7C00F8
7800FC
78007C
F8007C
FC0078
7C00F8
7C00F8
7C00F0
3E01E0
3F03E0
1FEFC0
0FFF00
03FC00
ENDCHAR
STARTCHAR omacron
ENCODING 333
SWIDTH 696 0
DWIDTH 17 0
BBX 15 20 1 0
BITMAP
3FFC
3FFC
0000
0000
0000
0000
01C0
07F0
1FF8
3CFC
787E
783E
783E
F83E
F83E
7C3C
7C3C
3FF8
3FF0
0FC0
ENDCHAR
STARTCHAR Ohungarumlaut
ENCODING 336
SWIDTH 960 0
DWIDTH 24 0
BBX 22 28 1 0
BITMAP
00E0E0
01E1E0
03C3C0
038380
020200
000000
000000
000000
007F00
03FFC0
07FFE0
0F07F0
1E01F0
3C01F8
7C00F8
7C00F8
7800FC
78007C
F8007C
FC0078
7C00F8
7C00F8
7C00F0
3E01E0
3F03E0
1FEFC0
0FFF00
03FC00
ENDCHAR
STARTCHAR ohungarumlaut
ENCODING 337
SWIDTH 696 0
DWIDTH 17 0
BBX 17 22 1 0
BITMAP
0F9F00
0F9F80
1F1E00
1C3C00
383000
000000
000000
000000
01C000
07F000
1FF800
3CFC00
787E00
783E00
783E00
F83E00
F83E00
7C3C00
7C3C00
3FF800
3FF000
0FC000
ENDCHAR
STARTCHAR OE
ENCODING 338
SWIDTH 1240 0
DWIDTH 31 0
BBX 28 20 1 0
BITMAP
007FFFF0
01FFFFF0
07DFC0F0
0F03C0F0
1E03C070
3C03C030
7C03C320
7C03C300
7803C700
7803FF00
F803FF00
F803C700
7C03C700
7C03C310
7C03C030
3E03C070
3F03C0F0
1F83C0F0
0FFFFFF0
03FFFFF0
ENDCHAR
STARTCHAR oe
ENCODING 339
SWIDTH 1003 0
DWIDTH 25 0
BBX 23 14 1 0
BITMAP
01C0E0
0FF3F8
1FFFF8
3CFE7C
787C3C
787C3C
783FFE
F83FFE
F83C00
787E00
7C7E0C
7FFFFC
3FEFF8
0F87E0
ENDCHAR
STARTCHAR Racute
ENCODING 340
SWIDTH 847 0
DWIDTH 21 0
BBX 20 28 1 0
BITMAP
007E00
007C00
00F800
01E000
018000
000000
000000
000000
7FFC00
FFFF00
3F3F80
1E0F80
1E07C0
1E07C0
1E07C0
1E0780
1E0F00
1E7E00
1EF800
1E7E00
1E3E00
1E3F00
1E1F00
1E0F80
1E0F80
3E07C0
FFC7F0
FF83F0
ENDCHAR
STARTCHAR racute
ENCODING 341
SWIDTH 569 0
DWIDTH 14 0
BBX 13 22 1 0
BITMAP
01F0
03F0
03E0
0780
0600
0000
0000
0000
08E0
3DF8
FDF8
FFF8
7E70
3E60
3E00
3E00
3E00
3E00
3E00
7E00
FFC0
FFC0
ENDCHAR
STARTCHAR Rcommaaccent
ENCODING 342
SWIDTH 847 0
DWIDTH 21 0
BBX 20 28 1 -8
BITMAP
7FFC00
FFFF00
3F3F80
1E0F80
1E07C0
1E07C0
1E07C0
1E0780
1E0F00
1E7E00
1EF800
1E7E00
1E3E00
1E3F00
1E1F00
1E0F80
1E0F80
3E07C0
FFC7F0
FF83F0
000000
000000
00FC00
01FC00
007800
007000
007000
006000
ENDCHAR
STARTCHAR rcommaaccent
ENCODING 343
SWIDTH 569 0
DWIDTH 14 0
BBX 13 22 1 -8
BITMAP
08E0
3DF8
FDF8
FFF8
7E70
3E60
3E00
3E00
3E00
3E00
3E00
7E00
FFC0
FFC0
0000
0000
3F00
7F00
1E00
1C00
1C00
1800
ENDCHAR
STARTCHAR Rcaron
ENCODING 344
SWIDTH 847 0
DWIDTH 21 0
BBX 20 28 1 0
BITMAP
1F8600
1F9E00
07F800
01F000
00C000
000000
000000
000000
7FFC00
FFFF00
3F3F80
1E0F80
1E07C0
1E07C0
1E07C0
1E0780
1E0F00
1E7E00
1EF800
1E7E00
1E3E00
1E3F00
1E1F00
1E0F80
1E0F80
3E07C0
FFC7F0
FF83F0
ENDCHAR
STARTCHAR rcaron
ENCODING 345
SWIDTH 569 0
DWIDTH 14 0
BBX 13 22 1 0
BITMAP
7C10
FE78
3EE0
0FC0
0700
0000
0000
0000
08E0
3DF8
FDF8
FFF8
7E70
3E60
3E00
3E00
3E00
3E00
3E00
7E00
FFC0
FFC0
ENDCHAR
STARTCHAR Sacute
ENCODING 346
SWIDTH 700 0
DWIDTH 18 0
BBX 15 28 1 0
BITMAP
01F8
01F8
03E0
0380
0300
0000
0000
0000
07F8
1FFE
3C7E
783E
781E
F80E
FC0E
7F00
7F80
3FE0
0FF8
03FC
01FE
007E
E03E
F01E
F81E
FC3C
FFF8
7FE0
ENDCHAR
STARTCHAR sacute
ENCODING 347
SWIDTH 559 0
DWIDTH 14 0
BBX 11 22 2 0
BITMAP
07E0
07E0
0F80
0F00
1C00
0000
0000
0000
1F80
7FC0
F1C0
F0C0
F840
FE00
7F80
3FC0
1FE0
87E0
C3E0
E3C0
FF80
FE00
ENDCHAR
STARTCHAR Scedilla
ENCODING 350
SWIDTH 700 0
DWIDTH 18 0
BBX 15 27 1 -7
BITMAP
07F8
1FFE
3C7E
783E
781E
F80E
FC0E
7F00
7F80
3FE0
0FF8
03FC
01FE
007E
E03E
F01E
F81E
FC3C
FFF8
7FE0
01C0
0380
01C0
01E0
01E0
07C0
0400
ENDCHAR
STARTCHAR scedilla
ENCODING 351
SWIDTH 559 0
DWIDTH 14 0
BBX 11 20 2 -6
BITMAP
1F80
7FC0
F1C0
F0C0
F840
FE00
7F80
3FC0
1FE0
87E0
C3E0
E3C0
FF80
7F00
0E00
1E00
0F00
0700
0F00
1E00
ENDCHAR
STARTCHAR Scaron
ENCODING 352
SWIDTH 700 0
DWIDTH 18 0
BBX 15 28 1 0
BITMAP
7E18
3F38
1FF0
07C0
0180
0000
0000
0000
07F8
1FFE
3C7E
783E
781E
F80E
FC0E
7F00
7F80
3FE0
0FF8
03FC
01FE
007E
E03E
F01E
F81E
FC3C
FFF8
7FE0
ENDCHAR
STARTCHAR scaron
ENCODING 353
SWIDTH 559 0
DWIDTH 14 0
BBX 12 22 1 0
BITMAP
FC30
FC70
3FE0
1F80
0700
0000
0000
0000
0FC0
3FE0
78E0
7860
7C20
7F00
3FC0
1FE0
0FF0
C3F0
E1F0
F1E0
FFC0
7F00
ENDCHAR
STARTCHAR uni0162
ENCODING 354
SWIDTH 845 0
DWIDTH 21 0
BBX 19 27 1 -7
BITMAP
FFFFE0
FFFFE0
F9F3E0
F1F1E0
E1F0E0
E1F0E0
C1F060
01F000
01F000
01F000
01F000
01F000
01F000
01F000
01F000
01F000
01F000
03F000
07FE00
07FC00
006000
00C000
00F000
007000
00F000
01F000
010000
ENDCHAR
STARTCHAR uni0163
ENCODING 355
SWIDTH 493 0
DWIDTH 12 0
BBX 12 24 0 -6
BITMAP
0600
0E00
1E00
3E00
7E00
7FF0
FFF0
1E00
1E00
1E00
1E00
1E00
1E00
1E00
1E20
1FF0
0FE0
07C0
0380
0780
03C0
03C0
03C0
0780
ENDCHAR
STARTCHAR Tcaron
ENCODING 356
SWIDTH 845 0
DWIDTH 21 0
BBX 19 28 1 0
BITMAP
0F8600
0FCE00
07FC00
01F000
006000
000000
000000
000000
FFFFE0
FFFFE0
F9F3E0
F1F1E0
E1F0E0
E1F0E0
C1F060
01F000
01F000
01F000
01F000
01F000
01F000
01F000
01F000
01F000
01F000
03F000
07FE00
07FC00
ENDCHAR
STARTCHAR tcaron
ENCODING 357
SWIDTH 493 0
DWIDTH 12 0
BBX 14 22 0 0
BITMAP
001C
007C
007C
007C
063C
0E38
1E70
3E20
7E00
7FF0
FFF0
1E00
1E00
1E00
1E00
1E00
1E00
1E00
1E20
1FF0
0FE0
07C0
ENDCHAR
STARTCHAR Tbar
ENCODING 358
SWIDTH 845 0
DWIDTH 21 0
BBX 19 20 1 0
BITMAP
FFFFE0
FFFFE0
F9F3E0
F1F1E0
E1F0E0
E1F0E0
C1F060
01F000
01F000
1FFF80
1FFF80
01F000
01F000
01F000
01F000
01F000
01F000
03F000
07FE00
07FC00
ENDCHAR
STARTCHAR tbar
ENCODING 359
SWIDTH 493 0
DWIDTH 12 0
BBX 12 18 0 0
BITMAP
0600
0E00
1E00
3E00
7E00
7FF0
FFF0
1E00
1E00
1E00
1E00
1E00
1E00
1E00
1E20
1FF0
0FE0
07C0
ENDCHAR
STARTCHAR Umacron
ENCODING 362
SWIDTH 898 0
DWIDTH 22 0
BBX 22 26 0 0
BITMAP
07FFC0
07FFC0
000000
000000
000000
000000
7FC1FC
FFC1FC
3F80F8
1F0070
1F0070
1F0070
1F0070
1F0070
1F0070
1F0070
1F0070
1F0070
1F0070
1F0070
1F0060
1F0060
0F80E0
07F3C0
07FF80
01FE00
ENDCHAR
STARTCHAR umacron
ENCODING 363
SWIDTH 718 0
DWIDTH 18 0
BBX 17 20 0 0
BITMAP
1FFE00
1FFE00
000000
000000
000000
000000
060600
3E1E00
FE7E00
FE7E00
3E3E00
1E1E00
1E1E00
1E1E00
1E1E00
1E1E00
1F3E00
1FFE00
1FDF80
0F9F80
ENDCHAR
STARTCHAR Uring
ENCODING 366
SWIDTH 898 0
DWIDTH 22 0
BBX 22 28 0 0
BITMAP
007E00
00CF00
01C700
01E600
00FC00
002000
000000
000000
7FC1FC
FFC1FC
3F80F8
1F0070
1F0070
1F0070
1F0070
1F0070
1F0070
1F0070
1F0070
1F0070
1F0070
1F0070
1F0060
1F0060
0F80E0
07F3C0
07FF80
01FE00
ENDCHAR
STARTCHAR uring
ENCODING 367
SWIDTH 718 0
DWIDTH 18 0
BBX 17 22 0 0
BITMAP
01F000
033800
071800
071800
07F000
01C000
000000
000000
060600
3E1E00
FE7E00
FE7E00
3E3E00
1E1E00
1E1E00
1E1E00
1E1E00
1E1E00
1F3E00
1FFE00
1FDF80
0F9F80
ENDCHAR
STARTCHAR Uhungarumlaut
ENCODING 368
SWIDTH 898 0
DWIDTH 22 0
BBX 22 28 0 0
BITMAP
00F0F0
01E1E0
03E1E0
0181C0
010100
000000
000000
000000
7FC1FC
FFC1FC
3F80F8
1F0070
1F0070
1F0070
1F0070
1F0070
1F0070
1F0070
1F0070
1F0070
1F0070
1F0070
1F0060
1F0060
0F80E0
07F3C0
07FF80
01FE00
ENDCHAR
STARTCHAR uhungarumlaut
ENCODING 369
SWIDTH 718 0
DWIDTH 18 0
BBX 18 22 0 0
BITMAP
07C7C0
07EFC0
078F80
0F0E00
0C1C00
000000
000000
000000
060600
3E1E00
FE7E00
FE7E00
3E3E00
1E1E00
1E1E00
1E1E00
1E1E00
1E1E00
1F3E00
1FFE00
1FDF80
0F9F80
ENDCHAR
STARTCHAR Uogonek
ENCODING 370
SWIDTH 898 0
DWIDTH 22 0
BBX 22 26 0 -6
BITMAP
7FC1FC
FFC1FC
3F80F8
1F0070
1F0070
1F0070
1F0070
1F0070
1F0070
1F0070
1F0070
1F0070
1F0070
1F0070
1F0060
1F0060
0F80E0
07F3C0
07FF80
01FF00
000600
000E00
001C00
001F00
001F00
001F00
ENDCHAR
STARTCHAR uogonek
ENCODING 371
SWIDTH 718 0
DWIDTH 18 0
BBX 17 21 0 -7
BITMAP
060600
3E1E00
FE7E00
FE7E00
3E3E00
1E1E00
1E1E00
1E1E00
1E1E00
1E1E00
1F3E00
1FFE00
1FDF80
0F9F80
000300
000700
000E00
001F80
001F80
000F00
000200
ENDCHAR
STARTCHAR Wcircumflex
ENCODING 372
SWIDTH 1281 0
DWIDTH 32 0
BBX 32 28 0 0
BITMAP
0001C000
0003F000
000FF800
001C7E00
00187E00
00000000
00000000
00000000
7F8FF8FF
FF9FF9FF
7F0FF0FE
3E03C03C
1F03E018
1F03E038
0F01E038
0F81F030
0F83F070
0783F060
07C3F860
03C7F8E0
03E678C0
03E67CC0
01E63DC0
01FC3D80
01FC3F80
00FC1F80
00FC1F00
00701E00
ENDCHAR
STARTCHAR wcircumflex
ENCODING 373
SWIDTH 955 0
DWIDTH 24 0
BBX 23 22 0 0
BITMAP
001800
007C00
00FF00
03CFC0
030FC0
000000
000000
000000
0C0C00
3C3CFE
FCFC7E
FCFC3C
3E3E0C
1E1E1C
1E1F18
1F1F18
0F3FB0
0FBFB0
07E7E0
07E7E0
07C3C0
0383C0
ENDCHAR
STARTCHAR Ycircumflex
ENCODING 374
SWIDTH 847 0
DWIDTH 21 0
BBX 21 28 0 0
BITMAP
007000
00FC00
03FE00
071F80
061F80
000000
000000
000000
FF87F8
FF87F8
7F07F0
3E01E0
1F01C0
1F0180
0F8380
07C700
07C600
03EE00
01FC00
01F800
00F800
00F800
00F800
00F800
00F800
01F800
03FF00
03FE00
ENDCHAR
STARTCHAR ycircumflex
ENCODING 375
SWIDTH 651 0
DWIDTH 16 0
BBX 16 28 0 -6
BITMAP
0180
07E0
0FF0
3CFC
307C
0000
0000
0000
0C00
3C7F
FC7E
FC1E
3E0C
1E0C
1E18
1F18
0F30
0FB0
07E0
07E0
07C0
0780
0780
0F00
0E00
1C00
3800
3000
ENDCHAR
STARTCHAR Ydieresis
ENCODING 376
SWIDTH 847 0
DWIDTH 21 0
BBX 21 28 0 0
BITMAP
030300
0F8780
0F8FC0
0F8780
0F0700
000000
000000
000000
FF87F8
FF87F8
7F07F0
3E01E0
1F01C0
1F0180
0F8380
07C700
07C600
03EE00
01FC00
01F800
00F800
00F800
00F800
00F800
00F800
01F800
03FF00
03FE00
ENDCHAR
STARTCHAR Zacute
ENCODING 377
SWIDTH 790 0
DWIDTH 20 0
BBX 18 28 1 0
BITMAP
007C00
00FC00
00F800
01E000
018000
000000
000000
000000
7FFFC0
7FFFC0
780F80
781F80
703F00
603E00
607C00
00FC00
01F800
01F000
03E000
07C000
0FC000
0F8180
1F0180
3E0380
7E0780
7C0780
FFFF80
FFFF80
ENDCHAR
STARTCHAR zacute
ENCODING 378
SWIDTH 645 0
DWIDTH 16 0
BBX 13 22 2 0
BITMAP
03F0
03F0
07C0
0780
0E00
0000
0000
0000
C000
FFF8
FFF0
FFE0
FFC0
C180
8300
0600
1C30
3830
7FF0
FFF0
FFF0
FFF0
ENDCHAR
STARTCHAR Zdotaccent
ENCODING 379
SWIDTH 790 0
DWIDTH 20 0
BBX 18 28 1 0
BITMAP
004000
01E000
03F000
03F000
03E000
000000
000000
000000
7FFFC0
7FFFC0
780F80
781F80
703F00
603E00
607C00
00FC00
01F800
01F000
03E000
07C000
0FC000
0F8180
1F0180
3E0380
7E0780
7C0780
FFFF80
FFFF80
ENDCHAR
STARTCHAR zdotaccent
ENCODING 380
SWIDTH 645 0
DWIDTH 16 0
BBX 13 21 2 0
BITMAP
0F80
0F80
1F80
0F00
0400
0000
0000
C000
FFF8
FFF0
FFE0
FFC0
C180
8300
0600
1C30
3830
7FF0
FFF0
FFF0
FFF0
ENDCHAR
STARTCHAR Zcaron
ENCODING 381
SWIDTH 790 0
DWIDTH 20 0
BBX 18 28 1 0
BITMAP
1F0600
1F9C00
07F800
03E000
00C000
000000
000000
000000
7FFFC0
7FFFC0
780F80
781F80
703F00
603E00
607C00
00FC00
01F800
01F000
03E000
07C000
0FC000
0F8180
1F0180
3E0380
7E0780
7C0780
FFFF80
FFFF80
ENDCHAR
STARTCHAR zcaron
ENCODING 382
SWIDTH 645 0
DWIDTH 16 0
BBX 13 22 2 0
BITMAP
FC30
FC70
3FE0
1F80
0700
0000
0000
0000
C000
FFF8
FFF0
FFE0
FFC0
C180
8300
0600
1C30
3830
7FF0
FFF0
FFF0
FFF0
ENDCHAR
STARTCHAR longs
ENCODING 383
SWIDTH 488 0
DWIDTH 12 0
BBX 13 22 1 0
BITMAP
01F8
07F8
0FF8
0E38
1E18
1E00
3E00
3E00
3E00
FE00
FE00
3E00
3E00
3E00
3E00
3E00
3E00
3E00
3E00
7E00
FFC0
FFC0
ENDCHAR
STARTCHAR florin
ENCODING 402
SWIDTH 644 0
DWIDTH 16 0
BBX 15 26 0 -6
BITMAP
007E
01FE
03FE
078E
0706
0F00
0F00
0F00
0F00
0F00
7FFC
FFFC
0F00
0F00
0F00
0F00
0F00
0F00
0F00
0F00
0F00
0F00
1E00
1C00
3800
3000
ENDCHAR
STARTCHAR Scommaaccent
ENCODING 536
SWIDTH 700 0
DWIDTH 18 0
BBX 15 28 1 -8
BITMAP
07F8
1FFE
3C7E
783E
781E
F80E
FC0E
7F00
7F80
3FE0
0FF8
03FC
01FE
007E
E03E
F01E
F81E
FC3C
FFF8
7FE0
0000
0000
07E0
07E0
03C0
03C0
0380
0300
ENDCHAR
STARTCHAR scommaaccent
ENCODING 537
SWIDTH 559 0
DWIDTH 14 0
BBX 11 22 2 -8
BITMAP
1F80
7FC0
F1C0
F0C0
F840
FE00
7F80
3FC0
1FE0
87E0
C3E0
E3C0
FF80
FE00
0000
0000
3F80
3F00
1F00
0E00
0C00
1800
ENDCHAR
STARTCHAR uni021A
ENCODING 538
SWIDTH 845 0
DWIDTH 21 0
BBX 19 28 1 -8
BITMAP
FFFFE0
FFFFE0
F9F3E0
F1F1E0
E1F0E0
E1F0E0
C1F060
01F000
01F000
01F000
01F000
01F000
01F000
01F000
01F000
01F000
01F000
03F000
07FE00
07FC00
000000
000000
01F800
03F800
01F000
00E000
00C000
01C000
ENDCHAR
STARTCHAR uni021B
ENCODING 539
SWIDTH 493 0
DWIDTH 12 0
BBX 12 26 0 -8
BITMAP
0600
0E00
1E00
3E00
7E00
7FF0
FFF0
1E00
1E00
1E00
1E00
1E00
1E00
1E00
1E20
1FF0
0FE0
07C0
0000
0000
0FC0
0FC0
07C0
0380
0700
0600
ENDCHAR
STARTCHAR dotlessj
ENCODING 567
SWIDTH 386 0
DWIDTH 10 0
BBX 6 20 1 -6
BITMAP
1C
FC
FC
FC
3C
3C
3C
3C
3C
3C
3C
3C
3C
3C
3C
3C
78
70
E0
C0
ENDCHAR
STARTCHAR uni02BC
ENCODING 700
SWIDTH 730 0
DWIDTH 18 0
BBX 7 8 4 12
BITMAP
1C
3E
3E
7C
7C
F8
F8
30
ENDCHAR
STARTCHAR circumflex
ENCODING 710
SWIDTH 568 0
DWIDTH 14 0
BBX 12 5 1 17
BITMAP
0600
1F80
3FC0
73F0
C1F0
ENDCHAR
STARTCHAR caron
ENCODING 711
SWIDTH 568 0
DWIDTH 14 0
BBX 12 5 1 17
BITMAP
F830
FC70
3FC0
1F80
0600
ENDCHAR
STARTCHAR breve
ENCODING 728
SWIDTH 489 0
DWIDTH 12 0
BBX 11 5 1 17
BITMAP
2020
71E0
FBC0
FF80
7F00
ENDCHAR
STARTCHAR dotaccent
ENCODING 729
SWIDTH 330 0
DWIDTH 8 0
BBX 6 5 1 16
BITMAP
78
FC
FC
78
20
ENDCHAR
STARTCHAR ring
ENCODING 730
SWIDTH 411 0
DWIDTH 10 0
BBX 8 6 1 16
BITMAP
3E
6F
E3
E3
FE
38
ENDCHAR
STARTCHAR ogonek
ENCODING 731
SWIDTH 403 0
DWIDTH 10 0
BBX 6 8 2 -7
BITMAP
08
18
38
70
FC
FC
78
10
ENDCHAR
STARTCHAR tilde
ENCODING 732
SWIDTH 545 0
DWIDTH 14 0
BBX 12 5 1 17
BITMAP
0C00
3F70
7FE0
EF80
0700
ENDCHAR
STARTCHAR hungarumlaut
ENCODING 733
SWIDTH 590 0
DWIDTH 15 0
BBX 14 5 1 17
BITMAP
7C7C
7EFC
78F8
F0E0
C1C0
ENDCHAR
STARTCHAR uni0326
ENCODING 806
SWIDTH 0 0
DWIDTH 0 0
BBX 7 6 -9 -8
BITMAP
7E
FE
3C
38
38
30
ENDCHAR
STARTCHAR Delta
ENCODING 916
SWIDTH 872 0
DWIDTH 22 0
BBX 20 20 1 0
BITMAP
003000
01F000
01F800
03F800
037C00
037C00
073E00
063E00
0E1E00
0C1F00
0C1F00
180F80
180F80
380780
3007C0
7007C0
6003E0
6003E0
FFFFE0
FFFFF0
ENDCHAR
STARTCHAR Omega
ENCODING 937
SWIDTH 967 0
DWIDTH 24 0
BBX 22 20 1 0
BITMAP
00FF00
03FFC0
0FFFF0
1F03F8
3C01F8
7C00FC
78007C
F8007C
FC0078
7C00F8
7E00F0
3F03E0
1FCFC0
0FCF00
23CF08
63CF18
73CF38
7BCF78
7FCFF8
7FCFF8
ENDCHAR
STARTCHAR mu
ENCODING 956
SWIDTH 702 0
DWIDTH 18 0
BBX 16 20 1 -6
BITMAP
1C0C
7C7C
FC7C
7C7C
7C3C
7C3C
7C3C
7C3C
7C3C
7C3C
7E7C
7FFE
7FBF
7F38
7C00
7C00
7C00
7C00
7E00
7800
ENDCHAR
STARTCHAR pi
ENCODING 960
SWIDTH 786 0
DWIDTH 20 0
BBX 19 13 0 0
BITMAP
1FFFE0
7FFFE0
FFFFE0
FFFFE0
478F00
078F00
078F00
078F00
078F00
078F00
078F00
0F8F80
0F8E00
ENDCHAR
STARTCHAR uni0900
ENCODING 2304
SWIDTH 0 0
DWIDTH 0 0
BBX 18 11 -19 23
BITMAP
018000
1FF800
3FFE00
7F0F00
FC0780
F807C0
39C7C0
01E180
01E080
01E000
006000
ENDCHAR
STARTCHAR candraBindudeva
ENCODING 2305
SWIDTH 0 0
DWIDTH 0 0
BBX 17 11 -18 23
BITMAP
038000
03E000
03E000
63E000
F8E700
F80780
F80F80
783F80
3FFF00
0FFE00
01F000
ENDCHAR
STARTCHAR anusvaradeva
ENCODING 2306
SWIDTH 0 0
DWIDTH 0 0
BBX 5 5 -6 24
BITMAP
E0
F8
F8
F8
38
ENDCHAR
STARTCHAR visargadeva
ENCODING 2307
SWIDTH 273 0
DWIDTH 7 0
BBX 13 18 -5 2
BITMAP
FFC0
FFE0
7FF8
1FF8
0000
0000
0300
03E0
03E0
03E0
01E0
0000
0000
0300
03E0
03E0
03E0
01E0
ENDCHAR
STARTCHAR uni0904
ENCODING 2308
SWIDTH 1082 0
DWIDTH 27 0
BBX 35 31 -5 0
BITMAP
E000000000
7000000000
3800000000
1E07C00000
07FFF00000
03FFFC0000
00FFFE0000
0000070000
000001C000
000000E000
0000007000
001E07FF00
00FF87FF80
01FFC3FFE0
01FDE0FFE0
0070F03C00
0021F03C00
0001F03C00
0003F07C00
0003E07C00
0001C1FC00
0000FFFC00
00807FFC00
01C0FFFC00
00FFF83C00
003FF83C00
000FE03C00
0007803C00
0000003C00
0000003C00
0000000C00
ENDCHAR
STARTCHAR adeva
ENCODING 2309
SWIDTH 1082 0
DWIDTH 27 0
BBX 28 20 2 0
BITMAP
0F03FF80
7FC3FFC0
FFE1FFF0
FEF07FF0
38781E00
10F81E00
00F81E00
01F83E00
01F03E00
00E0FE00
007FFE00
403FFE00
E07FFE00
7FFC1E00
1FFC1E00
07F01E00
03C01E00
00001E00
00001E00
00000600
ENDCHAR
STARTCHAR aadeva
ENCODING 2310
SWIDTH 1430 0
DWIDTH 36 0
BBX 37 20 2 0
BITMAP
0F03FFFF80
7FC3FFFFE0
FFE1FFFFF8
FEF07FFFF8
38781E0F00
10F81E0F00
00F81E0F00
01F83E0F00
01F03E0F00
00E0FE0F00
007FFE0F00
403FFE0F00
E07FFE0F00
7FFC1E0F00
1FFC1E0F00
07F01E0F00
03C01E0F00
00001E1F00
00001E0F00
0000060700
ENDCHAR
STARTCHAR ideva
ENCODING 2311
SWIDTH 786 0
DWIDTH 20 0
BBX 27 27 -3 -7
BITMAP
FFFFFF00
FFFFFFC0
7FFFFFE0
1FFFFFE0
0000F000
001FF000
007FF000
00FFF000
01FFF000
01F00000
00F00000
00FFC000
0E7FF000
0F1FF800
0F823C00
07C03C00
07E0FE00
03FFFC00
00FFF800
007FE000
001C0000
00070000
0003C000
0000FF00
00007FC0
00001FC0
00000180
ENDCHAR
STARTCHAR iideva
ENCODING 2312
SWIDTH 786 0
DWIDTH 20 0
BBX 27 39 -3 -7
BITMAP
0001F800
0007FC00
000FFE00
000FC700
001F0000
001F0000
001F0000
001F0000
001F0000
00070000
00038000
0001C000
FFFFFF00
FFFFFFC0
7FFFFFE0
1FFFFFE0
0000F000
001FF000
007FF000
00FFF000
01FFF000
01F00000
00F00000
00FFC000
0E7FF000
0F1FF800
0F823C00
07C03C00
07E0FE00
03FFFC00
00FFF800
007FE000
001C0000
00070000
0003C000
0000FF00
00007FC0
00001FC0
00000180
ENDCHAR
STARTCHAR udeva
ENCODING 2313
SWIDTH 663 0
DWIDTH 17 0
BBX 21 20 -3 0
BITMAP
FFFFC0
FFFFF0
7FFFF8
1FFFF8
001E00
001E00
001F00
003F00
007E00
00FE00
007C00
001F00
000780
0001C0
0801E0
0E01F0
0787E0
01FFE0
00FFC0
003F00
ENDCHAR
STARTCHAR uudeva
ENCODING 2314
SWIDTH 1134 0
DWIDTH 28 0
BBX 35 20 -3 0
BITMAP
FFFFFFFE00
FFFFFFFF80
7FFFFFFFE0
1FFFFFFFE0
001E000000
001E000000
001F060000
003F3FC000
007E7FE000
00FEFCF000
007DF87800
001FF07800
0007E07C00
0001C3F800
0801E3F800
0E01F1F000
0787E0E000
01FFE00000
00FFC00000
003F000000
ENDCHAR
STARTCHAR rvocalicdeva
ENCODING 2315
SWIDTH 1427 0
DWIDTH 36 0
BBX 42 23 -3 -3
BITMAP
FFFFFFFFFE00
FFFFFFFFFF00
7FFFFFFFFFC0
3FFFFFFFFFC0
00003C000000
00003C0F0000
00003C1FC000
03FC3C3FE000
0FFE3C3FF000
0FFFFCFFF000
0FC1FDFFC000
0307FC7E0000
001FFC3E0000
007FFC3E0000
007FBC7F0000
003E3C7F0000
00083CF82000
00007CF87000
00003C787800
00000C78F800
0000003FF800
0000001FF000
00000007C000
ENDCHAR
STARTCHAR lvocalicdeva
ENCODING 2316
SWIDTH 980 0
DWIDTH 25 0
BBX 31 24 -3 -4
BITMAP
FFFFFFF0
FFFFFFF8
7FFFFFFE
1FFFFFFE
00007800
00007800
00607800
01FDFC00
03FFFF00
07E7C780
07C78780
078787C0
078107C0
03C00F80
01C01F80
00E03E00
00307C00
00187C00
00087800
000078E0
000039F0
00001FF0
00000FE0
00000380
ENDCHAR
STARTCHAR ecandradeva
ENCODING 2317
SWIDTH 677 0
DWIDTH 17 0
BBX 25 39 -3 -7
BITMAP
00800000
00C00000
01F00E00
01F00F00
00F01F80
00F83F00
007FFE00
001FFC00
0001E000
00000000
00000000
00000000
FFFFF000
FFFFF800
7FFFFE00
1FFFFE00
03C3C000
03C3C000
07C3E000
07C1E000
0781E000
0783E000
0783E000
07C7E000
03C7C000
03C3C000
01E08000
00700000
00380000
000E0000
00070000
00038000
0001C000
0001E000
0001E000
0001E000
0001F000
0001F000
00003000
ENDCHAR
STARTCHAR eshortdeva
ENCODING 2318
SWIDTH 677 0
DWIDTH 17 0
BBX 35 38 -15 -7
BITMAP
C000000000
E000000000
3800000000
1E0F800000
0FFFF00000
07FFF80000
01FFFE0000
00000F0000
0000038000
000001C000
0000006000
000FFFFF00
000FFFFF80
0007FFFFE0
0001FFFFE0
00003C3C00
00003C3C00
00007C3E00
00007C1E00
0000781E00
0000783E00
0000783E00
00007C7E00
00003C7C00
00003C3C00
00001E0800
0000070000
0000038000
000000E000
0000007000
0000003800
0000001C00
0000001E00
0000001E00
0000001E00
0000001F00
0000001F00
0000000300
ENDCHAR
STARTCHAR edeva
ENCODING 2319
SWIDTH 677 0
DWIDTH 17 0
BBX 23 27 -3 -7
BITMAP
FFFFF0
FFFFF8
7FFFFE
1FFFFE
03C3C0
03C3C0
07C3E0
07C1E0
0781E0
0783E0
0783E0
07C7E0
03C7C0
03C3C0
01E080
007000
003800
000E00
000700
000380
0001C0
0001E0
0001E0
0001E0
0001F0
0001F0
000030
ENDCHAR
STARTCHAR aideva
ENCODING 2320
SWIDTH 677 0
DWIDTH 17 0
BBX 25 36 -5 -7
BITMAP
FE000000
FF800000
7FC00000
1BE00000
00700000
001C0000
000E0000
00070000
00018000
3FFFFC00
3FFFFE00
1FFFFF80
07FFFF80
00F0F000
00F0F000
01F0F800
01F07800
01E07800
01E0F800
01E0F800
01F1F800
00F1F000
00F0F000
00782000
001C0000
000E0000
00038000
0001C000
0000E000
00007000
00007800
00007800
00007800
00007C00
00007C00
00000C00
ENDCHAR
STARTCHAR ocandradeva
ENCODING 2321
SWIDTH 1430 0
DWIDTH 36 0
BBX 39 31 2 0
BITMAP
0000030000
000003C038
000003C03E
000003C07E
000001E0FC
000000FFF8
0000007FF0
0000000780
0000000000
0000000000
0000000000
0F03FFFF80
7FC3FFFFE0
FFE1FFFFF8
FEF07FFFF8
38781E0F00
10F81E0F00
00F81E0F00
01F83E0F00
01F03E0F00
00E0FE0F00
007FFE0F00
403FFE0F00
E07FFE0F00
7FFC1E0F00
1FFC1E0F00
07F01E0F00
03C01E0F00
00001E1F00
00001E0F00
0000060700
ENDCHAR
STARTCHAR oshortdeva
ENCODING 2322
SWIDTH 1430 0
DWIDTH 36 0
BBX 37 31 2 0
BITMAP
3000000000
1C00000000
0E00000000
0783E00000
03FFFC0000
00FFFE0000
007FFF8000
000001C000
000000E000
0000003000
0000001C00
0F03FFFF80
7FC3FFFFE0
FFE1FFFFF8
FEF07FFFF8
38781E0F00
10F81E0F00
00F81E0F00
01F83E0F00
01F03E0F00
00E0FE0F00
007FFE0F00
403FFE0F00
E07FFE0F00
7FFC1E0F00
1FFC1E0F00
07F01E0F00
03C01E0F00
00001E1F00
00001E0F00
0000060700
ENDCHAR
STARTCHAR odeva
ENCODING 2323
SWIDTH 1430 0
DWIDTH 36 0
BBX 37 29 2 0
BITMAP
000FE00000
000FF80000
0007FC0000
0001FF0000
0000038000
000001C000
000000E000
0000003000
0000001C00
0F03FFFF80
7FC3FFFFE0
FFE1FFFFF8
FEF07FFFF8
38781E0F00
10F81E0F00
00F81E0F00
01F83E0F00
01F03E0F00
00E0FE0F00
007FFE0F00
403FFE0F00
E07FFE0F00
7FFC1E0F00
1FFC1E0F00
07F01E0F00
03C01E0F00
00001E1F00
00001E0F00
0000060700
ENDCHAR
STARTCHAR audeva
ENCODING 2324
SWIDTH 1430 0
DWIDTH 36 0
BBX 37 32 2 0
BITMAP
001F800000
001FE00000
000FF80000
0007FC0000
00000E0000
001F830000
001FE1C000
000FF8E000
00037C7000
00000E1800
0000038E00
000001C700
0F03FFFF80
7FC3FFFFE0
FFE1FFFFF8
FEF07FFFF8
38781E0F00
10F81E0F00
00F81E0F00
01F83E0F00
01F03E0F00
00E0FE0F00
007FFE0F00
403FFE0F00
E07FFE0F00
7FFC1E0F00
1FFC1E0F00
07F01E0F00
03C01E0F00
00001E1F00
00001E0F00
0000060700
ENDCHAR
STARTCHAR kadeva
ENCODING 2325
SWIDTH 1062 0
DWIDTH 27 0
BBX 33 20 -3 0
BITMAP
FFFFFFFC00
FFFFFFFE00
7FFFFFFF80
1FFFFFFF80
0003C00000
0003C00000
00C3D80000
03E3FF0000
07FBFF8000
07FBF9E000
07C3F1E000
0783E1F000
0787C1F000
038FCFF000
01FFCFE000
00FFC7C000
001FC18000
0007C00000
0003C00000
0000C00000
ENDCHAR
STARTCHAR khadeva
ENCODING 2326
SWIDTH 1242 0
DWIDTH 31 0
BBX 37 21 -3 -1
BITMAP
FFFFFFFFC0
FFFFFFFFE0
7FFFFFFFF8
3FFFFFFFF8
003C000F00
003C000F00
003C060F00
001E1F8F00
001E1FCF00
039E3FCF00
07FE3E0F00
07FE3C0F00
07FE1C1F00
03FC1E3F00
01FC0FFF00
007003FF00
003C006F00
000E001F00
0007800F00
0001C00300
0000800000
ENDCHAR
STARTCHAR gadeva
ENCODING 2327
SWIDTH 850 0
DWIDTH 21 0
BBX 28 20 -4 0
BITMAP
FFFFFF80
FFFFFFE0
7FFFFFF0
1FFFFFF0
001E1F00
001E1F00
001E1F00
001E1F00
001E1F00
01FE1F00
03FE1F00
03FE1F00
03FE1F00
01FC1F00
00FC1F00
00301F00
00001F00
00001F00
00001F00
00000700
ENDCHAR
STARTCHAR ghadeva
ENCODING 2328
SWIDTH 925 0
DWIDTH 23 0
BBX 30 20 -4 0
BITMAP
FFFFFFE0
FFFFFFF0
7FFFFFFC
1FFFFFFC
03FC07C0
03E007C0
03C007C0
03C007C0
01FC07C0
007F07C0
00FF87C0
00FE87C0
00F80FC0
00F01FC0
00F03FC0
007DFFC0
001FFFC0
0007FFC0
000007C0
000001C0
ENDCHAR
STARTCHAR ngadeva
ENCODING 2329
SWIDTH 911 0
DWIDTH 23 0
BBX 31 20 -4 0
BITMAP
FFFFFFF0
FFFFFFFC
7FFFFFFE
1FFFFFFE
0000F000
001FF000
007FF000
00FFF1E0
00FFF1E0
00F801E0
00F001E0
0077C000
043FF000
0E0FFC00
03033C00
01803E00
00F07E00
007FFE00
003FF800
000FE000
ENDCHAR
STARTCHAR cadeva
ENCODING 2330
SWIDTH 939 0
DWIDTH 23 0
BBX 29 20 -3 0
BITMAP
FFFFFFC0
FFFFFFF0
7FFFFFF8
3FFFFFF8
00000780
00000780
0FFF0780
0FFF8780
07FFC780
01FFC780
001E0780
001E0F80
001E1F80
000E3F80
0007FF80
0003FF80
00006780
00000F80
00000F80
00000380
ENDCHAR
STARTCHAR chadeva
ENCODING 2331
SWIDTH 1083 0
DWIDTH 27 0
BBX 34 20 -4 0
BITMAP
FFFFFFFE00
FFFFFFFF00
7FFFFFFFC0
1FFFFFFFC0
00F003C000
01F803C000
03FC07C000
03FC0FF000
03E01FF800
03E01F3800
01FE1F3C00
007F9F3C00
00FF8F3C00
00FC0F7C00
00F807FC00
00F801FC00
007803FC00
003E1FF800
001FFFE000
0003FF8000
ENDCHAR
STARTCHAR jadeva
ENCODING 2332
SWIDTH 879 0
DWIDTH 22 0
BBX 28 20 -3 0
BITMAP
FFFFFF80
FFFFFFC0
7FFFFFF0
1FFFFFF0
00001E00
00001E00
00001E00
00001E00
00001E00
007FFE00
007FFE00
003FFE00
001FFE00
001E1E00
000F1E00
000F1E00
0E1F1E00
07FF3E00
03FE1E00
01FC0600
ENDCHAR
STARTCHAR jhadeva
ENCODING 2333
SWIDTH 1110 0
DWIDTH 28 0
BBX 34 27 -3 -7
BITMAP
FFFFFFFC00
FFFFFFFF00
7FFFFFFFC0
1FFFFFFFC0
0000F07800
001FF07800
007FF07800
00FFF07800
01FFF0F800
01F001F800
00F003F800
00FFFFF800
0E7FFFF800
0F1FFF7800
0F823C7800
07C03C7800
07E0FE7800
03FFFCF800
00FFF87800
007FE03800
001C000000
0007000000
0003C00000
0000FF0000
00007FC000
00001FC000
0000018000
ENDCHAR
STARTCHAR nyadeva
ENCODING 2334
SWIDTH 874 0
DWIDTH 22 0
BBX 28 20 -3 0
BITMAP
FFFFFF80
FFFFFFC0
7FFFFFF0
1FFFFFF0
00001E00
00001E00
01F01E00
07FC1E00
07FE3E00
03CF7E00
0087FE00
0007FE00
000FFE00
071F9E00
07FF1E00
01FF1E00
00FC1E00
00003E00
00001E00
00000E00
ENDCHAR
STARTCHAR ttadeva
ENCODING 2335
SWIDTH 775 0
DWIDTH 19 0
BBX 26 20 -3 0
BITMAP
FFFFFE00
FFFFFF00
7FFFFFC0
3FFFFFC0
000F0000
000F0000
000F0000
00FF0000
01FF0000
03FF0000
07F00000
07E00000
07C00000
07C00000
07C02000
03C07800
01C0FC00
00E3FC00
007FF000
001FE000
ENDCHAR
STARTCHAR tthadeva
ENCODING 2336
SWIDTH 858 0
DWIDTH 21 0
BBX 28 20 -3 0
BITMAP
FFFFFF80
FFFFFFC0
7FFFFFF0
3FFFFFF0
000F0000
000F0000
000F0000
00FFC000
01FFE000
03FFF000
07F07800
07E03C00
07C03C00
07C03C00
07C07C00
03C07C00
01C0FC00
00F3F800
007FF000
001FC000
ENDCHAR
STARTCHAR ddadeva
ENCODING 2337
SWIDTH 785 0
DWIDTH 20 0
BBX 27 20 -4 0
BITMAP
FFFFFE00
FFFFFF80
7FFFFFE0
1FFFFFE0
0000F000
001FF000
007FF000
00FFF000
00FFF000
00F80000
00F00000
0077C000
043FF000
0E0FFC00
03033C00
01803E00
00F07E00
007FFE00
003FF800
000FE000
ENDCHAR
STARTCHAR ddhadeva
ENCODING 2338
SWIDTH 756 0
DWIDTH 19 0
BBX 25 20 -3 0
BITMAP
FFFFFC00
FFFFFF00
7FFFFF80
3FFFFF80
0007C000
0007C000
0007C000
00FFC000
03FFC000
03FFC000
07E00000
07C00000
078F8000
079FE000
039FF000
01CF7800
01EF7800
00F7FC00
003FF800
000FF000
ENDCHAR
STARTCHAR nnadeva
ENCODING 2339
SWIDTH 976 0
DWIDTH 24 0
BBX 30 20 -3 0
BITMAP
FFFFFFE0
FFFFFFF8
7FFFFFFC
1FFFFFFC
0783C3C0
0783C3C0
0783C3C0
0783C3C0
0783C3C0
0787C3C0
0787C3C0
03CF83C0
01FF83C0
00FF03C0
000803C0
000003C0
000003C0
000007C0
000007C0
000001C0
ENDCHAR
STARTCHAR tadeva
ENCODING 2340
SWIDTH 717 0
DWIDTH 18 0
BBX 24 20 -3 0
BITMAP
FFFFF8
FFFFFC
7FFFFF
1FFFFF
0001E0
0001E0
0001E0
0001E0
0001E0
00FFE0
03FFE0
07FFE0
07FFE0
07C1E0
07C1E0
07C1E0
03C1E0
01E3E0
0071E0
003860
ENDCHAR
STARTCHAR thadeva
ENCODING 2341
SWIDTH 866 0
DWIDTH 22 0
BBX 23 20 1 0
BITMAP
3E3FF0
7F3FFC
FF9FFE
FBC7FE
FBE1E0
FBE1E0
7BE1E0
3FE1E0
0FE1E0
0FE1E0
7FC3E0
FF87E0
7C0FE0
3C3FE0
1FFFE0
07FDE0
0001E0
0003E0
0001E0
0000E0
ENDCHAR
STARTCHAR dadeva
ENCODING 2342
SWIDTH 742 0
DWIDTH 19 0
BBX 25 24 -3 -4
BITMAP
FFFFFC00
FFFFFF00
7FFFFF80
3FFFFF80
00078000
00078000
00078000
00FF8000
03FF8000
03FF8000
07E00000
07C00000
07800000
03878000
0387E000
01C7F000
00C7F800
007FF800
003FF800
000FF000
0000E000
00007800
00001C00
00000C00
ENDCHAR
STARTCHAR dhadeva
ENCODING 2343
SWIDTH 993 0
DWIDTH 25 0
BBX 26 22 2 0
BITMAP
3F000000
7FC00000
FFE7FC00
F8F7FF00
FBF3FFC0
FBF1FFC0
79C07800
3C007800
1F807800
0FE07800
0FF07800
0FF07800
0F807800
0F00F800
0F03F800
07FFF800
01FFF800
007F7800
00007800
0000F800
00007800
00003800
ENDCHAR
STARTCHAR nadeva
ENCODING 2344
SWIDTH 754 0
DWIDTH 19 0
BBX 26 20 -4 0
BITMAP
FFFFFE00
FFFFFF00
7FFFFFC0
1FFFFFC0
00007800
00007800
00007800
00007800
00007800
01FFF800
03FFF800
03FFF800
03FFF800
01F87800
00F87800
00707800
00007800
0000F800
00007800
00003800
ENDCHAR
STARTCHAR nnnadeva
ENCODING 2345
SWIDTH 754 0
DWIDTH 19 0
BBX 26 24 -4 -4
BITMAP
FFFFFE00
FFFFFF00
7FFFFFC0
1FFFFFC0
00007800
00007800
00007800
00007800
00007800
01FFF800
03FFF800
03FFF800
03FFF800
01F87800
00F87800
00707800
00007800
0000F800
00007800
00603800
00780000
00780000
00780000
00380000
ENDCHAR
STARTCHAR padeva
ENCODING 2346
SWIDTH 698 0
DWIDTH 17 0
BBX 23 20 -3 0
BITMAP
FFFFF0
FFFFFC
7FFFFE
1FFFFE
0781E0
0781E0
0781E0
0781E0
0781E0
0783E0
0387E0
03CFE0
01FFE0
007FE0
0009E0
0001E0
0001E0
0003E0
0003E0
0000E0
ENDCHAR
STARTCHAR uni092B
ENCODING 2347
SWIDTH 1081 0
DWIDTH 27 0
BBX 33 20 -3 0
BITMAP
FFFFFFFC00
FFFFFFFF00
7FFFFFFF80
1FFFFFFF80
0781E00000
0781E00000
0781EC0000
0781FF8000
0781FFC000
0783F9E000
0387F0F000
03CFE0F000
01FFE1F000
007FEFF000
0009EFF000
0001E7E000
0001E18000
0003E00000
0003E00000
0000E00000
ENDCHAR
STARTCHAR uni092C
ENCODING 2348
SWIDTH 711 0
DWIDTH 18 0
BBX 24 20 -3 0
BITMAP
FFFFF0
FFFFFC
7FFFFF
1FFFFF
0001E0
0001E0
00C1E0
03E1E0
07F9E0
07F9E0
07F1E0
07BBE0
078FE0
0387E0
01FFE0
007FE0
0009E0
0003E0
0001E0
0000E0
ENDCHAR
STARTCHAR bhadeva
ENCODING 2349
SWIDTH 834 0
DWIDTH 21 0
BBX 24 20 0 0
BITMAP
7E1FF8
FF1FFC
FF8FFF
FBC7FF
7BC1E0
7FE1E0
1FE1E0
07E1E0
03E1E0
0FFFE0
3FFFE0
3FFFE0
1FFFE0
1FC1E0
0F81E0
0381E0
0001E0
0003E0
0001E0
0000E0
ENDCHAR
STARTCHAR madeva
ENCODING 2350
SWIDTH 861 0
DWIDTH 22 0
BBX 28 20 -4 0
BITMAP
FFFFFF80
FFFFFFE0
7FFFFFF0
1FFFFFF0
003C0F00
003C0F00
003C0F00
003C0F00
003C0F00
01FFFF00
03FFFF00
03FFFF00
03FFFF00
01FC0F00
00F80F00
00300F00
00000F00
00001F00
00000F00
00000700
ENDCHAR
STARTCHAR uni092F
ENCODING 2351
SWIDTH 765 0
DWIDTH 19 0
BBX 24 20 -2 0
BITMAP
FFFFF8
FFFFFC
7FFFFF
3FFFFF
03C1F0
03E1F0
03E1F0
03E1F0
07E1F0
0FE1F0
1FC3F0
0F07F0
070FF0
03FFF0
01FFF0
0001F0
0001F0
0003F0
0001F0
000070
ENDCHAR
STARTCHAR radeva
ENCODING 2352
SWIDTH 528 0
DWIDTH 13 0
BBX 20 21 -3 -1
BITMAP
FFFF00
FFFFC0
7FFFF0
3FFFF0
003C00
003C00
003C00
001E00
001E00
039E00
07FE00
07FE00
07FE00
03FC00
01FC00
007000
003C00
000E00
000780
0001C0
000080
ENDCHAR
STARTCHAR rradeva
ENCODING 2353
SWIDTH 528 0
DWIDTH 13 0
BBX 20 24 -3 -4
BITMAP
FFFF00
FFFFC0
7FFFF0
3FFFF0
003C00
003C00
003C00
001E00
001E00
039E00
07FE00
07FE00
07FE00
03FC00
01FC00
007000
003C00
000E00
000780
0181C0
01E080
01E000
01E000
00E000
ENDCHAR
STARTCHAR uni0932
ENCODING 2354
SWIDTH 943 0
DWIDTH 24 0
BBX 29 20 -3 0
BITMAP
FFFFFFC0
FFFFFFF0
7FFFFFF8
3FFFFFF8
00000780
00000780
00700780
01FE0F80
03FF1F80
03E7FF80
07C3FF80
07C7FF80
07C7FF80
03C3F780
01E0C780
00700780
001C0780
000C0F80
00000780
00000380
ENDCHAR
STARTCHAR lladeva
ENCODING 2355
SWIDTH 1062 0
DWIDTH 27 0
BBX 33 17 -3 3
BITMAP
FFFFFFFC00
FFFFFFFE00
7FFFFFFF80
1FFFFFFF80
00001E0000
00001E0000
00401E0000
01F07F0000
07F8FFC000
07F9F1E000
07C3F1E000
0783E1F000
0787C1F000
038F9FF000
01FF9FE000
00FF07C000
003C030000
ENDCHAR
STARTCHAR llladeva
ENCODING 2356
SWIDTH 1062 0
DWIDTH 27 0
BBX 33 24 -3 -4
BITMAP
FFFFFFFC00
FFFFFFFE00
7FFFFFFF80
1FFFFFFF80
00001E0000
00001E0000
00401E0000
01F07F0000
07F8FFC000
07F9F1E000
07C3F1E000
0783E1F000
0787C1F000
038F9FF000
01FF9FE000
00FF07C000
003C030000
0000000000
0000000000
0003C00000
0003E00000
0003E00000
0003E00000
0000600000
ENDCHAR
STARTCHAR vadeva
ENCODING 2357
SWIDTH 711 0
DWIDTH 18 0
BBX 24 20 -3 0
BITMAP
FFFFF0
FFFFFC
7FFFFF
1FFFFF
0001E0
0001E0
00C1E0
03E1E0
07F9E0
07F9E0
07C1E0
0783E0
0787E0
0387E0
01FFE0
007FE0
0009E0
0003E0
0001E0
0000E0
ENDCHAR
STARTCHAR shadeva
ENCODING 2358
SWIDTH 929 0
DWIDTH 23 0
BBX 24 20 2 0
BITMAP
3E1FF8
7F1FFE
FF8FFF
F9C3FF
79C1F0
3FE1F0
1FE1F0
07E1F0
01E1F0
3FE1F0
7FE1F0
7FE1F0
7FC1F0
3FE1F0
1FF1F0
071DF0
0009F0
0001F0
0001F0
000070
ENDCHAR
STARTCHAR ssadeva
ENCODING 2359
SWIDTH 698 0
DWIDTH 17 0
BBX 23 20 -3 0
BITMAP
FFFFF0
FFFFFC
7FFFFE
1FFFFE
0781E0
07C1E0
07B1E0
0799E0
078DE0
0783E0
0387E0
03CFE0
01FFE0
007FE0
0009E0
0001E0
0001E0
0003E0
0003E0
0000E0
ENDCHAR
STARTCHAR sadeva
ENCODING 2360
SWIDTH 919 0
DWIDTH 23 0
BBX 29 21 -3 -1
BITMAP
FFFFFFC0
FFFFFFE0
7FFFFFF8
3FFFFFF8
003C0F00
003C0F00
003C0F00
001E0F00
001E0F00
039FFF00
07FFFF00
07FFFF00
07FEFF00
03FC0F00
01FC0F00
00700F00
003C0F00
000E1F00
00078F00
0001C300
00008000
ENDCHAR
STARTCHAR hadeva
ENCODING 2361
SWIDTH 642 0
DWIDTH 16 0
BBX 20 27 -1 -7
BITMAP
FFFF80
FFFFC0
FFFFF0
3FFFF0
003C00
003C00
03FC00
0FFC00
0FFC00
1FFC00
1F0000
0F0000
07C000
0FF800
1FFC00
1F0E00
1F0F00
1E1F80
1E1F80
1F1F00
078600
01C000
00F000
003800
001E00
000600
000200
ENDCHAR
STARTCHAR uni093A
ENCODING 2362
SWIDTH 0 0
DWIDTH 0 0
BBX 5 11 -6 18
BITMAP
E0
F8
F8
F8
F8
F8
F8
F8
F8
F8
78
ENDCHAR
STARTCHAR uni093B
ENCODING 2363
SWIDTH 347 0
DWIDTH 9 0
BBX 12 29 -1 0
BITMAP
0E00
0F00
0F00
0F00
0F00
0F00
0F00
0F00
0F00
FF80
FFE0
FFF0
3FF0
0F00
0F00
0F00
0F00
0F00
0F00
0F00
0F00
0F00
0F00
0F00
0F00
0F00
1F00
0F00
0700
ENDCHAR
STARTCHAR nuktadeva
ENCODING 2364
SWIDTH 0 0
DWIDTH 0 0
BBX 5 5 -6 -6
BITMAP
E0
F8
F8
F8
38
ENDCHAR
STARTCHAR avagrahadeva
ENCODING 2365
SWIDTH 715 0
DWIDTH 18 0
BBX 21 20 1 0
BITMAP
00FF80
03FFE0
07FFF8
0FFFF8
1F8000
1F0000
0F0000
070000
038000
01C000
00F000
003800
801C00
C00F00
700F00
380F80
1E3F00
07FF00
03FE00
01F800
ENDCHAR
STARTCHAR uni093E
ENCODING 2366
SWIDTH 347 0
DWIDTH 9 0
BBX 12 20 -1 0
BITMAP
FF80
FFE0
FFF0
3FF0
0F00
0F00
0F00
0F00
0F00
0F00
0F00
0F00
0F00
0F00
0F00
0F00
0F00
1F00
0F00
0700
ENDCHAR
STARTCHAR uni093F
ENCODING 2367
SWIDTH 347 0
DWIDTH 9 0
BBX 14 27 -1 0
BITMAP
3E00
7F80
7FC0
7FE0
3C70
3C18
1C1C
FF0C
FF00
FF00
7F00
0F00
0F00
0F00
0F00
0F00
0F00
0F00
0F00
0F00
0F00
0F00
0F00
0F00
1F00
0F00
0700
ENDCHAR
STARTCHAR uni0940
ENCODING 2368
SWIDTH 347 0
DWIDTH 9 0
BBX 19 27 -8 0
BITMAP
7C0000
FF0000
FF8000
FFC000
F0E000
707000
383000
1BFF00
0FFFC0
01FFE0
007FE0
001E00
001E00
001E00
001E00
001E00
001E00
001E00
001E00
001E00
001E00
001E00
001E00
001E00
003E00
001E00
000E00
ENDCHAR
STARTCHAR uvowelsigndeva
ENCODING 2369
SWIDTH 0 0
DWIDTH 0 0
BBX 15 11 -16 -14
BITMAP
07E0
07F0
07FC
031C
001E
C01E
F03E
3FFE
1FFC
07F0
01C0
ENDCHAR
STARTCHAR uuvowelsigndeva
ENCODING 2370
SWIDTH 0 0
DWIDTH 0 0
BBX 15 11 -15 -14
BITMAP
0F80
3FC0
7FF0
FEF8
F00E
F004
E000
7380
7FC0
1FC0
0700
ENDCHAR
STARTCHAR rvocalicvowelsigndeva
ENCODING 2371
SWIDTH 0 0
DWIDTH 0 0
BBX 11 11 -13 -14
BITMAP
3800
7E00
FE00
FC00
F000
F000
F080
71E0
3FE0
1FE0
0300
ENDCHAR
STARTCHAR rrvocalicvowelsigndeva
ENCODING 2372
SWIDTH 0 0
DWIDTH 0 0
BBX 12 14 -12 -17
BITMAP
3C00
FE00
FF00
FC00
F000
7C00
7F00
7F00
FC00
78C0
79E0
3FF0
0FF0
0080
ENDCHAR
STARTCHAR ecandravowelsigndeva
ENCODING 2373
SWIDTH 0 0
DWIDTH 0 0
BBX 17 8 -18 23
BITMAP
600000
F80700
F80780
F80F80
783F80
3FFF00
0FFE00
01F000
ENDCHAR
STARTCHAR eshortvowelsigndeva
ENCODING 2374
SWIDTH 0 0
DWIDTH 0 0
BBX 29 13 -33 18
BITMAP
C0000000
60000000
38000000
1E0F8000
0FFFF000
03FFF800
01FFFE00
00000700
00000380
000000C0
00000070
00000038
00000010
ENDCHAR
STARTCHAR evowelsigndeva
ENCODING 2375
SWIDTH 0 0
DWIDTH 0 0
BBX 19 11 -15 18
BITMAP
FE0000
FF8000
3FE000
1DF000
003800
000C00
000700
000380
0001C0
000060
000020
ENDCHAR
STARTCHAR aivowelsigndeva
ENCODING 2376
SWIDTH 0 0
DWIDTH 0 0
BBX 22 14 -18 18
BITMAP
FE0000
FF8000
7FC000
1FE000
007800
FE1C00
FF8E00
7FC700
1FF180
0038E0
001C70
000E38
00030C
000104
ENDCHAR
STARTCHAR ocandravowelsigndeva
ENCODING 2377
SWIDTH 347 0
DWIDTH 9 0
BBX 18 31 -4 0
BITMAP
600000
F80700
F807C0
780FC0
7C1F80
1FFF00
0FFE00
00F000
000000
000000
000000
1FF000
1FFC00
1FFE00
07FE00
01E000
01E000
01E000
01E000
01E000
01E000
01E000
01E000
01E000
01E000
01E000
01E000
01E000
03E000
01E000
00E000
ENDCHAR
STARTCHAR uni094A
ENCODING 2378
SWIDTH 347 0
DWIDTH 9 0
BBX 34 31 -23 0
BITMAP
C000000000
6000000000
3800000000
1E0F800000
0FFFF00000
03FFF80000
01FFFE0000
0000070000
0000038000
000000C000
0000007000
000003FE00
000003FF80
000003FFC0
000000FFC0
0000003C00
0000003C00
0000003C00
0000003C00
0000003C00
0000003C00
0000003C00
0000003C00
0000003C00
0000003C00
0000003C00
0000003C00
0000003C00
0000007C00
0000003C00
0000001C00
ENDCHAR
STARTCHAR ovowelsigndeva
ENCODING 2379
SWIDTH 347 0
DWIDTH 9 0
BBX 24 29 -13 0
BITMAP
FE0000
FF8000
7FC000
1BE000
003800
001C00
000E00
000300
0001C0
000FF8
000FFE
000FFF
0003FF
0000F0
0000F0
0000F0
0000F0
0000F0
0000F0
0000F0
0000F0
0000F0
0000F0
0000F0
0000F0
0000F0
0001F0
0000F0
000070
ENDCHAR
STARTCHAR uni094C
ENCODING 2380
SWIDTH 347 0
DWIDTH 9 0
BBX 25 32 -14 0
BITMAP
FC000000
FF000000
7FC00000
3FE00000
00700000
FC180000
FF0E0000
7FC70000
3BE38000
0071C000
001C6000
000E3800
0007FC00
0007FF00
0007FF80
0001FF80
00007800
00007800
00007800
00007800
00007800
00007800
00007800
00007800
00007800
00007800
00007800
00007800
00007800
0000F800
00007800
00003800
ENDCHAR
STARTCHAR viramadeva
ENCODING 2381
SWIDTH 0 0
DWIDTH 0 0
BBX 9 6 -9 -9
BITMAP
C000
F000
3800
1E00
0700
0180
ENDCHAR
STARTCHAR uni094E
ENCODING 2382
SWIDTH 347 0
DWIDTH 9 0
BBX 9 20 2 0
BITMAP
7C00
7F00
7F80
7F80
7800
7800
7800
7800
7800
7800
7800
7800
7800
7800
7800
7800
7800
F800
7800
3800
ENDCHAR
STARTCHAR uni094F
ENCODING 2383
SWIDTH 347 0
DWIDTH 9 0
BBX 34 31 -23 0
BITMAP
C000000000
6000003800
3800007C00
1E0F80FE00
0FFFF0FC00
03FFF87800
01FFFE3800
0000071C00
0000038700
000000C780
0000007780
000003FF80
000003FF80
000003FFC0
000000FFC0
0000003C00
0000003C00
0000003C00
0000003C00
0000003C00
0000003C00
0000003C00
0000003C00
0000003C00
0000003C00
0000003C00
0000003C00
0000003C00
0000007C00
0000003C00
0000001C00
ENDCHAR
STARTCHAR omdeva
ENCODING 2384
SWIDTH 1271 0
DWIDTH 32 0
BBX 32 32 1 0
BITMAP
0000C000
0000F000
0000F000
0038F100
003C7380
003C03E0
003C07E0
001E0FC0
000FFF80
0003FF00
00003000
00000000
07800000
3FE00000
7FF00000
7F780FE0
1C3C1FF8
083C3FFC
003C3E1E
007C7C0F
00FCFC0F
01FCF80F
00F9F01F
007FE01F
401FE03F
E00FC3FE
700F83FC
180F80F8
0E3F8000
07FF0000
03FE0000
01F80000
ENDCHAR
STARTCHAR udattadeva
ENCODING 2385
SWIDTH 0 0
DWIDTH 0 0
BBX 5 11 -6 23
BITMAP
E0
F8
F8
F8
F8
F8
F8
F8
F8
F8
78
ENDCHAR
STARTCHAR anudattadeva
ENCODING 2386
SWIDTH 0 0
DWIDTH 0 0
BBX 19 4 -16 -5
BITMAP
FFFF00
FFFF80
FFFFE0
3FFFE0
ENDCHAR
STARTCHAR gravedeva
ENCODING 2387
SWIDTH 0 0
DWIDTH 0 0
BBX 10 7 -14 22
BITMAP
4000
E000
3800
1C00
0700
03C0
0080
ENDCHAR
STARTCHAR acutedeva
ENCODING 2388
SWIDTH 0 0
DWIDTH 0 0
BBX 13 10 -13 21
BITMAP
0040
00E0
01F8
07F8
1FF0
7FE0
FF80
FF00
3C00
1000
ENDCHAR
STARTCHAR uni0955
ENCODING 2389
SWIDTH 0 0
DWIDTH 0 0
BBX 19 13 -17 22
BITMAP
600000
780300
780780
7807C0
3C1FC0
1FFF80
0FFF00
01F800
000000
FFFF00
FFFFC0
7FFFE0
3FFFE0
ENDCHAR
STARTCHAR uni0956
ENCODING 2390
SWIDTH 0 0
DWIDTH 0 0
BBX 13 5 -14 -7
BITMAP
C0F0
FFF8
7FF8
1FF0
0200
ENDCHAR
STARTCHAR uni0957
ENCODING 2391
SWIDTH 0 0
DWIDTH 0 0
BBX 13 10 -14 -12
BITMAP
C0F0
FFF8
7FF8
1FF0
0200
0040
C0F0
FFF8
7FF8
1FF0
ENDCHAR
STARTCHAR qadeva
ENCODING 2392
SWIDTH 1062 0
DWIDTH 27 0
BBX 33 23 -3 -3
BITMAP
FFFFFFFC00
FFFFFFFE00
7FFFFFFF80
1FFFFFFF80
0003C00000
0003C00000
00C3D80000
03E3FF0000
07FBFF8000
07FBF9E000
07C3F1E000
0783E1F000
0787C1F000
038FCFF000
01FFCFE000
00FFC7C000
001FC18000
0007C00000
0003C00000
03C0C00000
03C0000000
03C0000000
03C0000000
ENDCHAR
STARTCHAR khhadeva
ENCODING 2393
SWIDTH 1242 0
DWIDTH 31 0
BBX 37 24 -3 -4
BITMAP
FFFFFFFFC0
FFFFFFFFE0
7FFFFFFFF8
3FFFFFFFF8
003C000F00
003C000F00
003C060F00
001E1F8F00
001E1FCF00
039E3FCF00
07FE3E0F00
07FE3C0F00
07FE1C1F00
03FC1E3F00
01FC0FFF00
007003FF00
003C006F00
000E001F00
0007800F00
0601C00300
0780800000
07C0000000
07C0000000
03C0000000
ENDCHAR
STARTCHAR ghhadeva
ENCODING 2394
SWIDTH 850 0
DWIDTH 21 0
BBX 28 24 -4 -4
BITMAP
FFFFFF80
FFFFFFE0
7FFFFFF0
1FFFFFF0
001E1F00
001E1F00
001E1F00
001E1F00
001E1F00
01FE1F00
03FE1F00
03FE1F00
03FE1F00
01FC1F00
00FC1F00
00301F00
00001F00
00001F00
00001F00
00600700
00780000
00780000
00780000
00380000
ENDCHAR
STARTCHAR zadeva
ENCODING 2395
SWIDTH 879 0
DWIDTH 22 0
BBX 28 28 -3 -8
BITMAP
FFFFFF80
FFFFFFC0
7FFFFFF0
1FFFFFF0
00001E00
00001E00
00001E00
00001E00
00001E00
007FFE00
007FFE00
003FFE00
001FFE00
001E1E00
000F1E00
000F1E00
0E1F1E00
07FF3E00
03FE1E00
01FC0600
00000000
00000000
00000000
00600000
00780000
00780000
00780000
00380000
ENDCHAR
STARTCHAR dddhadeva
ENCODING 2396
SWIDTH 785 0
DWIDTH 20 0
BBX 27 24 -4 -4
BITMAP
FFFFFE00
FFFFFF80
7FFFFFE0
1FFFFFE0
0000F000
001FF000
007FF000
00FFF000
00FFF000
00F80000
00F00000
0077C000
043FF000
0E0FFC00
03033C00
01803E00
00F07E00
007FFE00
003FF800
000FE000
0F000000
0F000000
0F000000
07000000
ENDCHAR
STARTCHAR rhadeva
ENCODING 2397
SWIDTH 756 0
DWIDTH 19 0
BBX 25 25 -3 -5
BITMAP
FFFFFC00
FFFFFF00
7FFFFF80
3FFFFF80
0007C000
0007C000
0007C000
00FFC000
03FFC000
03FFC000
07E00000
07C00000
078F8000
079FE000
039FF000
01CF7800
01EF7800
00F7FC00
003FF800
000FF000
00000000
03800000
03C00000
03C00000
03C00000
ENDCHAR
STARTCHAR fadeva
ENCODING 2398
SWIDTH 1081 0
DWIDTH 27 0
BBX 33 22 -3 -2
BITMAP
FFFFFFFC00
FFFFFFFF00
7FFFFFFF80
1FFFFFFF80
0781E00000
0781E00000
0781EC0000
0781FF8000
0781FFC000
0783F9E000
0387F0F000
03CFE0F000
01FFE1F000
007FEFF000
0009EFF000
0001E7E000
0001E18000
0183E00000
01E3E00000
01E0E00000
01E0000000
00E0000000
ENDCHAR
STARTCHAR yyadeva
ENCODING 2399
SWIDTH 765 0
DWIDTH 19 0
BBX 24 23 -2 -3
BITMAP
FFFFF8
FFFFFC
7FFFFF
3FFFFF
03C1F0
03E1F0
03E1F0
03E1F0
07E1F0
0FE1F0
1FC3F0
0F07F0
070FF0
03FFF0
01FFF0
0001F0
0001F0
0003F0
0301F0
03C070
03C000
03C000
01C000
ENDCHAR
STARTCHAR rrvocalicdeva
ENCODING 2400
SWIDTH 1427 0
DWIDTH 36 0
BBX 42 26 -3 -6
BITMAP
FFFFFFFFFE00
FFFFFFFFFF00
7FFFFFFFFFC0
3FFFFFFFFFC0
00003C000000
00003C0F0000
00003C1FC000
03FC3C3FE000
0FFE3C3FF000
0FFFFCFFF000
0FC1FDFFC000
0307FC7E0000
001FFC3E0000
007FFC3F0000
007FBC3F8000
003E3C7FC000
00083C7C0000
00007C3C0000
00003C1F0000
00000C3F8000
0000003F8000
0000003E0000
0000003C3000
0000001C7800
0000000FFC00
00000003F800
ENDCHAR
STARTCHAR llvocalicdeva
ENCODING 2401
SWIDTH 980 0
DWIDTH 25 0
BBX 31 26 -3 -6
BITMAP
FFFFFFF0
FFFFFFF8
7FFFFFFE
1FFFFFFE
00007800
00007800
00607800
01FDFC00
03FFFF00
07E7C780
07C78780
078787C0
078107C0
03C01F80
01C03F80
00E07E00
00307C00
00183C00
00081E00
00003F00
00007F00
00007C00
00007840
000038E0
00001FF0
00000FF0
ENDCHAR
STARTCHAR lvocalicvowelsigndeva
ENCODING 2402
SWIDTH 0 0
DWIDTH 0 0
BBX 24 16 -25 -19
BITMAP
1F1F00
7FFFC0
FFFFF0
FCFC70
F8F878
F07078
7810F8
3803F8
1C07F0
0E07E0
0707C0
01078C
0003DF
0003FF
0000FF
000010
ENDCHAR
STARTCHAR llvocalicvowelsigndeva
ENCODING 2403
SWIDTH 0 0
DWIDTH 0 0
BBX 24 19 -25 -22
BITMAP
1F1F00
7FFFC0
FFFFF0
FCF870
F8F878
F070F8
7823F8
3807F0
1C07E0
0E0780
0703C0
0107F0
000FF0
000FC0
000F88
00079E
0003FF
0001FF
000038
ENDCHAR
STARTCHAR dandadeva
ENCODING 2404
SWIDTH 650 0
DWIDTH 16 0
BBX 5 20 5 0
BITMAP
60
78
78
78
78
78
78
78
78
78
78
78
78
78
78
78
78
F8
78
38
ENDCHAR
STARTCHAR dbldandadeva
ENCODING 2405
SWIDTH 967 0
DWIDTH 24 0
BBX 13 20 5 0
BITMAP
6060
7878
7878
7878
7878
7878
7878
7878
7878
7878
7878
7878
7878
7878
7878
7878
7878
F8F8
7878
3838
ENDCHAR
STARTCHAR zerodeva
ENCODING 2406
SWIDTH 727 0
DWIDTH 18 0
BBX 14 11 2 3
BITMAP
3FC0
7FE0
7CF0
F878
F878
787C
787C
3CFC
1FF8
0FF0
01C0
ENDCHAR
STARTCHAR onedeva
ENCODING 2407
SWIDTH 606 0
DWIDTH 15 0
BBX 11 20 1 0
BITMAP
3C00
7E00
FF00
F380
F3C0
F3C0
7BC0
3FC0
1FE0
03E0
03C0
03C0
03C0
03C0
03C0
07C0
07C0
07C0
0780
0380
ENDCHAR
STARTCHAR twodeva
ENCODING 2408
SWIDTH 721 0
DWIDTH 18 0
BBX 18 21 2 -1
BITMAP
1F0000
7FC000
FFE000
FFF000
787800
107800
007800
00F800
00F800
01F800
7FF000
FFF000
7FE000
3FE000
1FF000
0F3800
001C00
000E00
000300
0001C0
000080
ENDCHAR
STARTCHAR threedeva
ENCODING 2409
SWIDTH 804 0
DWIDTH 20 0
BBX 16 25 2 -5
BITMAP
0F80
3FE0
7FF0
7FF8
3C3C
083C
007C
007C
01FC
01F8
01F0
0078
F03C
F01E
F80F
781F
783F
3FFE
0FFC
07F8
0380
01C0
0060
0038
0018
ENDCHAR
STARTCHAR fourdeva
ENCODING 2410
SWIDTH 798 0
DWIDTH 20 0
BBX 15 22 2 0
BITMAP
4010
F03C
F83E
F83E
F83E
787E
78FC
3DF8
0FF0
07E0
0FC0
1FC0
3F70
7E38
7C3C
7C1C
781E
783E
3C3E
1FFE
0FFC
03F8
ENDCHAR
STARTCHAR fivedeva
ENCODING 2411
SWIDTH 800 0
DWIDTH 20 0
BBX 19 24 3 -4
BITMAP
C0E000
F0F800
F0F800
F0F800
F0F800
79F800
3FF800
0FF800
00F800
00F800
00F800
00F800
00F800
00F000
3FF000
3FF000
3FF000
1FF800
0FFC00
03CE00
000300
0001C0
0000E0
000040
ENDCHAR
STARTCHAR sixdeva
ENCODING 2412
SWIDTH 903 0
DWIDTH 23 0
BBX 24 20 2 0
BITMAP
7C0000
FF0000
FF0000
FC0000
F00000
7C0E00
3F0F00
3FCF80
7FCFC0
7E0FC0
7C0FC0
7C1FC0
3C3F80
1FFF80
0FFFC0
03F0E0
000030
00001C
00000E
000007
ENDCHAR
STARTCHAR sevendeva
ENCODING 2413
SWIDTH 1007 0
DWIDTH 25 0
BBX 21 22 2 0
BITMAP
100000
3C0000
3E0000
7C0000
7C0F00
7C3FC0
F83FE0
F87CE0
F87CF0
F83CF0
F83EF0
F80FF8
7807F8
7800F8
7801F0
3801F0
3C01F0
1C03E0
0E07E0
07FFC0
03FF80
00FE00
ENDCHAR
STARTCHAR eightdeva
ENCODING 2414
SWIDTH 814 0
DWIDTH 20 0
BBX 22 20 -2 0
BITMAP
FFFFE0
FFFFF8
7FFFFC
1FFFFC
07E000
07C000
07C000
078000
07C000
03C000
01E000
007C00
001FC0
0003E0
0000F0
0000F8
0000F8
0001F8
0001F0
000070
ENDCHAR
STARTCHAR ninedeva
ENCODING 2415
SWIDTH 740 0
DWIDTH 19 0
BBX 15 20 2 0
BITMAP
0F80
3FE0
7FF0
7CF8
7DF8
7DF8
3CE0
3C00
1F00
3FC0
7FC0
FE00
F800
F800
F018
F03C
78FE
3FFE
1FF8
0FE0
ENDCHAR
STARTCHAR abbreviationsigndeva
ENCODING 2416
SWIDTH 610 0
DWIDTH 15 0
BBX 11 9 2 5
BITMAP
7F00
FFC0
F9C0
F1E0
F1E0
7BE0
7FE0
1FC0
0700
ENDCHAR
STARTCHAR uni0971
ENCODING 2417
SWIDTH 598 0
DWIDTH 15 0
BBX 4 5 6 15
BITMAP
E0
F0
F0
F0
30
ENDCHAR
STARTCHAR uni0972
ENCODING 2418
SWIDTH 1082 0
DWIDTH 27 0
BBX 30 31 2 0
BITMAP
00070000
00078030
0007807C
000780FC
0003C1FC
0001FFF8
00007FE0
00000F00
00000000
00000000
00000000
0F03FF80
7FC3FFC0
FFE1FFF0
FEF07FF0
38781E00
10F81E00
00F81E00
01F83E00
01F03E00
00E0FE00
007FFE00
403FFE00
E07FFE00
7FFC1E00
1FFC1E00
07F01E00
03C01E00
00001E00
00001E00
00000600
ENDCHAR
STARTCHAR uni0973
ENCODING 2419
SWIDTH 1082 0
DWIDTH 27 0
BBX 28 34 2 0
BITMAP
00001C00
00001E00
00001E00
00001E00
00001E00
00001E00
00001E00
00001E00
00001E00
00001E00
00000E00
00000000
00000000
00000000
0F03FF80
7FC3FFC0
FFE1FFF0
FEF07FF0
38781E00
10F81E00
00F81E00
01F83E00
01F03E00
00E0FE00
007FFE00
403FFE00
E07FFE00
7FFC1E00
1FFC1E00
07F01E00
03C01E00
00001E00
00001E00
00000600
ENDCHAR
STARTCHAR uni0974
ENCODING 2420
SWIDTH 1430 0
DWIDTH 36 0
BBX 37 29 2 0
BITMAP
0000000E00
0000000F00
0000000F00
0000000F00
0000000F00
0000000F00
0000000F00
0000000F00
0000000F00
0F03FFFF80
7FC3FFFFE0
FFE1FFFFF8
FEF07FFFF8
38781E0F00
10F81E0F00
00F81E0F00
01F83E0F00
01F03E0F00
00E0FE0F00
007FFE0F00
403FFE0F00
E07FFE0F00
7FFC1E0F00
1FFC1E0F00
07F01E0F00
03C01E0F00
00001E1F00
00001E0F00
0000060700
ENDCHAR
STARTCHAR uni0975
ENCODING 2421
SWIDTH 1430 0
DWIDTH 36 0
BBX 37 31 2 0
BITMAP
3000000000
1800000E00
0E00001F00
0783E03F80
03FFFC3F00
00FFFE1E00
007FFF8E00
000001C700
000000E1C0
00000031E0
0000001DE0
0F03FFFFE0
7FC3FFFFE0
FFE1FFFFF8
FEF07FFFF8
38781F0F00
10F81F0F00
00F81F0F00
01F83F0F00
01F03F0F00
00E07F0F00
007FFF0F00
403FFF0F00
E07FFF0F00
7FFC1F0F00
1FFC1F0F00
0FF01F0F00
03C01F0F00
00001F1F00
00001F0F00
0000070700
ENDCHAR
STARTCHAR uni0976
ENCODING 2422
SWIDTH 1082 0
DWIDTH 27 0
BBX 28 27 2 -7
BITMAP
0F03FF80
7FC3FFC0
FFE1FFF0
FEF07FF0
38781E00
10F81E00
00F81E00
01F83E00
01F03E00
00E0FE00
007FFE00
403FFE00
E07FFE00
7FFC1E00
1FFC1E00
07F01E00
03C01E00
00001E00
00001E00
00000600
00000000
00001000
00303C00
003FFE00
001FFE00
000FFC00
00008000
ENDCHAR
STARTCHAR uni0977
ENCODING 2423
SWIDTH 1082 0
DWIDTH 27 0
BBX 28 33 2 -13
BITMAP
0F03FF80
7FC3FFC0
FFE1FFF0
FEF07FF0
38781E00
10F81E00
00F81E00
01F83E00
01F03E00
00E0FE00
007FFE00
403FFE00
E07FFE00
7FFC1E00
1FFC1E00
07F01E00
03C01E00
00001E00
00001E00
00000600
00000000
00000000
00303800
003FFE00
001FFE00
000FFC00
0001C000
00001000
00303C00
003FFE00
001FFE00
000FFC00
00008000
ENDCHAR
STARTCHAR uni0979
ENCODING 2425
SWIDTH 864 0
DWIDTH 22 0
BBX 28 29 -3 -9
BITMAP
FFFFFF80
FFFFFFC0
7FFFFFF0
1FFFFFF0
00001E00
00001E00
00001E00
00001E00
00001E00
007FFE00
007FFE00
003FFE00
001FFE00
001E1E00
000F1E00
000F1E00
0E1F1E00
07FF3E00
03FE1E00
01FC0600
00000000
1C038000
1E03C000
1E03C000
1EE3C000
06F8C000
00F80000
00F80000
00380000
ENDCHAR
STARTCHAR uni097B
ENCODING 2427
SWIDTH 854 0
DWIDTH 21 0
BBX 28 25 -4 -5
BITMAP
FFFFFF80
FFFFFFE0
7FFFFFF0
1FFFFFF0
001E1F00
001E1F00
001E1F00
001E1F00
001E1F00
01FE1F00
03FE1F00
03FE1F00
03FE1F00
01FC1F00
00FC1F00
00301F00
00001F00
00001F00
00001F00
00001F00
00001F00
07FFFF00
07FFFF00
07FFFF00
01FFFF00
ENDCHAR
STARTCHAR uni097C
ENCODING 2428
SWIDTH 885 0
DWIDTH 22 0
BBX 28 25 -3 -5
BITMAP
FFFFFF80
FFFFFFC0
7FFFFFF0
1FFFFFF0
00001F00
00001F00
00001F00
00001F00
00001F00
007FFF00
007FFF00
003FFF00
001FFF00
001E1F00
000F1F00
000F1F00
0E1F1F00
07FF1F00
03FE1F00
01FC1F00
00001F00
0FFFFF00
0FFFFF00
07FFFF00
03FFFF00
ENDCHAR
STARTCHAR uni097D
ENCODING 2429
SWIDTH 860 0
DWIDTH 22 0
BBX 18 20 1 0
BITMAP
07F000
1FFC00
3FFE00
7E0F00
7C0780
F80780
7807C0
1807C0
000FC0
001F80
03FF80
03FF00
03FE00
03E000
03E000
03E000
03E000
03E000
03E000
01E000
ENDCHAR
STARTCHAR uni097E
ENCODING 2430
SWIDTH 785 0
DWIDTH 20 0
BBX 27 25 -4 -5
BITMAP
FFFFFE00
FFFFFF80
7FFFFFE0
1FFFFFE0
0000F000
001FF000
007FF000
00FFF000
00FFF000
00F80000
00F00000
0077C000
043FF000
0E0FFC00
03033C00
01803E00
00F07E00
007FFE00
003FF800
000FE000
00000000
07FFFC00
07FFFE00
03FFFF00
01FFFF00
ENDCHAR
STARTCHAR uni097F
ENCODING 2431
SWIDTH 724 0
DWIDTH 18 0
BBX 24 25 -3 -5
BITMAP
FFFFF8
FFFFFC
7FFFFF
1FFFFF
0001E0
0001E0
00C1E0
03E1E0
07F9E0
07F9E0
07F1E0
07BBE0
078FE0
0387E0
01FFE0
00FFE0
001DE0
0001E0
0001E0
0001E0
0001E0
0001E0
03FFE0
03FFE0
01FFE0
ENDCHAR
STARTCHAR uni0FD5
ENCODING 4053
SWIDTH 1230 0
DWIDTH 31 0
BBX 22 20 5 0
BITMAP
E07FFC
F87FFC
F87FFC
F87FF8
F87800
F87800
F87800
F87800
FFFFFC
FFFFFC
FFFFFC
FFFFFC
00783C
00783C
00783C
00783C
7FF83C
7FF83C
FFF83C
FFF81C
ENDCHAR
STARTCHAR uni0FD6
ENCODING 4054
SWIDTH 1230 0
DWIDTH 31 0
BBX 22 20 5 0
BITMAP
FFF81C
FFF83C
FFF83C
7FF83C
00783C
00783C
00783C
00783C
FFFFFC
FFFFFC
FFFFFC
FFFFFC
F87800
F87800
F87800
F87800
F87FF8
F87FFC
F87FFC
F07FFC
ENDCHAR
STARTCHAR uni0FD7
ENCODING 4055
SWIDTH 1230 0
DWIDTH 31 0
BBX 22 20 5 0
BITMAP
E07FFC
F87FFC
F87FFC
F87FF8
FA7900
FF7B80
FF7B80
FB7900
FFFFFC
FFFFFC
FFFFFC
FFFFFC
02793C
077BBC
077BBC
03793C
7FF83C
7FF83C
FFF83C
FFF81C
ENDCHAR
STARTCHAR uni0FD8
ENCODING 4056
SWIDTH 1230 0
DWIDTH 31 0
BBX 22 20 5 0
BITMAP
FFF81C
FFF83C
FFF83C
7FF83C
01793C
077BBC
077BBC
02793C
FFFFFC
FFFFFC
FFFFFC
FFFFFC
F97900
FF7B80
FF7B80
FA7900
F87FF8
F87FFC
F87FFC
F07FFC
ENDCHAR
STARTCHAR Wgrave
ENCODING 7808
SWIDTH 1281 0
DWIDTH 32 0
BBX 32 28 0 0
BITMAP
001F8000
001F8000
0007C000
0001C000
0000E000
00000000
00000000
00000000
7F8FF8FF
FF9FF9FF
7F0FF0FE
3E03C03C
1F03E018
1F03E038
0F01E038
0F81F030
0F83F070
0783F060
07C3F860
03C7F8E0
03E678C0
03E67CC0
01E63DC0
01FC3D80
01FC3F80
00FC1F80
00FC1F00
00701E00
ENDCHAR
STARTCHAR wgrave
ENCODING 7809
SWIDTH 955 0
DWIDTH 24 0
BBX 23 22 0 0
BITMAP
01F000
03F000
00F800
003800
001C00
000000
000000
000000
0C0C00
3C3CFE
FCFC7E
FCFC3C
3E3E0C
1E1E1C
1E1F18
1F1F18
0F3FB0
0FBFB0
07E7E0
07E7E0
07C3C0
0383C0
ENDCHAR
STARTCHAR Wacute
ENCODING 7810
SWIDTH 1281 0
DWIDTH 32 0
BBX 32 28 0 0
BITMAP
00007C00
0000FC00
0000F000
0001E000
00018000
00000000
00000000
00000000
7F8FF8FF
FF9FF9FF
7F0FF0FE
3E03C03C
1F03E018
1F03E038
0F01E038
0F81F030
0F83F070
0783F060
07C3F860
03C7F8E0
03E678C0
03E67CC0
01E63DC0
01FC3D80
01FC3F80
00FC1F80
00FC1F00
00701E00
ENDCHAR
STARTCHAR wacute
ENCODING 7811
SWIDTH 955 0
DWIDTH 24 0
BBX 23 22 0 0
BITMAP
000F80
001FC0
001F00
003C00
003800
000000
000000
000000
0C0C00
3C3CFE
FCFC7E
FCFC3C
3E3E0C
1E1E1C
1E1F18
1F1F18
0F3FB0
0FBFB0
07E7E0
07E7E0
07C3C0
0383C0
ENDCHAR
STARTCHAR Wdieresis
ENCODING 7812
SWIDTH 1281 0
DWIDTH 32 0
BBX 32 28 0 0
BITMAP
000C0C00
003E1E00
003E1F00
003E1E00
001C1C00
00000000
00000000
00000000
7F8FF8FF
FF9FF9FF
7F0FF0FE
3E03C03C
1F03E018
1F03E038
0F01E038
0F81F030
0F83F070
0783F060
07C3F860
03C7F8E0
03E678C0
03E67CC0
01E63DC0
01FC3D80
01FC3F80
00FC1F80
00FC1F00
00701E00
ENDCHAR
STARTCHAR wdieresis
ENCODING 7813
SWIDTH 955 0
DWIDTH 24 0
BBX 23 21 0 0
BITMAP
03C3C0
03E7C0
03C7C0
03C380
000000
000000
000000
0C0C00
3C3CFE
FCFC7E
FCFC3C
3E3E0C
1E1E1C
1E1F18
1F1F18
0F3FB0
0FBFB0
07E7E0
07E7E0
07C3C0
0383C0
ENDCHAR
STARTCHAR uni1E9E
ENCODING 7838
SWIDTH 929 0
DWIDTH 23 0
BBX 21 20 1 0
BITMAP
01FFF8
07FFF8
0F7FF0
1E07E0
3E01C0
3E0380
3E0700
3E0FF8
3E1FF8
3E3FF8
3E7FF0
3E7FC0
3E0180
3E0300
3E0618
3E0C18
3E3FF8
7E7FF8
FEFFF8
FEFFF8
ENDCHAR
STARTCHAR Ygrave
ENCODING 7922
SWIDTH 847 0
DWIDTH 21 0
BBX 21 28 0 0
BITMAP
07E000
07E000
01F000
007000
003800
000000
000000
000000
FF87F8
FF87F8
7F07F0
3E01E0
1F01C0
1F0180
0F8380
07C700
07C600
03EE00
01FC00
01F800
00F800
00F800
00F800
00F800
00F800
01F800
03FF00
03FE00
ENDCHAR
STARTCHAR ygrave
ENCODING 7923
SWIDTH 651 0
DWIDTH 16 0
BBX 16 28 0 -6
BITMAP
1F00
3F00
0F80
03C0
01C0
0000
0000
0000
0C00
3C7F
FC7E
FC1E
3E0C
1E0C
1E18
1F18
0F30
0FB0
07E0
07E0
07C0
0780
0780
0F00
0E00
1C00
3800
3000
ENDCHAR
STARTCHAR zerowidthspace
ENCODING 8203
SWIDTH 0 0
DWIDTH 0 0
BBX 1 1 0 0
BITMAP
00
ENDCHAR
STARTCHAR uni200C
ENCODING 8204
SWIDTH 0 0
DWIDTH 0 0
BBX 1 1 0 0
BITMAP
00
ENDCHAR
STARTCHAR uni200D
ENCODING 8205
SWIDTH 0 0
DWIDTH 0 0
BBX 1 1 0 0
BITMAP
00
ENDCHAR
STARTCHAR endash
ENCODING 8211
SWIDTH 744 0
DWIDTH 19 0
BBX 17 2 1 7
BITMAP
FFFF80
FFFF80
ENDCHAR
STARTCHAR emdash
ENCODING 8212
SWIDTH 1052 0
DWIDTH 26 0
BBX 24 2 1 7
BITMAP
FFFFFF
FFFFFF
ENDCHAR
STARTCHAR quoteleft
ENCODING 8216
SWIDTH 367 0
DWIDTH 9 0
BBX 7 11 1 10
BITMAP
04
0E
0C
1C
38
78
FC
7E
7E
78
20
ENDCHAR
STARTCHAR quoteright
ENCODING 8217
SWIDTH 370 0
DWIDTH 9 0
BBX 7 11 1 10
BITMAP
04
3C
FC
FE
7E
3C
38
70
70
E0
40
ENDCHAR
STARTCHAR quotesinglbase
ENCODING 8218
SWIDTH 367 0
DWIDTH 9 0
BBX 7 11 1 -7
BITMAP
0C
3C
FC
FE
3E
3C
38
70
60
C0
40
ENDCHAR
STARTCHAR quotedblleft
ENCODING 8220
SWIDTH 677 0
DWIDTH 17 0
BBX 15 11 0 10
BITMAP
0404
0E0E
1C1C
3838
3878
78F0
FCF8
FEFC
7EFC
7870
4040
ENDCHAR
STARTCHAR quotedblright
ENCODING 8221
SWIDTH 680 0
DWIDTH 17 0
BBX 15 11 1 10
BITMAP
0408
3C3C
FCFC
FEFC
7E7E
3C3C
3838
7070
7060
E0C0
4040
ENDCHAR
STARTCHAR quotedblbase
ENCODING 8222
SWIDTH 677 0
DWIDTH 17 0
BBX 15 11 1 -7
BITMAP
0C08
3C7C
FCFC
FEFC
3E7E
3C3C
3838
7070
60E0
C0C0
4000
ENDCHAR
STARTCHAR dagger
ENCODING 8224
SWIDTH 656 0
DWIDTH 16 0
BBX 15 28 1 -6
BITMAP
0380
0F80
0F80
0F80
0380
0380
0380
633C
FFFE
FFFC
FB1C
0398
0380
0780
07C0
07C0
0780
0780
0780
0780
0780
0380
0380
0300
0300
0300
0300
0100
ENDCHAR
STARTCHAR daggerdbl
ENCODING 8225
SWIDTH 661 0
DWIDTH 17 0
BBX 15 28 1 -6
BITMAP
0380
0F80
0F80
0F80
0380
0380
0380
633C
FFFE
FFFC
FB9C
0398
0380
07C0
0780
0780
0780
7338
FFFE
FFFE
FB1C
031C
0380
0380
07C0
07E0
03E0
0380
ENDCHAR
STARTCHAR bullet
ENCODING 8226
SWIDTH 607 0
DWIDTH 15 0
BBX 11 10 1 2
BITMAP
0F00
3FC0
7FC0
FFE0
FFE0
FFE0
FFE0
FFC0
7F80
3F00
ENDCHAR
STARTCHAR ellipsis
ENCODING 8230
SWIDTH 1350 0
DWIDTH 34 0
BBX 26 5 4 0
BITMAP
700E0380
F81E07C0
F83F07C0
F83E07C0
F01E0780
ENDCHAR
STARTCHAR perthousand
ENCODING 8240
SWIDTH 1742 0
DWIDTH 44 0
BBX 41 25 1 -3
BITMAP
07C001800000
1FF003800000
78F807000000
70780E000000
F0381C000000
F03818000000
F03830000000
787060000000
7FE0C0000000
3FC180000000
000300000000
000600000000
000C00000000
001800000000
003000000000
0060FE00FE00
00C1FF83FF00
018387870780
030703C70780
060703CF0380
0C0703CF0380
1807838F0380
3007C7078700
6003FE03FE00
0000F801F800
ENDCHAR
STARTCHAR minute
ENCODING 8242
SWIDTH 458 0
DWIDTH 11 0
BBX 10 8 1 12
BITMAP
0F80
1FC0
1F00
3E00
3C00
7800
7000
C000
ENDCHAR
STARTCHAR second
ENCODING 8243
SWIDTH 764 0
DWIDTH 19 0
BBX 17 8 1 12
BITMAP
0F8F80
1FDF80
1F1F00
3E3E00
3C7C00
787000
70E000
C0C000
ENDCHAR
STARTCHAR uni2034
ENCODING 8244
SWIDTH 1070 0
DWIDTH 27 0
BBX 25 8 1 12
BITMAP
0F8F9F00
1FDF9F80
1F1F3F00
3E3E3E00
3C7C7800
78707000
70E0E000
C0C1C000
ENDCHAR
STARTCHAR guilsinglleft
ENCODING 8249
SWIDTH 440 0
DWIDTH 11 0
BBX 8 12 1 1
BITMAP
01
07
0F
1E
3C
7C
FC
7C
1E
0F
07
03
ENDCHAR
STARTCHAR guilsinglright
ENCODING 8250
SWIDTH 440 0
DWIDTH 11 0
BBX 8 12 2 1
BITMAP
80
E0
F0
78
7C
3E
3F
3E
78
70
E0
C0
ENDCHAR
STARTCHAR asterism
ENCODING 8258
SWIDTH 1598 0
DWIDTH 40 0
BBX 36 32 2 -7
BITMAP
00079C0000
0007BE0000
00073E0000
0007300000
0019A00000
0018AF8000
003FBFC000
003F618000
000CD18000
0000DC0000
00078E0000
00079C0000
0007BC0000
0002100000
0000000000
0000000000
0000000000
0000000000
1E7000F380
1CF000E780
18F800C7C0
1CC000E600
4688023440
E23E0711F0
FEFE07F7F0
F88E07C470
62CC031660
0670003380
3E7001F380
3E7001F380
1EF000F780
0800004000
ENDCHAR
STARTCHAR fraction
ENCODING 8260
SWIDTH 241 0
DWIDTH 6 0
BBX 16 30 -5 -5
BITMAP
0001
0003
0003
0006
0004
000C
0008
0018
0030
0030
0060
0060
00C0
00C0
0180
0180
0300
0300
0600
0600
0C00
0800
1800
1000
3000
6000
6000
C000
C000
8000
ENDCHAR
STARTCHAR uni2051
ENCODING 8273
SWIDTH 698 0
DWIDTH 17 0
BBX 16 32 1 -7
BITMAP
1E70
1EF8
1CF8
1CC0
6688
62BE
FEFF
FD8E
33C6
0270
1E30
1E70
1EF0
0840
0000
0000
0000
0000
1E70
1EF8
1CF8
1CC0
6688
E2BE
FEFE
FD8E
3346
0270
1E30
1E70
1EF0
0800
ENDCHAR
STARTCHAR uni2055
ENCODING 8277
SWIDTH 747 0
DWIDTH 19 0
BBX 14 15 3 0
BITMAP
0700
0780
0780
0738
E37C
33FC
0EF0
0000
3EF0
FBFC
FB7C
F738
0780
0780
0780
ENDCHAR
STARTCHAR uni2057
ENCODING 8279
SWIDTH 1377 0
DWIDTH 34 0
BBX 32 8 1 12
BITMAP
0F8F9F1F
1FDF9FBF
1F1F3F3E
3E3E3E7C
3C7C7878
787070F0
70E0E0E0
C0C1C180
ENDCHAR
STARTCHAR zerosuperior
ENCODING 8304
SWIDTH 647 0
DWIDTH 16 0
BBX 14 11 1 10
BITMAP
0380
0FF0
3DF8
7078
703C
F03C
F03C
7838
7EF0
3FE0
0F00
ENDCHAR
STARTCHAR foursuperior
ENCODING 8308
SWIDTH 584 0
DWIDTH 15 0
BBX 13 14 1 7
BITMAP
0060
01E0
03E0
07E0
0DE0
19E0
31E0
71E0
FFF8
FFF8
01E0
01E0
01E0
01C0
ENDCHAR
STARTCHAR fivesuperior
ENCODING 8309
SWIDTH 526 0
DWIDTH 13 0
BBX 10 16 1 6
BITMAP
00C0
00C0
3FC0
7FC0
60C0
6000
7C00
7F00
1F80
07C0
03C0
03C0
0380
0F00
7C00
E000
ENDCHAR
STARTCHAR sixsuperior
ENCODING 8310
SWIDTH 606 0
DWIDTH 15 0
BBX 12 16 2 10
BITMAP
0040
01C0
0780
1E00
3C00
7800
7380
F3E0
E1F0
E0F0
E0F0
F0F0
F0F0
FDE0
7F80
1E00
ENDCHAR
STARTCHAR sevensuperior
ENCODING 8311
SWIDTH 545 0
DWIDTH 14 0
BBX 11 15 2 6
BITMAP
FFE0
FFE0
FFE0
C0C0
8180
0180
0300
0600
0600
0C00
1C00
1800
3000
7000
6000
ENDCHAR
STARTCHAR eightsuperior
ENCODING 8312
SWIDTH 601 0
DWIDTH 15 0
BBX 13 16 1 10
BITMAP
0780
1FE0
38F0
78F0
78F0
7CE0
3FC0
0FC0
3FE0
71F0
F0F8
F078
F078
7870
3FE0
0F80
ENDCHAR
STARTCHAR ninesuperior
ENCODING 8313
SWIDTH 596 0
DWIDTH 15 0
BBX 13 15 1 6
BITMAP
0380
1FE0
3FF0
70F0
7078
F078
F078
7878
3E70
1EF0
01E0
03C0
0700
1E00
1800
ENDCHAR
STARTCHAR zeroinferior
ENCODING 8320
SWIDTH 647 0
DWIDTH 16 0
BBX 14 10 1 -2
BITMAP
0FE0
1FF8
3878
703C
F03C
F03C
7838
7C70
3FE0
1F80
ENDCHAR
STARTCHAR oneinferior
ENCODING 8321
SWIDTH 396 0
DWIDTH 10 0
BBX 8 10 1 -2
BITMAP
FF
7E
3C
3C
3C
3C
3C
3C
7F
FE
ENDCHAR
STARTCHAR twoinferior
ENCODING 8322
SWIDTH 539 0
DWIDTH 13 0
BBX 11 10 1 -2
BITMAP
3F80
7FC0
E7C0
03C0
0780
0E00
1C60
3FE0
FFE0
FFE0
ENDCHAR
STARTCHAR threeinferior
ENCODING 8323
SWIDTH 461 0
DWIDTH 12 0
BBX 9 14 1 -6
BITMAP
7E00
FF00
8F80
0700
0E00
0C00
1F00
0F80
0780
0380
0780
0F00
7C00
F000
ENDCHAR
STARTCHAR fourinferior
ENCODING 8324
SWIDTH 584 0
DWIDTH 15 0
BBX 14 15 1 -6
BITMAP
0020
01E0
03E0
07E0
0FE0
1DE0
39E0
71E0
FFFC
FFF8
01E0
01E0
01E0
01E0
0100
ENDCHAR
STARTCHAR fiveinferior
ENCODING 8325
SWIDTH 526 0
DWIDTH 13 0
BBX 10 17 1 -7
BITMAP
0080
00C0
3FC0
3FC0
7FC0
6000
7800
7E00
3F80
0FC0
03C0
03C0
0380
0700
3E00
F000
8000
ENDCHAR
STARTCHAR sixinferior
ENCODING 8326
SWIDTH 606 0
DWIDTH 15 0
BBX 12 15 2 -2
BITMAP
00C0
0380
0F00
1C00
3800
7300
F7C0
E1E0
E0F0
E0F0
E0F0
F0F0
F8E0
7FC0
3F00
ENDCHAR
STARTCHAR seveninferior
ENCODING 8327
SWIDTH 545 0
DWIDTH 14 0
BBX 11 15 2 -7
BITMAP
FFE0
FFE0
FFC0
81C0
0180
0300
0300
0600
0C00
0C00
1800
3000
3000
6000
2000
ENDCHAR
STARTCHAR eightinferior
ENCODING 8328
SWIDTH 601 0
DWIDTH 15 0
BBX 13 15 1 -2
BITMAP
0FC0
3DE0
78F0
78F0
7CE0
3EC0
1F80
1FE0
33F0
70F8
F078
F078
F870
7FE0
1FC0
ENDCHAR
STARTCHAR nineinferior
ENCODING 8329
SWIDTH 596 0
DWIDTH 15 0
BBX 13 14 1 -6
BITMAP
0FC0
3FF0
70F0
7078
F078
F078
7878
7C70
3EF0
04E0
03C0
0780
0E00
3800
ENDCHAR
STARTCHAR Euro
ENCODING 8364
SWIDTH 911 0
DWIDTH 23 0
BBX 21 20 0 0
BITMAP
001FE0
007FF8
00FFF8
01E0F8
03C078
078038
0F8000
7FFF00
FFFF00
1F0000
1F0000
7FFC00
FFFC00
0F8000
0F8000
0FC018
07E078
03FFF0
01FFE0
00FFC0
ENDCHAR
STARTCHAR uni20B9
ENCODING 8377
SWIDTH 692 0
DWIDTH 17 0
BBX 15 20 1 0
BITMAP
7FFE
FFFE
07E0
03E0
01F0
FFFE
FFFE
01E0
01E0
7F80
FE00
0F00
07E0
03E0
03F0
01F0
01F0
00F8
00FE
007C
ENDCHAR
STARTCHAR uni2113
ENCODING 8467
SWIDTH 630 0
DWIDTH 16 0
BBX 15 22 0 0
BITMAP
00F0
03F8
07FC
0F3E
1E3E
1E3C
1E3C
1E3C
1E78
1EF0
1FE0
1FC0
1F80
3E00
FE00
DE00
1E00
1E00
1E00
1FF0
0FF0
07C0
ENDCHAR
STARTCHAR uni2116
ENCODING 8470
SWIDTH 1588 0
DWIDTH 40 0
BBX 38 20 1 0
BITMAP
7803F80FC0
FC07F83FE0
7E03F079F0
1F00E0F0F0
1F80E0F0F8
1FC0E0F078
1FC0E0F0F0
1FE0E0F0F0
1BF0E0FCE0
19F8E07FC0
18FCE01F00
187EE00000
183FE00000
181FE00000
180FE1FFFC
180FE00000
1807E00000
7C03E00000
FF01E1FFFC
FF00E1FFF8
ENDCHAR
STARTCHAR uni2117
ENCODING 8471
SWIDTH 1028 0
DWIDTH 26 0
BBX 23 20 1 0
BITMAP
007F80
01FFE0
07FFF0
0F01F8
1C007C
39FF3C
39F79E
70E39E
70E39E
70E79E
F0EF0E
F0E00E
78E01E
79F81C
79F81C
3C0038
3F0070
1FC3E0
0FFF80
03FE00
ENDCHAR
STARTCHAR trademark
ENCODING 8482
SWIDTH 1042 0
DWIDTH 26 0
BBX 24 8 1 12
BITMAP
FFDF1F
FFDF1F
CCCF3E
8C4BAE
0C0BEE
0C09EE
0C09CE
3F1DDF
ENDCHAR
STARTCHAR Ohm
ENCODING 8486
SWIDTH 967 0
DWIDTH 24 0
BBX 22 20 1 0
BITMAP
00FF00
03FFC0
0FFFF0
1F03F8
3C01F8
7C00FC
78007C
F8007C
FC0078
7C00F8
7E00F0
3F03E0
1FCFC0
0FCF00
23CF08
63CF18
73CF38
7BCF78
7FCFF8
7FCFF8
ENDCHAR
STARTCHAR estimated
ENCODING 8494
SWIDTH 972 0
DWIDTH 24 0
BBX 22 20 1 0
BITMAP
01FE00
07FF80
0F83E0
1C00F0
3C00F0
7C00F8
7C00F8
7C00FC
7C00FC
FFFFFC
FFFFFC
7C0000
7C0000
7C0000
7C0000
3C0070
3C00F0
1E01E0
0FFFC0
03FF00
ENDCHAR
STARTCHAR uni2153
ENCODING 8531
SWIDTH 1128 0
DWIDTH 28 0
BBX 25 31 2 -6
BITMAP
00003000
00003000
00006000
00006000
FE00C000
FE00C000
3C018000
38018000
38030000
38030000
38060000
38040000
780C0000
FE080000
FE180000
00300000
00300000
00607E00
0060FF00
00C08F00
00C00700
01800E00
01801800
03001F00
03000F80
06000780
04000780
0C000700
08000E00
08007C00
0001E000
ENDCHAR
STARTCHAR uni2154
ENCODING 8532
SWIDTH 1240 0
DWIDTH 31 0
BBX 29 32 1 -7
BITMAP
00000300
00000300
00000600
00000400
1E000C00
7F800800
FFC01800
C3C03000
03803000
07006000
0E206000
1860C000
7FE0C000
FFE18000
FFE18000
00030000
00030000
000607E0
00061FF0
000C18F0
000800F0
001800E0
00100180
003003E0
006001F8
00600078
00C00078
00C00070
018000E0
00800780
00001E00
00001000
ENDCHAR
STARTCHAR oneeighth
ENCODING 8539
SWIDTH 1269 0
DWIDTH 32 0
BBX 29 30 2 -5
BITMAP
00003000
00003000
00006000
00006000
FE00C000
FE00C000
3C018000
38018000
38030000
38030000
38060000
38040000
780C1FC0
FE083FE0
FE1870F0
003078E0
003078E0
00603FC0
00601F80
00C01FC0
00C073F0
0180F0F8
0180E078
0300F078
0300F870
06007FE0
04001F80
0C000000
08000000
08000000
ENDCHAR
STARTCHAR threeeighths
ENCODING 8540
SWIDTH 1302 0
DWIDTH 33 0
BBX 31 30 1 -5
BITMAP
00000C00
00000C00
00001800
00001800
38003000
7F002000
FF006000
07004000
0700C000
0E018000
1E018000
1F030000
078307F0
03860FF8
03861C38
070C1C38
1E0C1E38
F8181F70
E01807E0
00300FF0
00301CFC
0060383C
0040381E
00C03C1C
00803C1C
01801FF8
030007E0
03000000
06000000
02000000
ENDCHAR
STARTCHAR fiveeighths
ENCODING 8541
SWIDTH 1368 0
DWIDTH 34 0
BBX 32 30 1 -5
BITMAP
00000200
00000600
00000600
00C00C00
00C00C00
3FC01800
7FC01800
60C03000
60003000
7C006000
7F004000
1F80C000
07C081FC
03C183FE
03C3071E
03830F0E
0F060F8C
7C0607D8
E00C03F0
000C03FC
0018073E
00180E1F
00301E0F
00301E0F
00600F0E
00400FFC
00C003F8
00800000
01800000
01000000
ENDCHAR
STARTCHAR seveneighths
ENCODING 8542
SWIDTH 1310 0
DWIDTH 33 0
BBX 30 30 2 -5
BITMAP
00001800
00001800
00003000
00003000
FFE06000
FFE06000
FFE0C000
C0C0C000
81818000
01818000
03030000
06020000
06060FE0
0C041FF0
1C0C3C78
18183C70
30183C70
70301FE0
60300FC0
00600FE0
006039F8
00C0787C
00C0703C
0180783C
01807C38
03003FF0
03000FC0
06000000
04000000
04000000
ENDCHAR
STARTCHAR Oneroman
ENCODING 8544
SWIDTH 507 0
DWIDTH 13 0
BBX 9 14 2 0
BITMAP
FF80
7F00
3E00
3C00
3C00
3C00
3C00
3C00
3C00
3C00
3C00
7C00
FF80
FF80
ENDCHAR
STARTCHAR Tworoman
ENCODING 8545
SWIDTH 1014 0
DWIDTH 25 0
BBX 22 14 2 0
BITMAP
FF8FFC
7F07F8
3E01F0
3C01E0
3C01E0
3C01E0
3C01E0
3C01E0
3C01E0
3C01E0
3C01E0
7C03E0
FF87FC
FF8FF8
ENDCHAR
STARTCHAR Threeroman
ENCODING 8546
SWIDTH 1521 0
DWIDTH 38 0
BBX 35 14 2 0
BITMAP
FF8FFC7FC0
7F07F83F80
3E01F00F00
3C01E00F00
3C01E00F00
3C01E00F00
3C01E00F00
3C01E00F00
3C01E00F00
3C01E00F00
3C01E00F00
7C03E01F00
FF87FC7FE0
FF8FF87FC0
ENDCHAR
STARTCHAR Fourroman
ENCODING 8547
SWIDTH 1342 0
DWIDTH 34 0
BBX 32 14 2 0
BITMAP
FF9FF9FF
7F1FF1FE
3E07C038
3C03C030
3C03E030
3C01E060
3C01F060
3C00F0C0
3C00F8C0
3C007980
3C007F80
7C003F00
FF803F00
FF801C00
ENDCHAR
STARTCHAR Fiveroman
ENCODING 8548
SWIDTH 835 0
DWIDTH 21 0
BBX 21 14 0 0
BITMAP
FFCFF8
7F87F0
3E01E0
1F01C0
1F0180
0F8380
0F8300
07C700
07C600
03EE00
03EC00
01FC00
01F800
00F000
ENDCHAR
STARTCHAR Sixroman
ENCODING 8549
SWIDTH 1342 0
DWIDTH 34 0
BBX 32 14 0 0
BITMAP
FFCFF9FF
7F87F0FE
3E01E07C
1F01C078
1F018078
0F838078
0F830078
07C70078
07C60078
03EE0078
03EC0078
01FC00F8
01F801FF
00F001FF
ENDCHAR
STARTCHAR Sevenroman
ENCODING 8550
SWIDTH 1849 0
DWIDTH 46 0
BBX 45 14 0 0
BITMAP
FFCFF9FF1FF0
7F87F0FE0FF0
3E01E07C03C0
1F01C07803C0
1F01807803C0
0F83807803C0
0F83007803C0
07C7007803C0
07C6007803C0
03EE007803C0
03EC007803C0
01FC00F807C0
01F801FF1FF8
00F001FF1FF0
ENDCHAR
STARTCHAR Eightroman
ENCODING 8551
SWIDTH 2356 0
DWIDTH 59 0
BBX 57 14 0 0
BITMAP
FFCFF9FF1FF0FF80
7F87F0FE0FF07F00
3E01E07C03C03E00
1F01C07803C03E00
1F01807803C03E00
0F83807803C03E00
0F83007803C03E00
07C7007803C03E00
07C6007803C03E00
03EE007803C03E00
03EC007803C03E00
01FC00F807C07E00
01F801FF1FF8FF80
00F001FF1FF0FF80
ENDCHAR
STARTCHAR Nineroman
ENCODING 8552
SWIDTH 1355 0
DWIDTH 34 0
BBX 32 14 2 0
BITMAP
FF9FF3FE
7F1FE1FC
3E07E078
3C01F8E0
3C00FDC0
3C007F80
3C003F00
3C003F80
3C007FC0
3C00E7E0
3C03C1F0
7C07C0FC
FF9FF3FF
FF9FE3FE
ENDCHAR
STARTCHAR Tenroman
ENCODING 8553
SWIDTH 848 0
DWIDTH 21 0
BBX 21 14 0 0
BITMAP
7FCFF0
7F8FE0
1F83C0
0FC780
07EE00
03FC00
01F800
00FC00
03FF00
071F80
0E0FC0
3F07E0
7F8FF8
FF9FF0
ENDCHAR
STARTCHAR Elevenroman
ENCODING 8554
SWIDTH 1342 0
DWIDTH 34 0
BBX 32 14 0 0
BITMAP
FFCFF9FF
7F87F0FE
3E01E07C
1F01C078
1F018078
0F838078
0F830078
07C70078
07C60078
03EE0078
03EC0078
01FC00F8
01F801FF
00F001FF
ENDCHAR
STARTCHAR Twelveroman
ENCODING 8555
SWIDTH 1862 0
DWIDTH 47 0
BBX 45 14 0 0
BITMAP
7FCFF1FF0FF8
7F8FE0FE07F0
1F83C07C03E0
0FC7807C03C0
07EE007C03C0
03FC007C03C0
01F8007C03C0
00FC007C03C0
03FF007C03C0
071F807C03C0
0E0FC07C03C0
3F07E0FC07C0
7F8FF9FF0FF8
FF9FF1FF0FF8
ENDCHAR
STARTCHAR uni216C
ENCODING 8556
SWIDTH 748 0
DWIDTH 19 0
BBX 17 14 1 0
BITMAP
FF8000
7F8000
1E0000
1E0000
1E0000
1E0000
1E0000
1E0180
1E0380
1E0780
1E0780
3E0F80
FFFF80
FFFF80
ENDCHAR
STARTCHAR uni216D
ENCODING 8557
SWIDTH 797 0
DWIDTH 20 0
BBX 18 15 1 0
BITMAP
007800
03FF80
0FFF80
1F1F80
3C0780
7C0380
780180
F80000
FC0000
7C0000
7C0080
7F03C0
3FFF80
1FFE00
07FC00
ENDCHAR
STARTCHAR uni216E
ENCODING 8558
SWIDTH 880 0
DWIDTH 22 0
BBX 20 15 1 0
BITMAP
07F800
FFFF00
7FFF80
1E07C0
1E07E0
1E03E0
1E03F0
1E01F0
1E01E0
1E01E0
1E03E0
1E07C0
3E0F80
FFFE00
FFF800
ENDCHAR
STARTCHAR uni216F
ENCODING 8559
SWIDTH 1022 0
DWIDTH 26 0
BBX 24 14 1 0
BITMAP
FF00FE
7F81FE
1F81F8
1FC3F8
1FC3F8
1BC7F8
1BE6F8
1BEEF8
19FCF8
19FCF8
18F8F8
38F8F8
FE73FF
FE73FE
ENDCHAR
STARTCHAR arrowleft
ENCODING 8592
SWIDTH 762 0
DWIDTH 19 0
BBX 17 12 1 2
BITMAP
010000
030000
0F0180
1E0780
3E1E00
FFFC00
FFFC00
7E3E00
1E0F00
0E0380
070000
030000
ENDCHAR
STARTCHAR arrowup
ENCODING 8593
SWIDTH 584 0
DWIDTH 15 0
BBX 13 18 1 -1
BITMAP
0200
0200
0700
0F00
0F80
1FC0
3FE0
7FF0
E638
0600
0700
0700
0F00
0F80
0F80
1DC0
38C0
3040
ENDCHAR
STARTCHAR arrowright
ENCODING 8594
SWIDTH 762 0
DWIDTH 19 0
BBX 18 12 1 2
BITMAP
004000
006000
C07000
F03C00
7C3E00
1FFF00
1FFFC0
3F3F00
783E00
E03800
007000
006000
ENDCHAR
STARTCHAR arrowdown
ENCODING 8595
SWIDTH 584 0
DWIDTH 15 0
BBX 12 17 1 -1
BITMAP
30E0
39C0
1D80
0F80
0F00
0F00
0700
0600
4630
F6F0
7FE0
3FC0
1F80
0F80
0F00
0600
0200
ENDCHAR
STARTCHAR uni2194
ENCODING 8596
SWIDTH 1151 0
DWIDTH 29 0
BBX 27 12 1 2
BITMAP
01001000
03001800
0F019C00
1E078F00
3E1E0F80
FFFFFFC0
FFFFFFE0
7E0F8F80
1E3C0F00
0E301E00
07201800
03001000
ENDCHAR
STARTCHAR arrowupdn
ENCODING 8597
SWIDTH 584 0
DWIDTH 15 0
BBX 12 28 1 -6
BITMAP
0200
0200
0700
0F80
1F80
1FC0
3FE0
7FF0
6230
0200
0300
3300
1B00
1F80
0F80
0FC0
06E0
0640
0600
4600
F270
7FE0
3FE0
1FC0
0F80
0700
0700
0200
ENDCHAR
STARTCHAR uni2196
ENCODING 8598
SWIDTH 665 0
DWIDTH 17 0
BBX 15 15 1 -1
BITMAP
F000
7FC0
7FC0
7F00
7C00
7E00
7380
33E0
31FE
21FE
00C0
00C0
00E0
0060
0060
ENDCHAR
STARTCHAR uni2197
ENCODING 8599
SWIDTH 666 0
DWIDTH 17 0
BBX 15 15 0 -1
BITMAP
0006
07FE
03FE
00FE
007E
00FC
01DC
078C
7F8C
FF0C
0700
0700
0600
0600
0600
ENDCHAR
STARTCHAR uni2198
ENCODING 8600
SWIDTH 666 0
DWIDTH 17 0
BBX 15 15 0 0
BITMAP
0200
0600
0600
0600
0700
7700
FF0C
1F8C
07DC
01DC
007C
007C
03FE
07FE
00FE
ENDCHAR
STARTCHAR uni2199
ENCODING 8601
SWIDTH 666 0
DWIDTH 17 0
BBX 15 15 1 0
BITMAP
0040
0060
00E0
00C0
00C0
41FE
61FE
73F0
73C0
7F00
7C00
7E00
7FC0
7FC0
FC00
ENDCHAR
STARTCHAR partialdiff
ENCODING 8706
SWIDTH 671 0
DWIDTH 17 0
BBX 15 22 1 0
BITMAP
3800
FE00
FF80
1FC0
07E0
03F0
01F0
00F8
01FC
0FFC
1FFC
3C7E
783E
783E
F83E
F83E
F83C
F83C
7C38
7FF0
3FE0
1FC0
ENDCHAR
STARTCHAR increment
ENCODING 8710
SWIDTH 872 0
DWIDTH 22 0
BBX 20 20 1 0
BITMAP
003000
01F000
01F800
03F800
037C00
037C00
073E00
063E00
0E1E00
0C1F00
0C1F00
180F80
180F80
380780
3007C0
7007C0
6003E0
6003E0
FFFFE0
FFFFF0
ENDCHAR
STARTCHAR product
ENCODING 8719
SWIDTH 978 0
DWIDTH 24 0
BBX 22 22 1 -2
BITMAP
7FFFFC
FFFFFC
3E01F8
1E01F0
1E01F0
1E01F0
1E01F0
1E01F0
1E01F0
1E01F0
1E01F0
1E01F0
1E01F0
1E01F0
1E01F0
1E01F0
1E01F0
1E01F0
1E01F0
3E01F0
7F83F8
FFC7FC
ENDCHAR
STARTCHAR summation
ENCODING 8721
SWIDTH 783 0
DWIDTH 20 0
BBX 17 23 1 -3
BITMAP
7FFF80
7FFF80
7C0F80
3E0780
3F0380
1F0380
0F8100
07C000
07E000
03E000
01F000
00F800
01F000
03E000
07C000
0FC100
1F8180
1F0380
3E0780
7C0780
F80F80
FFFF80
FFFF80
ENDCHAR
STARTCHAR minus
ENCODING 8722
SWIDTH 545 0
DWIDTH 14 0
BBX 12 2 1 7
BITMAP
FFF0
FFF0
ENDCHAR
STARTCHAR divisionslash
ENCODING 8725
SWIDTH 355 0
DWIDTH 9 0
BBX 9 27 0 -3
BITMAP
0100
0380
0300
0300
0300
0300
0600
0600
0600
0600
0C00
0C00
0C00
0C00
1800
1800
1800
1800
3000
3000
3000
3000
6000
6000
6000
6000
C000
ENDCHAR
STARTCHAR bulletoperator
ENCODING 8729
SWIDTH 330 0
DWIDTH 8 0
BBX 6 5 1 5
BITMAP
78
7C
FC
78
30
ENDCHAR
STARTCHAR radical
ENCODING 8730
SWIDTH 657 0
DWIDTH 16 0
BBX 22 26 1 0
BITMAP
00001C
000018
000038
000030
000030
000070
000060
0000E0
0000C0
0000C0
0001C0
000180
000380
000300
000300
000600
000600
000E00
FF8C00
FF9C00
079800
07D800
03F800
03F000
03F000
01C000
ENDCHAR
STARTCHAR infinity
ENCODING 8734
SWIDTH 1032 0
DWIDTH 26 0
BBX 23 10 1 3
BITMAP
03C0F0
0FF1FC
3FF3FE
78FE3E
787C1E
F87E1E
F83E1E
7CFFBC
7FCFF8
3F07E0
ENDCHAR
STARTCHAR integral
ENCODING 8747
SWIDTH 506 0
DWIDTH 13 0
BBX 14 29 -1 -7
BITMAP
007C
00FC
01FC
03CC
0384
0780
0780
0780
0780
0780
0780
0780
0780
0780
0780
0780
0780
0780
0780
0780
0780
0780
0780
C780
C780
E700
FE00
FC00
2000
ENDCHAR
STARTCHAR approxequal
ENCODING 8776
SWIDTH 615 0
DWIDTH 15 0
BBX 13 9 1 3
BITMAP
3C00
6F08
C3F8
00F0
3800
7E08
C718
81F0
0060
ENDCHAR
STARTCHAR notequal
ENCODING 8800
SWIDTH 545 0
DWIDTH 14 0
BBX 12 15 1 0
BITMAP
00C0
00C0
0180
0180
FFF0
FFF0
0600
0600
0C00
FFF0
1800
1800
3000
2000
2000
ENDCHAR
STARTCHAR lessequal
ENCODING 8804
SWIDTH 525 0
DWIDTH 13 0
BBX 11 16 1 -2
BITMAP
00C0
01C0
0700
0E00
3800
7000
FC00
3E00
1F00
0FC0
03C0
0100
0000
0000
0000
FFE0
ENDCHAR
STARTCHAR greaterequal
ENCODING 8805
SWIDTH 525 0
DWIDTH 13 0
BBX 11 16 1 -2
BITMAP
1000
3800
7C00
3F00
0F80
07C0
03E0
0180
0700
0C00
3800
6000
0000
0000
0000
FFE0
ENDCHAR
STARTCHAR lozenge
ENCODING 9674
SWIDTH 629 0
DWIDTH 16 0
BBX 13 22 1 0
BITMAP
0380
07C0
0FC0
0FE0
1FE0
19F0
39F0
30F0
30F8
70F8
7078
F878
F838
7C30
7C70
3C60
3E60
1EC0
1FC0
1FC0
0F80
0F00
ENDCHAR
STARTCHAR dottedcircle
ENCODING 9676
SWIDTH 1144 0
DWIDTH 29 0
BBX 21 20 4 0
BITMAP
007000
00F000
0CF180
1C63C0
3C03C0
1C0380
000000
000000
600030
F00078
F00078
E00070
000000
000000
1C01C0
1C03C0
1C23C0
1C7180
00F000
007000
ENDCHAR
STARTCHAR uni2619
ENCODING 9753
SWIDTH 964 0
DWIDTH 24 0
BBX 22 19 1 0
BITMAP
0000F8
0001FC
00031C
00031C
00C31C
01E398
03F230
C3F0E0
E7F398
E7E63C
CFE07C
CFCC0C
5FFE0C
7FFF08
3FFF38
3FFF70
1FFF70
0FFE78
03FC70
ENDCHAR
STARTCHAR uni261A
ENCODING 9754
SWIDTH 1787 0
DWIDTH 45 0
BBX 40 21 2 -4
BITMAP
0000000004
000000000E
0000F8003F
000FFF807F
0FF7FFE0FE
7FDFFFF9FC
FFBFFFFBDC
FFBFFFFB7C
000E1FF8FE
003FC7F9FF
003F987807
003E6FF8FE
0007F7F9FC
000FE3F87C
00079DFBDC
0000FDFBFE
0000FBE1FE
00004000FF
000000003E
000000001E
000000000C
ENDCHAR
STARTCHAR uni261B
ENCODING 9755
SWIDTH 1787 0
DWIDTH 45 0
BBX 40 21 3 -4
BITMAP
2000000000
7000000000
F8001F0000
FE01FFB000
7F07FFEFF0
7F9FFFF3FE
3B9FFFFDFF
3C9FFFF9FF
7F1FFA6000
FF9FE7FC00
E01E1BFC00
7F1FF47800
7F9FCFE000
3C1FAFE000
3F9FB9E000
7F9FBE0000
FF8F9F0000
FE00020000
FC00000000
7800000000
3000000000
ENDCHAR
STARTCHAR pointingindexleftwhite
ENCODING 9756
SWIDTH 1787 0
DWIDTH 45 0
BBX 40 21 2 -4
BITMAP
0000000004
000000000E
0000F80037
003BFF8067
1FF607E0C6
700C00F90C
C3A1E01E2C
FFBFF006CC
000678078E
0020BC0606
003F8E07FF
003C238706
000070060C
000FE0078C
00078C1E2C
0000FCFF8E
0001FBE1C6
00004000E7
000000007E
000000001C
000000000C
ENDCHAR
STARTCHAR pointingindexupwhite
ENCODING 9757
SWIDTH 877 0
DWIDTH 22 0
BBX 16 30 3 -6
BITMAP
0030
0078
0068
0068
006C
0064
0064
0074
0024
0104
03B4
0364
0B6A
1B6C
1B66
5922
F933
CCF3
4CF3
65E2
71C6
3306
4306
4206
620C
640C
6018
3018
3FF0
3FF0
ENDCHAR
STARTCHAR pointingindexrightwhite
ENCODING 9758
SWIDTH 1787 0
DWIDTH 45 0
BBX 40 21 3 -4
BITMAP
2000000000
7000000000
C8001F0000
E601FDBC00
6307C0CFF0
719E00300E
36F80F0DC3
23601FFBFF
61E01E6000
C0E03D0C00
E3E0F3FC00
60E3807800
70E00E0000
33E017E000
34F821E000
61FF3F0000
E78F9F0000
EE00020000
FC00000000
7800000000
3000000000
ENDCHAR
STARTCHAR pointingindexdownwhite
ENCODING 9759
SWIDTH 877 0
DWIDTH 22 0
BBX 16 31 3 -7
BITMAP
0FF8
0FFC
180C
180C
3006
3006
7046
6042
60C2
618C
438E
CFA6
CF72
CE37
CD9E
4498
66D8
76D8
56D0
64C0
2DC0
2400
2C00
2C00
2400
2600
3600
1600
1600
1C00
0C00
ENDCHAR
STARTCHAR uni2638
ENCODING 9784
SWIDTH 1108 0
DWIDTH 28 0
BBX 23 20 3 0
BITMAP
01FC00
07FF80
1FFFC0
3F30F0
3E31F8
7E33B8
7B931C
79FE1E
F0FC1E
F067FE
FFC79E
7E7E1E
707F1E
78D99E
3998FC
1F987C
1F08F8
078BF8
03FFE0
00FFC0
ENDCHAR
STARTCHAR uni2761
ENCODING 10081
SWIDTH 1121 0
DWIDTH 28 0
BBX 27 27 0 -7
BITMAP
0003FFE0
000FFFE0
003C7FC0
0070CF80
00FF8F00
01C70F00
03830F00
07030F00
07030F00
0E3F0F00
0FFF0F00
0FC30F00
7E030F00
FE038F00
0E07CF00
0E1EFF00
0E387F00
0EF0EF00
0FE0CF00
07C1CF00
07818F00
03C38F00
03E30F00
01FF0F00
007FFFC0
003FFFE0
0001C000
ENDCHAR
STARTCHAR uni2766
ENCODING 10086
SWIDTH 1090 0
DWIDTH 27 0
BBX 25 22 1 0
BITMAP
001E0000
003F0000
00438000
60C1BF00
E0E12780
F0730380
7F720300
00040000
00080000
00100000
07C7C000
0FEFC000
0FCFC000
1FDFC000
1FFFC000
0FFF8000
0FFF0000
0FFE0000
07FC0000
03FCC000
01FF8000
00FF0000
ENDCHAR
STARTCHAR uni2767
ENCODING 10087
SWIDTH 987 0
DWIDTH 25 0
BBX 23 18 1 0
BITMAP
3F0000
630000
E38000
E18600
E11F00
781F82
7E1F8E
1F9F9E
079FCE
080FC4
08EFE4
19FFE4
71FFFC
61FFF8
E1FFF0
E1FFE0
F0FFC0
C07F80
ENDCHAR
STARTCHAR uniA8F2
ENCODING 43250
SWIDTH 1312 0
DWIDTH 33 0
BBX 17 11 9 13
BITMAP
030000
03C000
03C000
E3C400
F1CE00
F00F80
F01F80
783F00
3FFE00
0FFC00
00C000
ENDCHAR
STARTCHAR uniA8F3
ENCODING 43251
SWIDTH 1421 0
DWIDTH 36 0
BBX 29 33 9 -9
BITMAP
03000000
03C00000
03C00000
E3C40000
F1CE0000
F00F8000
F01F8000
787F0000
3FFE0000
0FFC0000
00C00000
00000000
00000000
00000000
00000000
0E000000
3FC00000
3FF00000
0FF80000
001C0000
00060000
00038000
0001C000
0000E000
00003000
00001800
00000E00
00000700
00000380
000000C0
00000070
00000038
00000010
ENDCHAR
STARTCHAR uniA8F4
ENCODING 43252
SWIDTH 1398 0
DWIDTH 35 0
BBX 19 37 9 -13
BITMAP
030000
03C000
03C000
E3C400
F1CE00
F00F80
F01F80
787F00
3FFE00
0FFC00
00C000
000000
000000
030000
03C000
03C000
E3C400
F0CE00
F00F80
F01F80
7C7F00
3FFE00
0FFC00
000000
000000
000000
7C0000
FF0000
7FC000
3FE000
007000
001C00
000E00
000700
000180
0000E0
000060
ENDCHAR
STARTCHAR uniA8F5
ENCODING 43253
SWIDTH 1312 0
DWIDTH 33 0
BBX 18 33 9 -9
BITMAP
030000
03C000
03C000
E3C400
F1CE00
F00F80
F01F80
783F00
3FFE00
0FFC00
00C000
000000
000000
000000
000000
000000
038000
3FE000
3FF000
3FF800
1C3C00
003C00
007C00
0E7C00
3FFC00
3FFC00
1FF800
0FF800
07FC00
01C600
000380
0001C0
0000C0
ENDCHAR
STARTCHAR uniA8F6
ENCODING 43254
SWIDTH 1312 0
DWIDTH 33 0
BBX 17 35 9 -11
BITMAP
030000
03C000
03C000
E3C400
F1CE00
F00F80
F01F80
783F00
3FFE00
0FFC00
00C000
000000
000000
000000
000000
000000
1FC000
1FF000
1FF800
0E7800
007C00
30FC00
79FC00
78F800
7C7C00
3C3E00
1E7E00
0FFE00
07FC00
03F800
00C000
007000
003800
001C00
000C00
ENDCHAR
STARTCHAR uniA8F7
ENCODING 43255
SWIDTH 1324 0
DWIDTH 33 0
BBX 19 31 7 -7
BITMAP
00C000
00F000
00F000
38F100
3C7380
3C03E0
3C07E0
1E0FC0
0FFF80
03FF00
003000
000000
000000
000000
000000
000000
00FF00
03FF80
07FFC0
07E000
07C000
038000
01C000
00E000
C07800
703C00
387C00
1FFC00
0FFC00
03F000
00C000
ENDCHAR
STARTCHAR uniA8F8
ENCODING 43256
SWIDTH 1083 0
DWIDTH 27 0
BBX 24 16 2 0
BITMAP
3C0000
7E0000
FF01F0
FF03FC
F807FE
F807CE
7F87CF
1FE7CF
3FE3CF
3F03DF
3E01FF
3E007F
1E00FF
0F87FE
07FFF8
00FFE0
ENDCHAR
STARTCHAR uniA8F9
ENCODING 43257
SWIDTH 970 0
DWIDTH 24 0
BBX 23 14 1 0
BITMAP
0007C0
000FF0
001FF8
001F38
3E0F3C
7F833C
7F803E
FC003E
F8007E
7800FC
7803FC
3E3FF8
0FFFE0
03FF80
ENDCHAR
STARTCHAR uniA8FA
ENCODING 43258
SWIDTH 0 0
DWIDTH 0 0
BBX 14 8 -11 19
BITMAP
8030
E07C
707C
1CF8
0FF8
03F0
00F0
0020
ENDCHAR
STARTCHAR uniA8FB
ENCODING 43259
SWIDTH 1031 0
DWIDTH 26 0
BBX 16 4 5 16
BITMAP
FFF8
FFFE
7FFF
3FFF
ENDCHAR
STARTCHAR fi
ENCODING 64257
SWIDTH 815 0
DWIDTH 20 0
BBX 19 22 1 0
BITMAP
01FE00
07FF80
0FFF80
0E1F80
1E0F00
1E0400
3E0000
3E0000
3E0380
FFFF80
FFFF80
3E1F80
3E0F80
3E0F80
3E0F80
3E0F80
3E0F80
3E0F80
3E0F80
7E0F80
FFCFE0
FFCFC0
ENDCHAR
STARTCHAR fl
ENCODING 64258
SWIDTH 815 0
DWIDTH 20 0
BBX 19 22 1 0
BITMAP
01FF80
03FF80
0FFF80
0E1F80
1E0F80
1E0F80
3E0F80
3E0F80
3E0F80
FFEF80
FFEF80
3E0F80
3E0F80
3E0F80
3E0F80
3E0F80
3E0F80
3E0F80
3E0F80
7E0F80
FFCFE0
FFCFC0
ENDCHAR
STARTCHAR .notdef
ENCODING -1
SWIDTH 1396 0
DWIDTH 35 0
BBX 31 31 2 -6
BITMAP
00010000
00038000
0007C000
000FE000
001FF000
003FF800
007FFC00
00FFFE00
01F83F00
03F01F80
07E70FC0
0FFF8FE0
1FFF8FF0
3FFFBFF8
7FFE7FFC
FFFC7FFE
7FFC7FFC
3FFC7FF8
1FFFFFF0
0FFFFFE0
07FC7FC0
03FC7F80
01F87F00
00FC7E00
007FFC00
003FF800
001FF000
000FE000
0007C000
00038000
00010000
ENDCHAR
STARTCHAR Iacute_J.loclNLD
ENCODING -1
SWIDTH 902 0
DWIDTH 23 0
BBX 22 34 1 -6
BITMAP
07C0FC
0FC0F8
0F01F0
1E01C0
180380
000000
000000
000000
7F9FF8
FF9FF8
3F87F0
1E03E0
1E03C0
1E03C0
1E03C0
1E03C0
1E03C0
1E03C0
1E03C0
1E03C0
1E03C0
1E03C0
1E03C0
1E03C0
1E03C0
7E03C0
FFC3C0
FF83C0
0003E0
0003C0
000780
000700
000E00
000C00
ENDCHAR
STARTCHAR a.ss01
ENCODING -1
SWIDTH 734 0
DWIDTH 18 0
BBX 17 14 1 0
BITMAP
03C600
0FFE00
1FFE00
3C7E00
783E00
783E00
783E00
F83E00
F83E00
7C3E00
7E3E00
7FFE00
3FFF80
1FBF00
ENDCHAR
STARTCHAR aacute.ss01
ENCODING -1
SWIDTH 734 0
DWIDTH 18 0
BBX 17 22 1 0
BITMAP
00F800
00FC00
01F000
03C000
038000
000000
000000
000000
03C600
0FFE00
1FFE00
3C7E00
783E00
783E00
783E00
F83E00
F83E00
7C3E00
7E3E00
7FFE00
3FFF80
1FBF00
ENDCHAR
STARTCHAR abreve.ss01
ENCODING -1
SWIDTH 734 0
DWIDTH 18 0
BBX 17 22 1 0
BITMAP
040400
0E3C00
1F7800
1FF000
0FE000
000000
000000
000000
03C600
0FFE00
1FFE00
3C7E00
783E00
783E00
783E00
F83E00
F83E00
7C3E00
7E3E00
7FFE00
3FFF80
1FBF00
ENDCHAR
STARTCHAR acircumflex.ss01
ENCODING -1
SWIDTH 734 0
DWIDTH 18 0
BBX 17 22 1 0
BITMAP
018000
07E000
0FF000
3CFC00
307C00
000000
000000
000000
03C600
0FFE00
1FFE00
3C7E00
783E00
783E00
783E00
F83E00
F83E00
7C3E00
7E3E00
7FFE00
3FFF80
1FBF00
ENDCHAR
STARTCHAR adieresis.ss01
ENCODING -1
SWIDTH 734 0
DWIDTH 18 0
BBX 17 21 1 0
BITMAP
1C3C00
3E7C00
3E7C00
3C3800
000000
000000
000000
03C600
0FFE00
1FFE00
3C7E00
783E00
783E00
783E00
F83E00
F83E00
7C3E00
7E3E00
7FFE00
3FFF80
1FBF00
ENDCHAR
STARTCHAR agrave.ss01
ENCODING -1
SWIDTH 734 0
DWIDTH 18 0
BBX 17 22 1 0
BITMAP
1F0000
3F0000
0F8000
03C000
01C000
000000
000000
000000
03C600
0FFE00
1FFE00
3C7E00
783E00
783E00
783E00
F83E00
F83E00
7C3E00
7E3E00
7FFE00
3FFF80
1FBF00
ENDCHAR
STARTCHAR amacron.ss01
ENCODING -1
SWIDTH 734 0
DWIDTH 18 0
BBX 17 20 1 0
BITMAP
3FFC00
3FFC00
000000
000000
000000
000000
03C600
0FFE00
1FFE00
3C7E00
783E00
783E00
783E00
F83E00
F83E00
7C3E00
7E3E00
7FFE00
3FFF80
1FBF00
ENDCHAR
STARTCHAR aogonek.ss01
ENCODING -1
SWIDTH 734 0
DWIDTH 18 0
BBX 17 20 1 -6
BITMAP
03C600
0FFE00
1FFE00
3C7E00
783E00
783E00
783E00
F83E00
F83E00
7C3E00
7E3E00
7FFE00
3FFF80
1FBF00
000700
000E00
001E00
001F00
001F00
001E00
ENDCHAR
STARTCHAR aring.ss01
ENCODING -1
SWIDTH 734 0
DWIDTH 18 0
BBX 17 22 1 0
BITMAP
03E000
06F000
0C7000
0E3000
0FE000
078000
000000
000000
03C600
0FFE00
1FFE00
3C7E00
783E00
783E00
783E00
F83E00
F83E00
7C3E00
7E3E00
7FFE00
3FFF80
1FBF00
ENDCHAR
STARTCHAR atilde.ss01
ENCODING -1
SWIDTH 734 0
DWIDTH 18 0
BBX 17 22 1 0
BITMAP
030000
0FDC00
1FF800
3BF000
00C000
000000
000000
000000
03C600
0FFE00
1FFE00
3C7E00
783E00
783E00
783E00
F83E00
F83E00
7C3E00
7E3E00
7FFE00
3FFF80
1FBF00
ENDCHAR
STARTCHAR ae.ss01
ENCODING -1
SWIDTH 991 0
DWIDTH 25 0
BBX 22 14 1 0
BITMAP
038CC0
0FFFF0
1FFFF8
3CFE7C
787C3C
787C3C
787FFC
F87FFC
F87C00
787C00
7C7E0C
7FFFFC
3FFFF8
1F7FE0
ENDCHAR
STARTCHAR g.ss02
ENCODING -1
SWIDTH 707 0
DWIDTH 18 0
BBX 15 21 1 -7
BITMAP
03F8
0FFE
1FFC
3C7C
7818
7838
F838
F878
7C78
7E7C
3FFC
1FBC
073E
0E1E
181E
381E
781C
7E38
7FF0
1FE0
0100
ENDCHAR
STARTCHAR gbreve.ss02
ENCODING -1
SWIDTH 707 0
DWIDTH 18 0
BBX 15 29 1 -7
BITMAP
040C
0C3C
3F78
1FF0
0FE0
0000
0000
0000
03F8
0FFE
1FFC
3C7C
7818
7838
F838
F878
7C78
7E7C
3FFC
1FBC
073E
0E1E
181E
381E
781C
7E38
7FF0
1FE0
0100
ENDCHAR
STARTCHAR gcommaaccent.ss02
ENCODING -1
SWIDTH 657 0
DWIDTH 16 0
BBX 15 30 1 -7
BITMAP
0180
0380
0780
0FC0
0FC0
0000
0000
0000
0000
03F8
0FFE
1FFC
3C7C
7818
7838
F838
F878
7C78
7E7C
3FFC
1FBC
073E
0E1E
181E
381E
781C
7E38
7FF0
1FE0
0100
ENDCHAR
STARTCHAR gdotaccent.ss02
ENCODING -1
SWIDTH 707 0
DWIDTH 18 0
BBX 15 28 1 -7
BITMAP
03C0
07E0
07E0
07C0
0100
0000
0000
03F8
0FFE
1FFC
3C7C
7818
7838
F838
F878
7C78
7E7C
3FFC
1FBC
073E
0E1E
181E
381E
781C
7E38
7FF0
1FE0
0100
ENDCHAR
STARTCHAR iacute_j.loclNLD
ENCODING -1
SWIDTH 794 0
DWIDTH 20 0
BBX 20 28 1 -6
BITMAP
0F83E0
0FC3F0
1F07C0
1C0F80
380E00
000000
000000
000000
0E0700
7E3F00
FE3F00
FE1F00
3E0F00
3E0F00
3E0F00
3E0F00
3E0F00
3E0F00
3E0F00
7E0F00
FF8F00
FF0F00
000F80
000F00
000E00
001C00
003800
003000
ENDCHAR
STARTCHAR i.loclTRK
ENCODING -1
SWIDTH 408 0
DWIDTH 10 0
BBX 9 21 1 0
BITMAP
3C00
7E00
7E00
3C00
1000
0000
0000
0E00
7E00
FE00
FE00
3E00
3E00
3E00
3E00
3E00
3E00
3E00
7E00
FF80
FF00
ENDCHAR
STARTCHAR germandbls.calt
ENCODING -1
SWIDTH 929 0
DWIDTH 23 0
BBX 21 20 1 0
BITMAP
01FFF8
07FFF8
0F7FF0
1E07E0
3E01C0
3E0380
3E0700
3E0FF8
3E1FF8
3E3FF8
3E7FF0
3E7FC0
3E0180
3E0300
3E0618
3E0C18
3E3FF8
7E7FF8
FEFFF8
FEFFF8
ENDCHAR
STARTCHAR T_h
ENCODING -1
SWIDTH 1413 0
DWIDTH 35 0
BBX 34 22 1 0
BITMAP
0000060000
00001E0000
FFFFFE0000
FFFFFE0000
F9F07E0000
F1F01E0000
E1F01E0000
E1F01E0000
C1F01E3800
01F01E7E00
01F01EFE00
01F01FFF00
01F01F1F00
01F01E1F00
01F01E1F00
01F01E1F00
01F01E1F00
01F01E1F00
01F01E1F00
03F03E1F00
07FE7F9FC0
07FC7F9F80
ENDCHAR
STARTCHAR c_t
ENCODING -1
SWIDTH 1131 0
DWIDTH 28 0
BBX 27 21 1 0
BITMAP
0003C000
000FF000
003FF800
0078FC00
00707C00
00F03C00
00F07C00
00F0FC00
07F8FC00
1FF9FFE0
3FF83C00
78383C00
78183C00
78003C00
F8003C00
78003C00
7C083C00
7E3C3C40
3FF83FE0
1FE01FC0
07C00F80
ENDCHAR
STARTCHAR f_adieresis.liga
ENCODING -1
SWIDTH 1129 0
DWIDTH 28 0
BBX 27 22 1 0
BITMAP
00FE0000
03FF8F00
07FF8F80
0E0F8F00
1E070F00
1E000000
3E000000
3E000000
3E00FC00
FFE3FE00
FFE7FF00
3E0E1F00
3E000F80
3E000F80
3E03FF80
3E07FF80
3E0F0F80
3E0F0F80
3E0F1F80
7E0FFF80
FFC7EFE0
FFC3CFC0
ENDCHAR
STARTCHAR f_b.liga
ENCODING -1
SWIDTH 1167 0
DWIDTH 29 0
BBX 27 22 1 0
BITMAP
01FF8000
03FF8000
0FFF8000
0E1F8000
1E0F8000
1E0F8000
3E0F8000
3E0F8000
3E0F9E00
FFEFBF80
FFEFFF80
3E0FFFC0
3E0F87C0
3E0F83E0
3E0F83E0
3E0F83E0
3E0F83E0
3E0F83C0
3E0FC3C0
7E0FFF80
FFCFFF00
FFCEFC00
ENDCHAR
STARTCHAR f_eth.liga
ENCODING -1
SWIDTH 1131 0
DWIDTH 28 0
BBX 26 22 1 0
BITMAP
00FF8080
03FFE300
07FFFE00
0F03F800
1E00FC00
1E01FE00
3E061F00
3E0C1F80
3E003F80
FFC0FFC0
FFC3FFC0
3E0787C0
3E0703C0
3E0F03C0
3E0F03C0
3E0F03C0
3E0F03C0
3E0F8380
3E0F8780
7E07FF00
FFC3FE00
FFC1F800
ENDCHAR
STARTCHAR f_f.liga
ENCODING -1
SWIDTH 896 0
DWIDTH 22 0
BBX 24 22 1 0
BITMAP
00007E
01FEFF
07FFFF
0FFF87
1E0F87
1E0780
3E0F80
3E0F80
3E0F80
FFFFF8
FFFFF8
3E0F80
3E0F80
3E0F80
3E0F80
3E0F80
3E0F80
3E0F80
3E0F80
7E0F80
FFCFF0
FFCFF0
ENDCHAR
STARTCHAR f_f_adieresis.liga
ENCODING -1
SWIDTH 1537 0
DWIDTH 38 0
BBX 37 22 1 0
BITMAP
00003FC000
01FEFFE1C0
07FFFFE3E0
0FFF83E3E0
1E0F81E3C0
1E07800000
3E07800000
3E0F800000
3E0F803F00
FFFFF8FFC0
FFFFF9FFC0
3E0F8183E0
3E0F8003E0
3E0F8001E0
3E0F80FFE0
3E0F81FFE0
3E0F83C1E0
3E0F83C1E0
3E0F83E3E0
7E0F83FFF0
FFCFF9F9F8
FFCFF0F1F0
ENDCHAR
STARTCHAR f_f_b.liga
ENCODING -1
SWIDTH 1575 0
DWIDTH 39 0
BBX 37 22 1 0
BITMAP
00003FE000
01FEFFE000
07FFFFE000
0FFF87E000
1E0F83E000
1E0781E000
3E0781E000
3E0F81E000
3E0F81E380
FFFFF9EFE0
FFFFF9FFF0
3E0F81FFF0
3E0F81E0F8
3E0F81E0F8
3E0F81E0F8
3E0F81E0F8
3E0F81E0F8
3E0F81E0F0
3E0F81F0F0
7E0F81FFE0
FFCFF1FFC0
FFCFF1BF00
ENDCHAR
STARTCHAR f_f_eth.liga
ENCODING -1
SWIDTH 1538 0
DWIDTH 38 0
BBX 37 22 1 0
BITMAP
00001FE030
01FEFFF8E0
07FFFFFD80
0FFFC07F00
1E0F803F80
1E07806F80
3E0781C7C0
3E0F8307E0
3E0F800FE0
FFFFF83FF0
FFFFF8FFF0
3E0F81E0F0
3E0F81E0F0
3E0F83C0F8
3E0F83C0F0
3E0F83C0F0
3E0F83E0F0
3E0F83E0E0
3E0F83F1E0
7E0F81FFC0
FFCFF0FF80
FFCFF07E00
ENDCHAR
STARTCHAR f_f_h.liga
ENCODING -1
SWIDTH 1560 0
DWIDTH 39 0
BBX 38 22 1 0
BITMAP
00003FE000
01FEFFE000
07FFFFE000
0FFF87E000
1E0F83E000
1E0781E000
3E0F81E000
3E0F81E000
3E0F81E380
FFFFF9EFC0
FFFFF9FFE0
3E0F81FFE0
3E0F81E1E0
3E0F81E1E0
3E0F81E1E0
3E0F81E1E0
3E0F81E1E0
3E0F81E1E0
3E0F81E1E0
7E0F81E1E0
FFCFF1F9FC
FFCFF1F9F8
ENDCHAR
STARTCHAR f_f_i.liga
ENCODING -1
SWIDTH 1223 0
DWIDTH 31 0
BBX 29 22 1 0
BITMAP
00007F80
01FEFFE0
07FFFFE0
0FFF87E0
1E0F83E0
1E078180
3E0F8000
3E0F8000
3E0F80E0
FFFFFFE0
FFFFFFE0
3E0F87E0
3E0F81E0
3E0F81E0
3E0F81E0
3E0F81E0
3E0F81E0
3E0F81E0
3E0F81E0
7E0F81E0
FFCFF1F8
FFCFF1F8
ENDCHAR
STARTCHAR f_f_idieresis.liga
ENCODING -1
SWIDTH 1271 0
DWIDTH 32 0
BBX 32 22 1 0
BITMAP
00007E00
01FEFF0E
07FFFF1F
0FFF8F1F
1E0F8F1E
1E078000
3E0F8000
3E0F8000
3E0F8070
FFFFFFF0
FFFFFFF0
3E0F81F0
3E0F80F0
3E0F80F0
3E0F80F0
3E0F80F0
3E0F80F0
3E0F80F0
3E0F80F0
7E0F81F0
FFCFF3FC
FFCFF3FC
ENDCHAR
STARTCHAR f_f_igrave.liga
ENCODING -1
SWIDTH 1223 0
DWIDTH 31 0
BBX 29 22 1 0
BITMAP
00007F00
01FEFF80
07FFFF80
0FFF83C0
1E0F80E0
1E078000
3E0F8000
3E0F8000
3E0F80E0
FFFFFFE0
FFFFFFE0
3E0F87E0
3E0F81E0
3E0F81E0
3E0F81E0
3E0F81E0
3E0F81E0
3E0F81E0
3E0F81E0
7E0F81E0
FFCFF1F8
FFCFF1F8
ENDCHAR
STARTCHAR f_f_iogonek.liga
ENCODING -1
SWIDTH 1223 0
DWIDTH 31 0
BBX 29 28 1 -6
BITMAP
00007F80
01FEFFE0
07FFFFE0
0FFF87E0
1E0F83E0
1E078180
3E0F8000
3E0F8000
3E0F80E0
FFFFFFE0
FFFFFFE0
3E0F87E0
3E0F81E0
3E0F81E0
3E0F81E0
3E0F81E0
3E0F81E0
3E0F81E0
3E0F81E0
7E0F81E0
FFCFF1F8
FFCFF1F8
00000030
000000E0
000001E0
000001F0
000001F0
000000F0
ENDCHAR
STARTCHAR f_f_j.liga
ENCODING -1
SWIDTH 1215 0
DWIDTH 30 0
BBX 27 28 1 -6
BITMAP
00007F80
01FEFFE0
07FFFFE0
0FFF87E0
1E0F83E0
1E078180
3E0F8000
3E0F8000
3E0F80E0
FFFFFFE0
FFFFFFE0
3E0F87E0
3E0F81E0
3E0F81E0
3E0F81E0
3E0F81E0
3E0F81E0
3E0F81E0
3E0F81E0
7E0F81E0
FFCFF1E0
FFCFF1E0
000001E0
000003C0
00000380
00000300
00000700
00000E00
ENDCHAR
STARTCHAR f_f_k.liga
ENCODING -1
SWIDTH 1568 0
DWIDTH 39 0
BBX 38 22 1 0
BITMAP
00003FE000
01FEFFE000
07FFFFE000
0FFF87E000
1E0F83E000
1E0781E000
3E0F81E000
3E0F81E000
3E0F81E000
FFFFF9E3F8
FFFFF9E3F8
3E0F81E0E0
3E0F81E1C0
3E0F81E380
3E0F81E700
3E0F81EF80
3E0F81E7C0
3E0F81E7C0
3E0F81E3E0
7E0F81E3F0
FFCFF1F9FC
FFCFF1F8F8
ENDCHAR
STARTCHAR f_f_kcommaaccent.liga
ENCODING -1
SWIDTH 1568 0
DWIDTH 39 0
BBX 38 30 1 -8
BITMAP
00003FE000
01FEFFE000
07FFFFE000
0FFF87E000
1E0F83E000
1E0781E000
3E0F81E000
3E0F81E000
3E0F81E000
FFFFF9E3F8
FFFFF9E3F8
3E0F81E0E0
3E0F81E1C0
3E0F81E380
3E0F81E700
3E0F81EF80
3E0F81E7C0
3E0F81E7C0
3E0F81E3E0
7E0F81E3F0
FFCFF1F9FC
FFCFF1F8F8
0000000000
0000000000
0000001F80
0000001F80
0000000F80
0000000700
0000000E00
0000000C00
ENDCHAR
STARTCHAR f_f_l.liga
ENCODING -1
SWIDTH 1223 0
DWIDTH 31 0
BBX 29 22 1 0
BITMAP
00003FE0
01FEFFE0
07FFFFE0
0FFF87E0
1E0F83E0
1E0781E0
3E0F81E0
3E0F81E0
3E0F81E0
FFFFF9E0
FFFFF9E0
3E0F81E0
3E0F81E0
3E0F81E0
3E0F81E0
3E0F81E0
3E0F81E0
3E0F81E0
3E0F81E0
7E0F81E0
FFCFF1F8
FFCFF1F8
ENDCHAR
STARTCHAR f_f_lcaron.liga
ENCODING -1
SWIDTH 1223 0
DWIDTH 31 0
BBX 34 22 1 0
BITMAP
00003FE1C0
01FEFFE7C0
07FFFFE7C0
0FFF87E7C0
1E0F83E3C0
1E0781E380
3E0F81E700
3E0F81E200
3E0F81E000
FFFFF9E000
FFFFF9E000
3E0F81E000
3E0F81E000
3E0F81E000
3E0F81E000
3E0F81E000
3E0F81E000
3E0F81E000
3E0F81E000
7E0F81E000
FFCFF1F800
FFCFF1F800
ENDCHAR
STARTCHAR f_f_lcommaaccent.liga
ENCODING -1
SWIDTH 1223 0
DWIDTH 31 0
BBX 29 30 1 -8
BITMAP
00003FE0
01FEFFE0
07FFFFE0
0FFF87E0
1E0F83E0
1E0781E0
3E0F81E0
3E0F81E0
3E0F81E0
FFFFF9E0
FFFFF9E0
3E0F81E0
3E0F81E0
3E0F81E0
3E0F81E0
3E0F81E0
3E0F81E0
3E0F81E0
3E0F81E0
7E0F81E0
FFCFF1F8
FFCFF1F8
00000000
00000000
000003F8
000003F8
000001F0
000000E0
000000C0
00000180
ENDCHAR
STARTCHAR f_f_odieresis.liga
ENCODING -1
SWIDTH 1535 0
DWIDTH 38 0
BBX 36 22 1 0
BITMAP
00003FC000
01FEFFE1C0
07FFFFE3E0
0FFF83E3E0
1E0F81E3C0
1E07800000
3E07800000
3E0F800000
3E0F800E00
FFFFF83F80
FFFFF8FFC0
3E0F81E7E0
3E0F83C3F0
3E0F83C1F0
3E0F83C1F0
3E0F87C1F0
3E0F87C1F0
3E0F83E1E0
3E0F83E1E0
7E0F83FFC0
FFCFF1FF80
FFCFF07E00
ENDCHAR
STARTCHAR f_h.liga
ENCODING -1
SWIDTH 1152 0
DWIDTH 29 0
BBX 27 22 1 0
BITMAP
01FF8000
03FF8000
0FFF8000
0E1F8000
1E0F8000
1E0F8000
3E0F8000
3E0F8000
3E0F9C00
FFEFBF00
FFEFFF80
3E0FFF80
3E0F8780
3E0F8780
3E0F8780
3E0F8780
3E0F8780
3E0F8780
3E0F8780
7E0F8780
FFCFE7E0
FFCFC7E0
ENDCHAR
STARTCHAR f_idieresis.liga
ENCODING -1
SWIDTH 863 0
DWIDTH 22 0
BBX 22 22 1 0
BITMAP
01F800
07FC78
0FFC7C
0E7C78
1E3878
1E0000
3E0000
3E0000
3E01C0
FFFFC0
FFFFC0
3E0FC0
3E03C0
3E03C0
3E03C0
3E03C0
3E03C0
3E03C0
3E03C0
7E07C0
FFCFF0
FFDFF0
ENDCHAR
STARTCHAR f_igrave.liga
ENCODING -1
SWIDTH 815 0
DWIDTH 20 0
BBX 19 22 1 0
BITMAP
01FC00
07FE00
0FFE00
0E0F00
1E0300
1E0000
3E0000
3E0000
3E0380
FFFF80
FFFF80
3E1F80
3E0F80
3E0F80
3E0F80
3E0F80
3E0F80
3E0F80
3E0F80
7E0F80
FFCFE0
FFCFC0
ENDCHAR
STARTCHAR f_iogonek.liga
ENCODING -1
SWIDTH 815 0
DWIDTH 20 0
BBX 19 28 1 -6
BITMAP
01FE00
07FF80
0FFF80
0E1F80
1E0F00
1E0400
3E0000
3E0000
3E0380
FFFF80
FFFF80
3E1F80
3E0F80
3E0F80
3E0F80
3E0F80
3E0F80
3E0F80
3E0F80
7E0F80
FFCFE0
FFCFC0
0000C0
000380
000780
0007C0
0007C0
0007C0
ENDCHAR
STARTCHAR f_j.liga
ENCODING -1
SWIDTH 808 0
DWIDTH 20 0
BBX 17 29 1 -7
BITMAP
01FE00
07FF80
0FFF80
0E1F80
1E0F00
1E0400
3E0000
3E0000
3E0380
FFFF80
FFFF80
3E1F80
3E0F80
3E0F80
3E0F80
3E0F80
3E0F80
3E0F80
3E0F80
7E0F80
FFCF80
FFCF80
000F80
000F00
000E00
001C00
001800
003800
001000
ENDCHAR
STARTCHAR f_k.liga
ENCODING -1
SWIDTH 1161 0
DWIDTH 29 0
BBX 28 22 1 0
BITMAP
01FF8000
03FF8000
0FFF8000
0E1F8000
1E0F8000
1E0F8000
3E0F8000
3E0F8000
3E0F8FE0
FFEF9FE0
FFEF8FC0
3E0F8380
3E0F8700
3E0F8E00
3E0F9C00
3E0FBE00
3E0FBE00
3E0F9F00
3E0F8F80
7E0F8FC0
FFCFE7F0
FFCFC3E0
ENDCHAR
STARTCHAR f_kcommaaccent.liga
ENCODING -1
SWIDTH 1161 0
DWIDTH 29 0
BBX 28 30 1 -8
BITMAP
01FF8000
03FF8000
0FFF8000
0E1F8000
1E0F8000
1E0F8000
3E0F8000
3E0F8000
3E0F8FE0
FFEF9FE0
FFEF8FC0
3E0F8380
3E0F8700
3E0F8E00
3E0F9C00
3E0FBE00
3E0FBE00
3E0F9F00
3E0F8F80
7E0F8FC0
FFCFE7F0
FFCFC3E0
00000000
00000000
00007E00
00007E00
00003E00
00001C00
00001800
00003000
ENDCHAR
STARTCHAR f_lcaron.liga
ENCODING -1
SWIDTH 815 0
DWIDTH 20 0
BBX 23 22 1 0
BITMAP
01FF86
03FF9E
0FFFBE
0E1F9E
1E0F8E
1E0F9E
3E0F9C
3E0F88
3E0F80
FFEF80
FFEF80
3E0F80
3E0F80
3E0F80
3E0F80
3E0F80
3E0F80
3E0F80
3E0F80
7E0F80
FFCFE0
FFCFC0
ENDCHAR
STARTCHAR f_lcommaaccent.liga
ENCODING -1
SWIDTH 815 0
DWIDTH 20 0
BBX 19 30 1 -8
BITMAP
01FF80
03FF80
0FFF80
0E1F80
1E0F80
1E0F80
3E0F80
3E0F80
3E0F80
FFEF80
FFEF80
3E0F80
3E0F80
3E0F80
3E0F80
3E0F80
3E0F80
3E0F80
3E0F80
7E0F80
FFCFE0
FFCFC0
000000
000000
000FC0
000FC0
0007C0
000380
000700
000600
ENDCHAR
STARTCHAR f_odieresis.liga
ENCODING -1
SWIDTH 1127 0
DWIDTH 28 0
BBX 26 22 1 0
BITMAP
00FE0000
03FF8F00
07FF8F80
0E0F8F00
1E070F00
1E000000
3E000000
3E000000
3E003800
FFE1FE00
FFE3FF00
3E079F80
3E0F0F80
3E0F07C0
3E1F07C0
3E1F07C0
3E1F07C0
3E1F0780
3E0F8700
7E0FFF00
FFC7FC00
FFC1F800
ENDCHAR
STARTCHAR longs_t.liga
ENCODING -1
SWIDTH 910 0
DWIDTH 23 0
BBX 21 21 1 0
BITMAP
00F000
03FC00
07FF00
0E1F80
1E0F80
1E0F80
3E0F80
3E1F80
3E3F80
FE3FF8
3E0F80
3E0F80
3E0F80
3E0F80
3E0F80
3E0F80
3E0F80
3E0F88
7F07F8
FFC7F8
FFC3E0
ENDCHAR
STARTCHAR s_t
ENCODING -1
SWIDTH 1052 0
DWIDTH 26 0
BBX 24 22 2 0
BITMAP
000800
007F00
00FFC0
01FFE0
03C7E0
0783E0
0781E0
0783E0
1FC3E0
7FC7FF
F1CFFF
F0C1E0
F841E0
FE01E0
7F81E0
3FC1E0
1FE1E0
87E1E0
C3E1E2
E3C1FF
FF80FE
FE007C
ENDCHAR
STARTCHAR longs_b.liga
ENCODING -1
SWIDTH 1167 0
DWIDTH 29 0
BBX 27 22 1 0
BITMAP
01FF8000
03FF8000
0FFF8000
0E1F8000
1E0F8000
1E0F8000
3E0F8000
3E0F8000
3E0F9E00
FE0FBF80
FE0FFFC0
3E0FFFC0
3E0F83C0
3E0F83E0
3E0F83E0
3E0F83E0
3E0F83E0
3E0F83C0
3E0FC3C0
7E0FFF80
FFCFFF00
FFCEFC00
ENDCHAR
STARTCHAR longs_h.liga
ENCODING -1
SWIDTH 1152 0
DWIDTH 29 0
BBX 27 22 1 0
BITMAP
01FF8000
03FF8000
0FFF8000
0E1F8000
1E0F8000
1E0F8000
3E0F8000
3E0F8000
3E0F9C00
FE0FBF00
FE0FFF80
3E0FFF80
3E0F8780
3E0F8780
3E0F8780
3E0F8780
3E0F8780
3E0F8780
3E0F8780
7E0F8780
FFCFE7E0
FFCFC7E0
ENDCHAR
STARTCHAR longs_i.liga
ENCODING -1
SWIDTH 815 0
DWIDTH 20 0
BBX 19 22 1 0
BITMAP
01FE00
07FF80
0FFF80
0E1F80
1E0F00
1E0400
3E0000
3E0000
3E0380
FE0F80
FE3F80
3E3F80
3E0F80
3E0F80
3E0F80
3E0F80
3E0F80
3E0F80
3E0F80
7E0F80
FFCFE0
FFCFC0
ENDCHAR
STARTCHAR longs_k.liga
ENCODING -1
SWIDTH 1160 0
DWIDTH 29 0
BBX 28 22 1 0
BITMAP
01FF8000
03FF8000
0FFF8000
0E1F8000
1E0F8000
1E0F8000
3E0F8000
3E0F8000
3E0F8000
FE0F9FE0
FE0F8FC0
3E0F8380
3E0F8700
3E0F8E00
3E0F9C00
3E0FBE00
3E0F9E00
3E0F9F00
3E0F8F80
7E0F8FC0
FFCFE7F0
FFCFC3E0
ENDCHAR
STARTCHAR longs_l.liga
ENCODING -1
SWIDTH 815 0
DWIDTH 20 0
BBX 19 22 1 0
BITMAP
01FF80
03FF80
0FFF80
0E1F80
1E0F80
1E0F80
3E0F80
3E0F80
3E0F80
FE0F80
FE0F80
3E0F80
3E0F80
3E0F80
3E0F80
3E0F80
3E0F80
3E0F80
3E0F80
7E0F80
FFCFE0
FFCFC0
ENDCHAR
STARTCHAR longs_longs.liga
ENCODING -1
SWIDTH 896 0
DWIDTH 22 0
BBX 23 22 1 0
BITMAP
00007E
01FEFE
07FFFE
0FFF8E
1E0F86
1E0780
3E0F80
3E0F80
3E0F80
FE3F80
FE3F80
3E0F80
3E0F80
3E0F80
3E0F80
3E0F80
3E0F80
3E0F80
3E0F80
7E0F80
FFCFF0
FFCFF0
ENDCHAR
STARTCHAR longs_longs_i.liga
ENCODING -1
SWIDTH 1223 0
DWIDTH 31 0
BBX 29 22 1 0
BITMAP
00007F80
01FEFFE0
07FFFFE0
0FFF87E0
1E0F83E0
1E078180
3E0F8000
3E0F8000
3E0F80E0
FE3F83E0
FE3F8FE0
3E0F8FE0
3E0F83E0
3E0F81E0
3E0F81E0
3E0F81E0
3E0F81E0
3E0F81E0
3E0F81E0
7E0F81E0
FFCFF1F8
FFCFF1F8
ENDCHAR
STARTCHAR longs_longs_l.liga
ENCODING -1
SWIDTH 1223 0
DWIDTH 31 0
BBX 29 22 1 0
BITMAP
00003FE0
01FEFFE0
07FFFFE0
0FFF87E0
1E0F83E0
1E0781E0
3E0F81E0
3E0F81E0
3E0F81E0
FE3F81E0
FE3F81E0
3E0F81E0
3E0F81E0
3E0F81E0
3E0F81E0
3E0F81E0
3E0F81E0
3E0F81E0
3E0F81E0
7E0F81E0
FFCFF1F8
FFCFF1F8
ENDCHAR
STARTCHAR uni0972.ss11
ENCODING -1
SWIDTH 1168 0
DWIDTH 29 0
BBX 37 33 -3 -2
BITMAP
00000E0000
00000F0060
00000F80F8
00000F80F8
00000783F8
000003FFF0
000000FFC0
0000001E00
0000000000
0000000000
0000000000
FFFFFFFF00
FFFFFFFFC0
7FFFFFFFE0
3FFFFFFFE0
00007C3E00
00007C3E00
00607C3E00
03FC7C3E00
0FFE7C3E00
0FFFFFFE00
0FC1FFFE00
0307FFFE00
001FFFFE00
007FC7FE00
007F8FFE00
003E1FBE00
00083FBE00
0000FF3E00
0001FC3E00
0001F80E00
0000F00000
0000200000
ENDCHAR
STARTCHAR uni0904.ss11
ENCODING -1
SWIDTH 1168 0
DWIDTH 29 0
BBX 35 34 -3 -2
BITMAP
4000000000
6000000000
7000000000
3800000000
0E07C00000
07FFF00000
03FFFC0000
00FFFE0000
0000070000
000001C000
000000E000
0000007000
FFFFFFFF00
FFFFFFFFC0
7FFFFFFFE0
3FFFFFFFE0
00007C3E00
00007C3E00
00607C3E00
03FC7C3E00
0FFE7C3E00
0FFFFFFE00
0FC1FFFE00
0307FFFE00
001FFFFE00
007FC7FE00
007F8FFE00
003E1FBE00
00083FBE00
0000FF3E00
0001FC3E00
0001F80E00
0000F00000
0000200000
ENDCHAR
STARTCHAR adeva.ss11
ENCODING -1
SWIDTH 1168 0
DWIDTH 29 0
BBX 35 22 -3 -2
BITMAP
FFFFFFFF00
FFFFFFFFC0
7FFFFFFFE0
3FFFFFFFE0
00007C3E00
00007C3E00
00607C3E00
03FC7C3E00
0FFE7C3E00
0FFFFFFE00
0FC1FFFE00
0307FFFE00
001FFFFE00
007FC7FE00
007F8FFE00
003E1FBE00
00083FBE00
0000FF3E00
0001FC3E00
0001F80E00
0000F00000
0000200000
ENDCHAR
STARTCHAR aadeva.ss11
ENCODING -1
SWIDTH 1515 0
DWIDTH 38 0
BBX 44 22 -3 -2
BITMAP
FFFFFFFFFF80
FFFFFFFFFFC0
7FFFFFFFFFF0
3FFFFFFFFFF0
00007C3E1E00
00007C3E1E00
00607C3E1E00
03FC7C3E1E00
0FFE7C3E1E00
0FFFFFFE1E00
0FC1FFFE1E00
0307FFFE1E00
001FFFFE1E00
007FC7FE1E00
007F8FFE1E00
003E1FBE1E00
00083FBE1E00
0000FF3E3E00
0001FC3E1E00
0001F80E0600
0000F0000000
000020000000
ENDCHAR
STARTCHAR rvocalicdeva.ss11
ENCODING -1
SWIDTH 1168 0
DWIDTH 29 0
BBX 35 28 -3 -8
BITMAP
FFFFFFF800
FFFFFFFC00
7FFFFFFF00
3FFFFFFF00
00000FE000
00000FE000
00000FE000
03FC0FE000
0FFE0FE000
0FFFFFE000
0FC1FFF800
0307FFFC00
001FFFFC00
007FCFE000
007F8FE000
003E0FE000
00080FE000
00000FF800
00000FFC00
000003FE00
000001F800
000001F000
000001E000
000000E180
000000E3C0
0000007FE0
0000001FE0
0000000600
ENDCHAR
STARTCHAR rrvocalicdeva.ss11
ENCODING -1
SWIDTH 1168 0
DWIDTH 29 0
BBX 35 30 -3 -10
BITMAP
FFFFFFFF00
FFFFFFFFC0
7FFFFFFFE0
3FFFFFFFE0
00007C3E00
00007C3E00
00607C3E00
03FC7C3E00
0FFE7C3E00
0FFFFFFE00
0FC1FFFE00
0307FFFE00
001FFFFE00
007FFC3E00
007FFC3E00
003E7C3E00
00087C3E00
0000FCFE00
00007DFE00
00001FFE00
000003F000
000001E000
000000F800
000000FC00
000001FC00
000001F000
000001E100
000000E3C0
0000007FE0
0000001FC0
ENDCHAR
STARTCHAR uni0973.ss11
ENCODING -1
SWIDTH 1168 0
DWIDTH 29 0
BBX 35 36 -3 -2
BITMAP
0000003800
0000003E00
0000003E00
0000003E00
0000003E00
0000003E00
0000003E00
0000003E00
0000003E00
0000003E00
0000001E00
0000000000
0000000000
0000000000
FFFFFFFF00
FFFFFFFFC0
7FFFFFFFE0
3FFFFFFFE0
00007C3E00
00007C3E00
00607C3E00
03FC7C3E00
0FFE7C3E00
0FFFFFFE00
0FC1FFFE00
0307FFFE00
001FFFFE00
007FC7FE00
007F8FFE00
003E1FBE00
00083FBE00
0000FF3E00
0001FC3E00
0001F80E00
0000F00000
0000200000
ENDCHAR
STARTCHAR uni0976.ss11
ENCODING -1
SWIDTH 1168 0
DWIDTH 29 0
BBX 35 27 -3 -7
BITMAP
FFFFFFFF00
FFFFFFFFC0
7FFFFFFFE0
3FFFFFFFE0
00007C3E00
00007C3E00
00607C3E00
03FC7C3E00
0FFE7C3E00
0FFFFFFE00
0FC1FFFE00
0307FFFE00
001FFFFE00
007FC7FE00
007F8FFE00
003E1FBE00
00083FBE00
0000FF3E00
0001FC3E00
0001F80E00
0000F00000
0000200200
0000040700
000007FFC0
000003FFC0
000001FF80
0000003000
ENDCHAR
STARTCHAR uni0977.ss11
ENCODING -1
SWIDTH 1168 0
DWIDTH 29 0
BBX 35 27 -3 -7
BITMAP
FFFFFFFF00
FFFFFFFFC0
7FFFFFFFE0
3FFFFFFFE0
00007C3E00
00007C3E00
00607C3E00
03FC7C3E00
0FFE7C3E00
0FFFFFFE00
0FC1FFFE00
0307FFFE00
001FFFFE00
007FC7FE00
007F8FFE00
003E1FBE00
00083FBE00
0000FF3E00
0001FC3E00
0001F80E00
0000F00000
0000200200
0000040700
000007FFC0
000003FFC0
000001FF80
0000003000
ENDCHAR
STARTCHAR uni093F.01
ENCODING -1
SWIDTH 347 0
DWIDTH 9 0
BBX 16 27 -1 0
BITMAP
1F00
3FC0
7FE0
7FF0
3C38
3C0C
1C06
FF07
FF02
FF00
7F00
0F00
0F00
0F00
0F00
0F00
0F00
0F00
0F00
0F00
0F00
0F00
0F00
0F00
1F00
0F00
0700
ENDCHAR
STARTCHAR uni093F.02
ENCODING -1
SWIDTH 347 0
DWIDTH 9 0
BBX 18 27 -1 0
BITMAP
03E000
07F800
0FFC00
0FFE00
0F0700
0F0380
0F0180
FF00C0
FF0080
FF0000
7F0000
0F0000
0F0000
0F0000
0F0000
0F0000
0F0000
0F0000
0F0000
0F0000
0F0000
0F0000
0F0000
0F0000
1F0000
0F0000
070000
ENDCHAR
STARTCHAR uni093F.03
ENCODING -1
SWIDTH 347 0
DWIDTH 9 0
BBX 22 27 -1 0
BITMAP
00F800
03FE00
07FF80
0FFFC0
0F80E0
0F0070
0F0018
FF000C
FF0000
FF0000
7F0000
0F0000
0F0000
0F0000
0F0000
0F0000
0F0000
0F0000
0F0000
0F0000
0F0000
0F0000
0F0000
0F0000
1F0000
0F0000
070000
ENDCHAR
STARTCHAR uni093F.04
ENCODING -1
SWIDTH 347 0
DWIDTH 9 0
BBX 25 27 -1 0
BITMAP
003F0000
00FFC000
01FFE000
03FFF800
07E03C00
0FC00E00
0F800700
FF000180
FF000000
FF000000
7F000000
0F000000
0F000000
0F000000
0F000000
0F000000
0F000000
0F000000
0F000000
0F000000
0F000000
0F000000
0F000000
0F000000
1F000000
0F000000
07000000
ENDCHAR
STARTCHAR uni093F.05
ENCODING -1
SWIDTH 347 0
DWIDTH 9 0
BBX 28 27 -1 0
BITMAP
001F8000
00FFF000
01FFFC00
03FFFE00
07F00F80
07C003C0
0F8000E0
FF800030
FF000010
FF000000
7F000000
0F000000
0F000000
0F000000
0F000000
0F000000
0F000000
0F000000
0F000000
0F000000
0F000000
0F000000
0F000000
0F000000
1F000000
0F000000
07000000
ENDCHAR
STARTCHAR uni093F.06
ENCODING -1
SWIDTH 347 0
DWIDTH 9 0
BBX 30 27 -1 0
BITMAP
001FC000
007FF800
01FFFE00
03FFFF80
07F007C0
07C000E0
0FC00038
FF80000C
FF000004
FF000000
7F000000
0F000000
0F000000
0F000000
0F000000
0F000000
0F000000
0F000000
0F000000
0F000000
0F000000
0F000000
0F000000
0F000000
1F000000
0F000000
07000000
ENDCHAR
STARTCHAR uni093F.07
ENCODING -1
SWIDTH 347 0
DWIDTH 9 0
BBX 33 27 -1 0
BITMAP
0007F00000
003FFE0000
00FFFFC000
01FFFFE000
03F800F800
07E0003C00
0FC0000700
FF80000380
FF00000080
FF00000000
7F00000000
0F00000000
0F00000000
0F00000000
0F00000000
0F00000000
0F00000000
0F00000000
0F00000000
0F00000000
0F00000000
0F00000000
0F00000000
0F00000000
1F00000000
0F00000000
0700000000
ENDCHAR
STARTCHAR uni093F.08
ENCODING -1
SWIDTH 347 0
DWIDTH 9 0
BBX 36 27 -1 0
BITMAP
0003FC0000
001FFFC000
007FFFF000
01FFFFFC00
03FC003F00
07F00007C0
0FC00000E0
FF80000030
FF00000010
FF00000000
7F00000000
0F00000000
0F00000000
0F00000000
0F00000000
0F00000000
0F00000000
0F00000000
0F00000000
0F00000000
0F00000000
0F00000000
0F00000000
0F00000000
1F00000000
0F00000000
0700000000
ENDCHAR
STARTCHAR uni093F.09
ENCODING -1
SWIDTH 347 0
DWIDTH 9 0
BBX 40 27 -1 0
BITMAP
0001FF0000
000FFFF000
003FFFFE00
00FFFFFF80
01FE000FE0
07F00000F8
0FE000003C
FF80000007
FF00000001
FF00000000
7F00000000
0F00000000
0F00000000
0F00000000
0F00000000
0F00000000
0F00000000
0F00000000
0F00000000
0F00000000
0F00000000
0F00000000
0F00000000
0F00000000
1F00000000
0F00000000
0700000000
ENDCHAR
STARTCHAR uni093F.10
ENCODING -1
SWIDTH 347 0
DWIDTH 9 0
BBX 42 27 -1 0
BITMAP
0001FF000000
001FFFF00000
007FFFFE0000
00FFFFFFC000
03FE0007F000
07F800007C00
0FE000000F00
FFC0000003C0
FF8000000000
FF0000000000
7F0000000000
0F0000000000
0F0000000000
0F0000000000
0F0000000000
0F0000000000
0F0000000000
0F0000000000
0F0000000000
0F0000000000
0F0000000000
0F0000000000
0F0000000000
0F0000000000
1F0000000000
0F0000000000
070000000000
ENDCHAR
STARTCHAR uni093F.11
ENCODING -1
SWIDTH 347 0
DWIDTH 9 0
BBX 45 27 -1 0
BITMAP
0000FFC00000
000FFFFE0000
003FFFFFC000
00FFFFFFF800
01FF0001FE00
03F800001F80
07E0000001E0
FFC000000078
FF8000000008
FF0000000000
7F0000000000
0F0000000000
0F0000000000
0F0000000000
0F0000000000
0F0000000000
0F0000000000
0F0000000000
0F0000000000
0F0000000000
0F0000000000
0F0000000000
0F0000000000
0F0000000000
1F0000000000
0F0000000000
070000000000
ENDCHAR
STARTCHAR uni093F.12
ENCODING -1
SWIDTH 347 0
DWIDTH 9 0
BBX 49 27 -1 0
BITMAP
00007FF0000000
0007FFFF800000
003FFFFFF00000
007FFFFFFE0000
01FF80003FC000
03FC000003F000
07E00000003C00
FFC00000000780
FF800000000100
FF000000000000
7F000000000000
0F000000000000
0F000000000000
0F000000000000
0F000000000000
0F000000000000
0F000000000000
0F000000000000
0F000000000000
0F000000000000
0F000000000000
0F000000000000
0F000000000000
0F000000000000
1F000000000000
0F000000000000
07000000000000
ENDCHAR
STARTCHAR uni093F.13
ENCODING -1
SWIDTH 347 0
DWIDTH 9 0
BBX 52 27 -1 0
BITMAP
00003FFC000000
0003FFFFE00000
001FFFFFFE0000
007FFFFFFFC000
01FFC0000FF800
03FC0000007E00
07F00000000FC0
FFC000000000F0
FF800000000010
FF000000000000
7F000000000000
0F000000000000
0F000000000000
0F000000000000
0F000000000000
0F000000000000
0F000000000000
0F000000000000
0F000000000000
0F000000000000
0F000000000000
0F000000000000
0F000000000000
0F000000000000
1F000000000000
0F000000000000
07000000000000
ENDCHAR
STARTCHAR uni093F.14
ENCODING -1
SWIDTH 347 0
DWIDTH 9 0
BBX 55 27 -1 0
BITMAP
00001FFF000000
0001FFFFFC0000
000FFFFFFFC000
007FFFFFFFF800
00FFE00003FF00
03FE0000001FC0
07F000000001F8
FFC0000000001E
FF800000000002
FF000000000000
7F000000000000
0F000000000000
0F000000000000
0F000000000000
0F000000000000
0F000000000000
0F000000000000
0F000000000000
0F000000000000
0F000000000000
0F000000000000
0F000000000000
0F000000000000
0F000000000000
1F000000000000
0F000000000000
07000000000000
ENDCHAR
STARTCHAR uni093F.15
ENCODING -1
SWIDTH 347 0
DWIDTH 9 0
BBX 59 27 -1 0
BITMAP
00000FFFC0000000
0001FFFFFF000000
000FFFFFFFF00000
003FFFFFFFFF0000
00FFE00000FFE000
03FE00000003FC00
07F0000000003F00
FFC00000000003E0
FF80000000000060
FF00000000000000
7F00000000000000
0F00000000000000
0F00000000000000
0F00000000000000
0F00000000000000
0F00000000000000
0F00000000000000
0F00000000000000
0F00000000000000
0F00000000000000
0F00000000000000
0F00000000000000
0F00000000000000
0F00000000000000
1F00000000000000
0F00000000000000
0700000000000000
ENDCHAR
STARTCHAR uni093F.16
ENCODING -1
SWIDTH 347 0
DWIDTH 9 0
BBX 62 27 -1 0
BITMAP
000003FFF0000000
0000FFFFFFE00000
0007FFFFFFFE0000
003FFFFFFFFFE000
00FFF000001FFC00
03FF000000007F80
07F80000000007F0
FFC000000000007C
FF80000000000004
FF00000000000000
7F00000000000000
0F00000000000000
0F00000000000000
0F00000000000000
0F00000000000000
0F00000000000000
0F00000000000000
0F00000000000000
0F00000000000000
0F00000000000000
0F00000000000000
0F00000000000000
0F00000000000000
0F00000000000000
1F00000000000000
0F00000000000000
0700000000000000
ENDCHAR
STARTCHAR uni093F.18
ENCODING -1
SWIDTH 347 0
DWIDTH 9 0
BBX 69 27 -1 0
BITMAP
000000FFFF00000000
00003FFFFFFE000000
0003FFFFFFFFF00000
001FFFFFFFFFFF0000
007FFC000001FFF000
01FF8000000003FE00
07F800000000001FC0
FFE0000000000000F8
FF8000000000000008
FF0000000000000000
7F0000000000000000
0F0000000000000000
0F0000000000000000
0F0000000000000000
0F0000000000000000
0F0000000000000000
0F0000000000000000
0F0000000000000000
0F0000000000000000
0F0000000000000000
0F0000000000000000
0F0000000000000000
0F0000000000000000
0F0000000000000000
1F0000000000000000
0F0000000000000000
070000000000000000
ENDCHAR
STARTCHAR uni093F.20
ENCODING -1
SWIDTH 347 0
DWIDTH 9 0
BBX 76 27 -1 0
BITMAP
0000003FFFF000000000
00001FFFFFFFF0000000
0001FFFFFFFFFF800000
000FFFFFFFFFFFFC0000
007FFF0000000FFFC000
01FFC0000000001FF800
07FC0000000000007F80
FFE000000000000003F0
FF800000000000000030
FF000000000000000000
7F000000000000000000
0F000000000000000000
0F000000000000000000
0F000000000000000000
0F000000000000000000
0F000000000000000000
0F000000000000000000
0F000000000000000000
0F000000000000000000
0F000000000000000000
0F000000000000000000
0F000000000000000000
0F000000000000000000
0F000000000000000000
1F000000000000000000
0F000000000000000000
07000000000000000000
ENDCHAR
STARTCHAR uni0940.01
ENCODING -1
SWIDTH 347 0
DWIDTH 9 0
BBX 20 27 -9 0
BITMAP
7C0000
FF0000
FFC000
FFE000
F87000
703800
781800
39FF80
0DFFE0
00FFF0
003FF0
000F00
000F00
000F00
000F00
000F00
000F00
000F00
000F00
000F00
000F00
000F00
000F00
000F00
001F00
000F00
000700
ENDCHAR
STARTCHAR uni0940.02
ENCODING -1
SWIDTH 347 0
DWIDTH 9 0
BBX 20 27 -9 0
BITMAP
3E0000
7F8000
FFC000
FFE000
F07000
F03800
F01800
E1FF80
E1FFE0
00FFF0
003FF0
000F00
000F00
000F00
000F00
000F00
000F00
000F00
000F00
000F00
000F00
000F00
000F00
000F00
001F00
000F00
000700
ENDCHAR
STARTCHAR uni0940.03
ENCODING -1
SWIDTH 347 0
DWIDTH 9 0
BBX 24 27 -13 0
BITMAP
0FC000
3FF000
7FF800
7FFC00
F80E00
F80300
F00180
F01FF8
F01FFE
000FFF
0003FF
0000F0
0000F0
0000F0
0000F0
0000F0
0000F0
0000F0
0000F0
0000F0
0000F0
0000F0
0000F0
0000F0
0001F0
0000F0
000070
ENDCHAR
STARTCHAR uni0940.04
ENCODING -1
SWIDTH 347 0
DWIDTH 9 0
BBX 27 27 -16 0
BITMAP
01F00000
0FFC0000
1FFF0000
3FFF8000
7E03C000
7C00E000
F8003000
F803FF00
F803FFC0
7001FFE0
00007FE0
00001E00
00001E00
00001E00
00001E00
00001E00
00001E00
00001E00
00001E00
00001E00
00001E00
00001E00
00001E00
00001E00
00003E00
00001E00
00000E00
ENDCHAR
STARTCHAR uni0940.05
ENCODING -1
SWIDTH 347 0
DWIDTH 9 0
BBX 30 27 -19 0
BITMAP
01F80000
07FF0000
1FFFC000
3FFFE000
3F00F800
7C001C00
FC000600
F8003FE0
F8003FF8
70001FFC
00000FFC
000003C0
000003C0
000003C0
000003C0
000003C0
000003C0
000003C0
000003C0
000003C0
000003C0
000003C0
000003C0
000003C0
000007C0
000003C0
000001C0
ENDCHAR
STARTCHAR uni0940.06
ENCODING -1
SWIDTH 347 0
DWIDTH 9 0
BBX 32 27 -21 0
BITMAP
00FE0000
07FF8000
0FFFE000
1FFFF800
3F003E00
7E000F00
7C000380
F8000FF8
F8000FFE
700007FF
000003FF
000000F0
000000F0
000000F0
000000F0
000000F0
000000F0
000000F0
000000F0
000000F0
000000F0
000000F0
000000F0
000000F0
000001F0
000000F0
00000070
ENDCHAR
STARTCHAR uni0940.07
ENCODING -1
SWIDTH 347 0
DWIDTH 9 0
BBX 35 27 -24 0
BITMAP
003F800000
01FFF00000
07FFFC0000
0FFFFF0000
1FC00FC000
3F0001E000
7E00007000
FC0001FF00
F80001FFC0
700000FFE0
0000007FE0
0000001E00
0000001E00
0000001E00
0000001E00
0000001E00
0000001E00
0000001E00
0000001E00
0000001E00
0000001E00
0000001E00
0000001E00
0000001E00
0000003E00
0000001E00
0000000E00
ENDCHAR
STARTCHAR jhadeva.ss11
ENCODING -1
SWIDTH 1230 0
DWIDTH 31 0
BBX 36 20 -2 0
BITMAP
F81FFFFF80
FF1FFFFFE0
7FCFFFFFF0
1FE3FFFFF0
00E0780000
00F0780000
00F0780000
00F8780000
00F8780000
07FFFFC000
0FFFFFF000
0FFFFFFC00
0FFFFFFC00
07F0781E00
03E0781F00
00C0781F00
0000781F00
0000F81F00
0000781F00
0000381E00
ENDCHAR
STARTCHAR nnadeva.ss11
ENCODING -1
SWIDTH 1109 0
DWIDTH 28 0
BBX 35 27 -4 -7
BITMAP
FFFFFFFE00
FFFFFFFF80
7FFFFFFFE0
1FFFFFFFE0
000F1E3C00
000F1E3C00
000F1E3C00
00DF1E3C00
03FF1E3C00
03FF1E3C00
03FE1E3C00
01FE1E3C00
00FC3E3C00
00383E3C00
000E0E3C00
0007063C00
0001C03C00
0000F07C00
0000383C00
00001E1C00
0000070000
000001C000
000000E000
0000003800
0000001C00
0000000600
0000000200
ENDCHAR
STARTCHAR uni0932.loclMAR
ENCODING -1
SWIDTH 980 0
DWIDTH 25 0
BBX 31 18 -3 2
BITMAP
FFFFFFF0
FFFFFFF8
7FFFFFFE
1FFFFFFE
00007800
00007800
00607800
01FDFC00
03FFFF00
07E7C780
07C78780
078787C0
078107C0
07C03FC0
01C03F80
00F01F00
00380600
000C0000
ENDCHAR
STARTCHAR uni0932.ss11
ENCODING -1
SWIDTH 943 0
DWIDTH 24 0
BBX 29 20 -3 0
BITMAP
FFFFFFC0
FFFFFFF0
7FFFFFF8
3FFFFFF8
00000780
00000780
00700780
01FE0F80
03FF1F80
03E7FF80
07C3FF80
07C7FF80
07C7FF80
03C3F780
01E0C780
00700780
001C0780
000C0F80
00000780
00000380
ENDCHAR
STARTCHAR shadeva.loclMAR
ENCODING -1
SWIDTH 931 0
DWIDTH 23 0
BBX 29 23 -3 -3
BITMAP
FFFFFFC0
FFFFFFF0
7FFFFFF8
3FFFFFF8
00F80F80
00F80F80
03F80F80
07FC0F80
07DE0F80
07CE0F80
03FF0F80
00FF0F80
003F0F80
000F0F80
03FF0F80
03FF0F80
03FF0F80
01FF0F80
00FF8F80
003DC380
00006000
00003000
00001000
ENDCHAR
STARTCHAR kadeva_radeva
ENCODING -1
SWIDTH 1062 0
DWIDTH 27 0
BBX 33 22 -3 -2
BITMAP
FFFFFFFC00
FFFFFFFE00
7FFFFFFF80
1FFFFFFF80
0003C00000
0003C00000
00C3D80000
03E3FF0000
07FBFFC000
07FBF9E000
07C3F1E000
0783E1F000
0787C1F000
038FCFF000
01FFCFE000
00FFC7C000
007FC18000
00FFC00000
01FBC00000
01F0C00000
01F0000000
00E0000000
ENDCHAR
STARTCHAR uni0915094D091A
ENCODING -1
SWIDTH 1157 0
DWIDTH 29 0
BBX 35 27 -3 -7
BITMAP
FFFFFFFF00
FFFFFFFFC0
7FFFFFFFE0
3FFFFFFFE0
0000780000
0000780000
00307A0000
007C7FC000
00FE7FF000
01FE7E3800
01F07C3C00
01F0F83C00
00E1F87C00
00F3FBFC00
00FFFBFC00
01FFF9F800
03FFF86000
07F0F80000
0FF0F80000
1FF1F80000
1FFFF80000
0F1FF80000
0207F80000
0000F80000
0000F80000
0000780000
0000180000
ENDCHAR
STARTCHAR uni0915094D0923
ENCODING -1
SWIDTH 1664 0
DWIDTH 42 0
BBX 47 20 -3 0
BITMAP
FFFFFFFFFFF0
FFFFFFFFFFFC
7FFFFFFFFFFE
3FFFFFFFFFFE
0003C3C1E1E0
0003C3C1E1E0
00C3DFC1E1E0
03E3FFC1E1E0
07FBFFC1E1E0
07FBF3C1E1E0
07C3F1C3E1E0
0783E1E7E1E0
0787C0FFC1E0
03CFC07F81E0
01FFC00E01E0
00FFC00001E0
001FC00001E0
0003C00003E0
0003C00003E0
0001C00000E0
ENDCHAR
STARTCHAR uni0915094D0923.ss11
ENCODING -1
SWIDTH 1757 0
DWIDTH 44 0
BBX 50 27 -3 -7
BITMAP
FFFFFFFFFFFE00
FFFFFFFFFFFF00
7FFFFFFFFFFFC0
3FFFFFFFFFFFC0
0003C01E3C7800
0003C01E3C7800
00C3D81E3C7800
03E3FFDE3C7800
07FBFFFE3C7800
07FBFFFE3C7800
07C3F7FE3C7800
0783E3FC3C7800
0787C1F87C7800
03CFC0707C7800
01FFC01C1C7800
00FFC00E0C7800
001FC003807800
0007C001E0F800
0003C000707800
0000C0003C1800
000000000E0000
00000000038000
0000000001C000
00000000007000
00000000003C00
00000000000E00
00000000000400
ENDCHAR
STARTCHAR uni0915094D0924
ENCODING -1
SWIDTH 1270 0
DWIDTH 32 0
BBX 38 20 -3 0
BITMAP
FFFFFFFFE0
FFFFFFFFF0
7FFFFFFFFC
1FFFFFFFFC
00001F0000
00001F0000
0FFFFFC000
0FFFFFF800
07FFFFFC00
01FFFFFE00
003E1F0700
003E1F0780
003E1F0F80
001E1F7F80
000F1F7F00
00039F3F00
00011F0C00
00001F0000
00001F0000
0000070000
ENDCHAR
STARTCHAR uni0915094D09240930
ENCODING -1
SWIDTH 1432 0
DWIDTH 36 0
BBX 42 20 -3 0
BITMAP
FFFFFFFFFE00
FFFFFFFFFF00
7FFFFFFFFFC0
1FFFFFFFFFC0
000001F00000
000001F00000
0FFFFFFC0000
0FFFFFFF8000
07FFFFFFE000
01FFFFF8F000
003E1FF07000
003E3FF07800
003E7FF0F800
001E7DF7F800
000F39F7F000
000381F3F000
000101F0C000
000001F00000
000001F00000
000000700000
ENDCHAR
STARTCHAR uni0915094D0924094D0924
ENCODING -1
SWIDTH 1270 0
DWIDTH 32 0
BBX 38 25 -3 -5
BITMAP
FFFFFFFFE0
FFFFFFFFF0
7FFFFFFFFC
1FFFFFFFFC
00001F0000
00001F0000
0FFFFFC000
0FFFFFF800
07FFFFFC00
01FFFFFE00
00001F0700
00001F0780
0FFFFF0F80
0FFFFF7F80
03FFFF7F00
01FFFF3F00
003E1F0C00
003E1F0000
003E1F0000
001E1F0000
00071F0000
00039F0000
00001F0000
00001F0000
0000070000
ENDCHAR
STARTCHAR uni0915094D0924094D092F
ENCODING -1
SWIDTH 1655 0
DWIDTH 41 0
BBX 47 20 -3 0
BITMAP
FFFFFFFFFFF0
FFFFFFFFFFFC
7FFFFFFFFFFE
1FFFFFFFFFFE
00000F8001E0
00000F8001E0
00000F8001E0
0FFFFFF801E0
07FFFFFE01E0
03FFFFFF81E0
003F0F87C1E0
003E0F87C1E0
003E0F9FC3E0
003E0FBFC7E0
000E0F9F8FE0
00078F8FFFE0
0001CF87FFE0
00008F80FBE0
00000F8003E0
0000038000E0
ENDCHAR
STARTCHAR uni0915094D0924094D0935
ENCODING -1
SWIDTH 1670 0
DWIDTH 42 0
BBX 48 22 -3 -2
BITMAP
FFFFFFFFFFF0
FFFFFFFFFFFC
7FFFFFFFFFFF
3FFFFFFFFFFF
0003C00001E0
0003C00001E0
00C3D800C1E0
03E3FF03E1E0
07FBFF87F1E0
07FBF9FFF1E0
07C3F1FFC1E0
0783E3FF83E0
0787C7FF87E0
03CFC7C387E0
01FFC7C1FFE0
00FFC3C0FFE0
001FC1C00DE0
0007C0E003E0
0003C07001E0
0000C01800E0
0000000C0000
000000040000
ENDCHAR
STARTCHAR uni0915094D0925
ENCODING -1
SWIDTH 1703 0
DWIDTH 43 0
BBX 48 20 -3 0
BITMAP
FFFFFE1F1FF8
FFFFFFBF9FFE
7FFFFFFFCFFF
3FFFFFFDE3FF
0003C079F0F0
0003C07DF0F0
00C3C03DF0F0
03E3FF1FF0F0
07FBFF87F0F0
07FBF9FFE0F0
07C3F07FE0F0
0783E07F81F0
0787C03C07F0
03CFC01F9FF0
01FFC007FFF0
00FFC001FEF0
001FC00000F0
0007C00001F0
0003C00000F0
0000C0000070
ENDCHAR
STARTCHAR uni0915094D092A
ENCODING -1
SWIDTH 1386 0
DWIDTH 35 0
BBX 40 20 -3 0
BITMAP
FFFFFFFFF8
FFFFFFFFFE
7FFFFFFFFF
3FFFFFFFFF
0003C3C0F0
0003C3C0F0
00C3DFC0F0
03E3FFC0F0
07FBFFC0F0
07FBF3C1F0
07C3F1E3F0
0783E1E3F0
0787C0FFF0
03CFC03FF0
01FFC00EF0
00FFC000F0
001FC000F0
0003C001F0
0003C000F0
0001C00070
ENDCHAR
STARTCHAR uni0915094D092A0930
ENCODING -1
SWIDTH 1386 0
DWIDTH 35 0
BBX 40 21 -3 -1
BITMAP
FFFFFFFFF8
FFFFFFFFFE
7FFFFFFFFF
3FFFFFFFFF
0003C3C0F0
0003C3C0F0
00C3DFC0F0
03E3FFC0F0
07FBFFC0F0
07FBF3C1F0
07C3F1E3F0
0783E1E3F0
0787C0FFF0
03CFC03FF0
01FFC01FF0
00FFC03FF0
001FC07EF0
0003C0FDF0
0003C0F8F0
0001C0F070
0000002000
ENDCHAR
STARTCHAR uni0915094D092B
ENCODING -1
SWIDTH 1769 0
DWIDTH 44 0
BBX 50 20 -3 0
BITMAP
FFFFFFFFFFFE00
FFFFFFFFFFFF80
7FFFFFFFFFFFC0
3FFFFFFFFFFFC0
0003C3C0F00000
0003C3C0F00000
00C3DFC0F40000
03E3FFC0FFC000
07FBFFC0FFE000
07FBF3C1FEF000
07C3F1E3F87800
0783E1E3F87800
0787C0FFF0F800
03CFC03FF3F800
01FFC00EF3F800
00FFC000F1F000
001FC000F0E000
0003C001F00000
0003C000F00000
0001C000700000
ENDCHAR
STARTCHAR uni0915094D092E
ENCODING -1
SWIDTH 1353 0
DWIDTH 34 0
BBX 40 20 -3 0
BITMAP
FFFFFFFFF8
FFFFFFFFFC
7FFFFFFFFF
3FFFFFFFFF
0003C001E0
0003C001E0
00C3C801E0
03E3FF01E0
07FBFFC1E0
07FBF9E1E0
07C3F0F1E0
0783E0F1E0
0787CFFFE0
03CFCFFFE0
01FFCFFFE0
00FFCFE1E0
001FC7E1E0
0003C3C3E0
0003C001E0
0001C000E0
ENDCHAR
STARTCHAR uni0915094D092F
ENCODING -1
SWIDTH 1363 0
DWIDTH 34 0
BBX 40 20 -3 0
BITMAP
FFFFFFFFF8
FFFFFFFFFC
7FFFFFFFFF
1FFFFFFFFF
0003C001E0
0003C001E0
00C3C001E0
03E3FF01E0
07FBFF81E0
07FBF9C1E0
07C3F1E1E0
0783E1F1E0
0787C1F1E0
038FCFF3E0
01FFCFE7E0
00FFCFCFE0
001FC3FFE0
0007C1FFE0
0003C03DE0
0000C00060
ENDCHAR
STARTCHAR uni0915094D0930
ENCODING -1
SWIDTH 671 0
DWIDTH 17 0
BBX 26 22 -3 -2
BITMAP
FFFFFE00
FFFFFF80
7FFFFFC0
3FFFFFC0
0003C000
0003C000
00C3D800
03E3FF00
07FBFF80
07FBF9C0
07C3F040
0783E000
0787C000
03CFC000
01FFC000
00FFC000
007FC000
00FFC000
01FBC000
01F0C000
01F00000
00E00000
ENDCHAR
STARTCHAR uni0915094D0937
ENCODING -1
SWIDTH 971 0
DWIDTH 24 0
BBX 25 24 2 -4
BITMAP
1F0FFC00
3F8FFF00
7FC7FF80
7CE1FF80
7CF0F800
3DF0F800
1FF0F800
0FE1F800
0FC7F800
3FFFF800
7F7FF800
7E1FF800
FC00F800
F9C0F800
F1F0F800
F1F8F800
79FCF800
3FFCF800
1FFCF800
03F83800
00380000
001C0000
00070000
00038000
ENDCHAR
STARTCHAR uni0915094D0937.ss11
ENCODING -1
SWIDTH 1223 0
DWIDTH 31 0
BBX 36 25 -3 -5
BITMAP
FFFFFFFF80
FFFFFFFFE0
7FFFFFFFF0
1FFFFFFFF0
0000000F00
0000000F00
0000000F00
0FFFFFEF00
07FFFFEF00
03FFFFEF00
003F000F00
003C000F00
003C000F00
003C3C0F00
001C3F0F00
001E3F8F00
000F3F8F00
0007FFDF00
0001FF8F00
00007F8700
0000070000
000001C000
000000E000
0000003000
0000001000
ENDCHAR
STARTCHAR uni0915094D09370930
ENCODING -1
SWIDTH 1053 0
DWIDTH 26 0
BBX 28 24 1 -4
BITMAP
1F01FF80
3F81FFE0
7FC0FFF0
7CE03FF0
7CF01F00
3DF01F00
1FF01F00
0FE03F00
0FC1FF00
3FFFFF00
7F7FFF00
7E1FFF00
FC001F00
F9E03F00
F1F07F00
F1F8FF00
79FDFF00
3FFDFF00
1FFDFF00
03F86700
00380000
001E0000
00070000
00038000
ENDCHAR
STARTCHAR uni0915094D0937094D
ENCODING -1
SWIDTH 624 0
DWIDTH 16 0
BBX 20 24 2 -4
BITMAP
1F0000
3F8000
7FC000
7CE000
7CF000
3DF000
1FF0C0
0FE1F0
0FCFF0
3FFFE0
7F7FC0
7E1E00
FC0000
F9C000
F1F000
F1F800
79FC00
3FFC00
1FFC00
03F800
003800
001E00
000700
000380
ENDCHAR
STARTCHAR uni0915094D0937094D092E
ENCODING -1
SWIDTH 1353 0
DWIDTH 34 0
BBX 36 24 1 -4
BITMAP
1F1FFFFF80
3F9FFFFFC0
7FCFFFFFF0
7CE3FFFFF0
7CF07C1E00
3DF07C1E00
1FF07C1E00
0FE07C1E00
0FC07C1E00
3FE3FFFE00
7F7FFFFE00
7E1FFFFE00
FC0FFFFE00
F9E3F81E00
F1F1F81E00
F1F8701E00
79FC001E00
3FFC003E00
1FFC001E00
03F8000E00
0038000000
001E000000
0007000000
0003800000
ENDCHAR
STARTCHAR uni0915094D0937094D092F
ENCODING -1
SWIDTH 1354 0
DWIDTH 34 0
BBX 36 24 1 -4
BITMAP
1F1FFFFF80
3F9FFFFFC0
7FCFFFFFF0
7CE3FFFFF0
7CF03C1E00
3DF03C1E00
1FF03E1E00
0FE03E1E00
0FC07E1E00
3FE0FC1E00
7F7FF83E00
7E1FF07E00
FC0FF1FE00
F9C3FFFE00
F1F01FFE00
F1F8031E00
79FC001E00
3FFC003E00
1FFC001E00
03F8000E00
0038000000
001C000000
0007000000
0003800000
ENDCHAR
STARTCHAR uni0915094D0937094D0935
ENCODING -1
SWIDTH 1308 0
DWIDTH 33 0
BBX 34 24 1 -4
BITMAP
1F1FFFFE00
3F9FFFFF80
7FCFFFFFC0
7CE7FFFFC0
7CF0003C00
3DF0003C00
1FF0183C00
0FE07C3C00
0FC0FE3C00
3FE0FE3C00
7F7FF03C00
7E1FF07C00
FC0FF0FC00
F9E3F1FC00
F1F03FFC00
F1F81FFC00
79FC033C00
3FFC007C00
1FFC003C00
03F8001C00
0038000000
001E000000
0007000000
0003800000
ENDCHAR
STARTCHAR uni0915094D0938094D091F
ENCODING -1
SWIDTH 1993 0
DWIDTH 50 0
BBX 56 21 -3 -1
BITMAP
FFFFFFFFFFFFF8
FFFFFFFFFFFFFE
7FFFFFFFFFFFFF
3FFFFFFFFFFFFF
0003C03C003E00
0003C03C003E00
00C3C01E003E00
03E3FF1E01FE00
07FBFF9E07FE00
07FBFBDE0FFE00
07C3F7FE0FE000
0783E7FF0F8000
0787C7FFFF0000
03CFC3FDFF0000
01FFC1FCFF0080
00FFC0703F01E0
001FC03C0703F0
0007C00E03CFF0
0003C00781FFE0
0000C001C07F80
00000000800000
ENDCHAR
STARTCHAR uni0915094D0938094D0921
ENCODING -1
SWIDTH 1909 0
DWIDTH 48 0
BBX 54 21 -3 -1
BITMAP
FFFFFFFFFFFFC0
FFFFFFFFFFFFF0
7FFFFFFFFFFFFC
3FFFFFFFFFFFFC
0003C03C001F00
0003C03C01FF00
00C3D01E0FFF00
03E3FF1E1FFF00
07FBFF9E1FFF00
07FBFBDF3F0000
07C3F7FFFF0000
0783E7FFFEF800
0787C7FEFFFE00
03CFC3FC01FF00
01FFC1FC006780
00FFC0703007C0
001FC03C1C0FC0
0007C00E0FFFC0
0003C00787FF00
0000C001C3FC00
00000000800000
ENDCHAR
STARTCHAR uni0915094D0938094D0924
ENCODING -1
SWIDTH 1932 0
DWIDTH 48 0
BBX 54 21 -3 -1
BITMAP
FFFFFFFFFFFFE0
FFFFFFFFFFFFF8
7FFFFFFFFFFFFC
3FFFFFFFFFFFFC
0003C03C0007C0
0003C03C0007C0
00C3D01C0007C0
03E3FF1E0007C0
07FBFF9E0007C0
07FBFBDE01FFC0
07C3F7FE07FFC0
0783E7FF0FFFC0
0787C7FFFFFFC0
03CFC3FDFF07C0
01FFC1FCFF07C0
00FFC0703F07C0
001FC03C0F07C0
0007C00E0387C0
0003C00781C7C0
0000C001C061C0
00000000800000
ENDCHAR
STARTCHAR uni0915094D0938094D092A094D0932
ENCODING -1
SWIDTH 2392 0
DWIDTH 60 0
BBX 66 21 -3 -1
BITMAP
FFFFFFFFFFFFFFFC00
FFFFFFFFFFFFFFFF00
7FFFFFFFFFFFFFFFC0
3FFFFFFFFFFFFFFFC0
0003C03C3C00007800
0003C03C3C00007800
00C3D01C3C00007800
03E3FF1E3C1FE0F800
07FBFF9E3C3FF1F800
07FBFBDE3C3F7BF800
07C3F7FE3C3E3FF800
0783E7FF1E7C3FF800
0787C7FFFFFC3FF800
03CFC3FDFFFC3F7800
01FFC1FCFEEE0C7800
00FFC0703807007800
001FC03C0001C07800
0007C00E0000C0F800
0003C0078000007800
0000C001C000003800
000000008000000000
ENDCHAR
STARTCHAR khadeva_radeva
ENCODING -1
SWIDTH 1242 0
DWIDTH 31 0
BBX 37 21 -3 -1
BITMAP
FFFFFFFFC0
FFFFFFFFE0
7FFFFFFFF8
3FFFFFFFF8
003C000F00
003C000F00
003C060F00
001E1F8F00
001E1FCF00
039E3FCF00
07FE3E0F00
07FE3C1F00
07FE1C3F00
03FC1E7F00
01FC0FFF00
007003FF00
003C03FF00
000E07FF00
000787CF00
0001C38300
0000800000
ENDCHAR
STARTCHAR uni0916094D0916
ENCODING -1
SWIDTH 2185 0
DWIDTH 55 0
BBX 60 21 -3 -1
BITMAP
FFFFFFFFFFFFFF80
FFFFFFFFFFFFFFE0
7FFFFFFFFFFFFFF0
3FFFFFFFFFFFFFF0
003C000038000F00
003C00003C000F00
003C02003C060F00
001E0F803C1F0F00
001E1FC03C3F8F00
039E3FC3BE3F8F00
07FE3E0FFE3C0F00
07FE3E0FFE3C1F00
07FE1E0FFC3C3F00
03FC1F1FFC1C7F00
01FC0FFFF80FFF00
007003FEF007FF00
003C00703800CF00
000E00001E001F00
0007800007000F00
0001C00003C00700
0000800000800000
ENDCHAR
STARTCHAR uni0916094D0928
ENCODING -1
SWIDTH 1696 0
DWIDTH 42 0
BBX 48 21 -3 -1
BITMAP
FFFFFFFFFFF8
FFFFFFFFFFFE
7FFFFFFFFFFF
3FFFFFFFFFFF
003C000000F0
003C000000F0
003C020000F0
001E0F8000F0
001E1FC000F0
039E3FC3FFF0
07FE3E0FFFF0
07FE3E0FFFF0
07FE1E0FFFF0
03FC1F1FF0F0
01FC0FFFE0F0
007003FEC0F0
003C007000F0
000E000001F0
0007800001F0
0001C0000070
000080000000
ENDCHAR
STARTCHAR uni0916094D092E
ENCODING -1
SWIDTH 1803 0
DWIDTH 45 0
BBX 51 21 -3 -1
BITMAP
FFFFFFFFFFFF00
FFFFFFFFFFFF80
7FFFFFFFFFFFE0
3FFFFFFFFFFFE0
003C0000783E00
003C0000783E00
003C0200783E00
001E0F80783E00
001E1FC0783E00
039E3FC3FFFE00
07FE3E0FFFFE00
07FE3E0FFFFE00
07FE1E0FFFFE00
03FC1F3FF03E00
01FC0FFFF03E00
007003FEE03E00
003C0070003E00
000E0000007E00
00078000003E00
0001C000000E00
00008000000000
ENDCHAR
STARTCHAR uni0916094D092F
ENCODING -1
SWIDTH 1751 0
DWIDTH 44 0
BBX 50 21 -3 -1
BITMAP
FFFFFFFFFFFC00
FFFFFFFFFFFF00
7FFFFFFFFFFFC0
3FFFFFFFFFFFC0
003C0000F07800
003C0000F07800
003C0200F87800
001E0F80F87800
001E1FC1F87800
039E3FC3F07800
07FE3E07E0F800
07FE3E07C1F800
07FE1E0FC7F800
03FC1F1FFFF800
01FC0FFF7FF800
007003FE007800
003C0078007800
000E000000F800
00078000007800
0001C000003800
00008000000000
ENDCHAR
STARTCHAR uni0916094D0930
ENCODING -1
SWIDTH 894 0
DWIDTH 22 0
BBX 33 22 -3 -2
BITMAP
FFFFFFF800
FFFFFFFE00
7FFFFFFF80
3FFFFFFF80
003C000000
003C000000
003C060000
001E1F8000
001E1FC000
039E3FC000
07FE3E0800
07FE3C1E00
07FE3C1F00
03FC1E3E00
01FC0FFC00
007003FC00
003C01F800
000E03F000
000787E000
0001C7C000
0000878000
0000010000
ENDCHAR
STARTCHAR uni0916094D0936
ENCODING -1
SWIDTH 1815 0
DWIDTH 45 0
BBX 51 21 -3 -1
BITMAP
FFFFFF87C3FF00
FFFFFFEFE3FFC0
7FFFFFFFF1FFE0
3FFFFFFF387FE0
003C000F383E00
003C0007FC3E00
003C0183FC3E00
001E0FC0FC3E00
001E1FC03C3E00
039E3F07FC3E00
07FE3E0FFC3E00
07FE3E0FFC3E00
07FE1E1FF83E00
03FC1E3FFC3E00
01FC0FFFFE3E00
007003FCE3BE00
00380070013E00
000E0000003E00
00078000003E00
0001C000000E00
00008000000000
ENDCHAR
STARTCHAR gadeva_radeva
ENCODING -1
SWIDTH 850 0
DWIDTH 21 0
BBX 28 22 -4 -2
BITMAP
FFFFFF80
FFFFFFE0
7FFFFFF0
1FFFFFF0
001E1F00
001E1F00
001E1F00
001E1F00
001E1F00
01FE1F00
03FE1F00
03FE1F00
03FE1F00
01FC3F00
00FC7F00
0030FF00
0001FF00
0003FF00
0007FF00
0007C700
00078000
00030000
ENDCHAR
STARTCHAR uni09170930092F
ENCODING -1
SWIDTH 1256 0
DWIDTH 31 0
BBX 38 22 -4 -2
BITMAP
FFFFFFFFE0
FFFFFFFFF8
7FFFFFFFFC
1FFFFFFFFC
001E0703C0
001E0783C0
001E0783C0
001E0F83C0
001E0F83C0
01FE3F87C0
03FE7F07C0
03FE3C1FC0
03FE1E3FC0
01FC3FFFC0
00FC7FFFC0
0030FC03C0
0001F803C0
0003F007C0
0007E007C0
0007C001C0
0007800000
0003000000
ENDCHAR
STARTCHAR uni0917094D0928
ENCODING -1
SWIDTH 850 0
DWIDTH 21 0
BBX 28 23 -4 -3
BITMAP
FFFFFF80
FFFFFFE0
7FFFFFF0
1FFFFFF0
001E1F00
001E1F00
001E1F00
001E1F00
001E1F00
01FE1F00
03FE1F00
03FE3F00
03FE7F00
01FCFF00
00FDFF00
0033FF00
0007FF00
000FDF00
000FDF00
001FE700
000FE000
0007E000
0001E000
ENDCHAR
STARTCHAR uni0917094D092D
ENCODING -1
SWIDTH 1279 0
DWIDTH 32 0
BBX 39 20 -4 0
BITMAP
FFFFE07FF0
FFFFF87FF8
7FFFFE3FFE
1FFFFF1FFE
001E0783C0
001E0383C0
001E03C3C0
001E03C3C0
001E03C3C0
01FE1FFFC0
03FE7FFFC0
03FE7FFFC0
03FE3FFFC0
01FC3F83C0
00FC0F83C0
00300703C0
00000003C0
00000007C0
00000003C0
00000000C0
ENDCHAR
STARTCHAR uni0917094D092D094D092F
ENCODING -1
SWIDTH 1696 0
DWIDTH 42 0
BBX 49 20 -4 0
BITMAP
FFFFE07FFFFC00
FFFFF87FFFFF00
7FFFFE3FFFFF80
1FFFFF1FFFFF80
001E0780E0F800
001E0380F0F800
001E03C0F0F800
001E03C1F0F800
001E03C1F0F800
01FE1FFFF0F800
03FE7FFFE0F800
03FE7FFF83F800
03FE3FFFC7F800
01FC3F81FFF800
00FC0F807FF800
0030070000F800
0000000000F800
0000000000F800
0000000000F800
00000000003800
ENDCHAR
STARTCHAR uni0917094D0930
ENCODING -1
SWIDTH 503 0
DWIDTH 13 0
BBX 23 22 -4 -2
BITMAP
FFFF00
FFFFC0
7FFFE0
1FFFE0
001E00
001E00
001E00
001E00
001E00
01FE00
03FE00
03FE00
03FE1C
01FC3E
00FC7E
0030FC
0001F8
0003F0
0007E0
0007C0
000780
000300
ENDCHAR
STARTCHAR ghadeva_radeva
ENCODING -1
SWIDTH 925 0
DWIDTH 23 0
BBX 30 25 -4 -5
BITMAP
FFFFFFE0
FFFFFFF0
7FFFFFFC
1FFFFFFC
03FC07C0
03E007C0
03C007C0
03C007C0
01FC07C0
007F07C0
00FF87C0
00FF87C0
00F807C0
00F00FC0
00F03FC0
007DFFC0
001FFFC0
0007FFC0
0001F7C0
0003F1C0
0007E000
000FC000
000F8000
00070000
00020000
ENDCHAR
STARTCHAR uni0918094D0930
ENCODING -1
SWIDTH 577 0
DWIDTH 14 0
BBX 25 25 -4 -5
BITMAP
FFFFFC00
FFFFFF00
7FFFFF80
1FFFFF80
03FC0000
03E00000
03C00000
03C00000
01FC0000
007F0000
00FF8000
00FE8400
00F80F00
00F01F80
00F03F00
007DFE00
001FFC00
0007F800
0001F000
0003F000
0007E000
000FC000
000F8000
00070000
00020000
ENDCHAR
STARTCHAR uni0919094D0915
ENCODING -1
SWIDTH 903 0
DWIDTH 23 0
BBX 30 34 -4 -14
BITMAP
FFFFFFE0
FFFFFFF8
7FFFFFFC
1FFFFFFC
0000F800
001FF800
007FF800
00FFF9E0
00FFF9E0
00F801E0
00F7C1E0
0E7FF000
071FF800
03863C00
01E07E00
007FFE00
003FFC00
001FE000
0007C000
0387FC00
07E7FF00
0FF7FF80
0F87E3C0
0F07C3C0
0F0FC3E0
0F0FC3E0
079FDFC0
03FFDFC0
00FFC780
0007C000
0007C000
000FC000
0003C000
0000C000
ENDCHAR
STARTCHAR uni0919094D09150930
ENCODING -1
SWIDTH 903 0
DWIDTH 23 0
BBX 30 34 -4 -14
BITMAP
FFFFFFE0
FFFFFFF8
7FFFFFFC
1FFFFFFC
0000F000
001FF000
007FF000
00FFF1E0
00FFF1E0
00F801E0
00F7C1E0
0E7FF000
071FF800
03863C00
01E07E00
007FFE00
003FFC00
001FE000
0007C000
0387FC00
07E7FF00
0FF7FF80
0F87E3C0
0F07C3C0
0F0FC3E0
0F0FC3E0
079FDFC0
03FFDFC0
00FFC780
00FFC000
01FFC000
01FFC000
01E3C000
0040C000
ENDCHAR
STARTCHAR uni0919094D0915094D0937
ENCODING -1
SWIDTH 903 0
DWIDTH 23 0
BBX 30 38 -4 -18
BITMAP
FFFFFFE0
FFFFFFF8
7FFFFFFC
1FFFFFFC
0000F800
001FF800
007FF800
00FFF9E0
00FFF9E0
00F801E0
00F381E0
0E7FF000
071FF800
03863C00
01E07E00
007FFE00
1E3FFC00
3F9FFC00
7FC03C00
7CE03C00
7CE07C00
3DFFFC00
1FFFFC00
0FEFFC00
0FC7FC00
1F803C00
3F303C00
3E7C3C00
3E7E3C00
1E7F3C00
0F7F3C00
07FF7C00
01FE1C00
001C0C00
000E0000
00070000
00018000
00008000
ENDCHAR
STARTCHAR uni0919094D0915094D0937.ss11
ENCODING -1
SWIDTH 903 0
DWIDTH 23 0
BBX 32 36 -6 -16
BITMAP
3FFFFFF8
3FFFFFFE
1FFFFFFF
07FFFFFF
00003C00
0007FC00
001FFC00
003FFC78
003FFC78
003E0078
003DE078
039FFC00
01C7FE00
00E18F00
00781F80
001FFF80
000FFF00
0007FF00
00000F00
00000F00
FFFFFF00
FFFFFF00
7FFFFF00
07C00F00
07800F00
079E0F00
079F8F00
039FCF00
039FCF00
01FFCF00
007FCF00
001F9F00
00038F00
0000E300
00007800
00001800
ENDCHAR
STARTCHAR uni0919094D0916
ENCODING -1
SWIDTH 1244 0
DWIDTH 31 0
BBX 38 34 -4 -14
BITMAP
FFFFFFFFE0
FFFFFFFFF0
7FFFFFFFFC
1FFFFFFFFC
0000F007C0
001FF007C0
007FF007C0
00FFF1E7C0
00FFF1E7C0
00F801E7C0
00F381E7C0
0E7FF007C0
071FF807C0
03863C07C0
01E07E07C0
007FFE07C0
003FFC07C0
001FE007C0
00070387C0
000787E7C0
00078FE7C0
00FFCF87C0
01FFCF87C0
00FFCF0FC0
00FF8F0FC0
007F87FFC0
001F03FFC0
000E00FFC0
00070007C0
00038007C0
0000C007C0
00007007C0
00003803C0
0000100000
ENDCHAR
STARTCHAR uni0919094D0917
ENCODING -1
SWIDTH 896 0
DWIDTH 22 0
BBX 30 28 -4 -8
BITMAP
FFFFFFE0
FFFFFFF8
7FFFFFFC
1FFFFFFC
0000F000
001FF000
007FF000
00FFF1E0
00FFF1E0
00F801E0
00F381E0
0E7FF000
071FF800
03863C00
01E07E00
007FFE00
003FFC00
003FFC00
003C3C00
07FC3C00
0FFC3C00
07FC3C00
07FC3C00
03F83C00
00F07C00
00007C00
00003C00
00001C00
ENDCHAR
STARTCHAR uni0919094D09170930
ENCODING -1
SWIDTH 896 0
DWIDTH 22 0
BBX 30 30 -4 -10
BITMAP
FFFFFFE0
FFFFFFF8
7FFFFFFC
1FFFFFFC
0000F000
001FF000
007FF000
00FFF1E0
00FFF1E0
00F801E0
00F381E0
0E7FF000
071FF800
03863C00
01E07E00
007FFE00
003FFC00
003FFC00
003C3C00
07FC3C00
0FFC3C00
07FC7C00
07FCFC00
03F9FC00
00F3FC00
0007FC00
000FFC00
000F9C00
000F0000
00030000
ENDCHAR
STARTCHAR uni0919094D0918
ENCODING -1
SWIDTH 994 0
DWIDTH 25 0
BBX 33 28 -4 -8
BITMAP
FFFFFFF800
FFFFFFFE00
7FFFFFFF80
1FFFFFFF80
00003E0000
0003FE0000
001FFE0000
003FFE7800
003FFE7800
003E007800
013CF07800
019FFC0000
01C7FE0000
00E08F0000
03F81F8000
07FFFF8000
07FFFF8000
0787FF8000
07800F8000
03D00F8000
01FC0F8000
00FE0F8000
01FE1F8000
01F03F8000
00F07F8000
0079FF8000
003FFF8000
000FE38000
ENDCHAR
STARTCHAR uni0919094D09180930
ENCODING -1
SWIDTH 994 0
DWIDTH 25 0
BBX 33 33 -4 -13
BITMAP
FFFFFFF800
FFFFFFFE00
7FFFFFFF80
1FFFFFFF80
00003E0000
0003FE0000
001FFE0000
003FFE7800
003FFE7800
003E007800
013CF07800
019FFC0000
01C7FE0000
00E08F0000
03F81F8000
07FFFF8000
07FFFF8000
0787FF8000
07800F8000
03D00F8000
01FC0F8000
00FF0F8000
01FF1F8000
01F03F8000
00F07F8000
0079FF8000
003FFF8000
000FFB8000
0003F00000
0007E00000
000FC00000
000F800000
0003000000
ENDCHAR
STARTCHAR uni0919094D092E
ENCODING -1
SWIDTH 1252 0
DWIDTH 31 0
BBX 38 28 -4 -8
BITMAP
FFFFFFFFE0
FFFFFFFFF8
7FFFFFFFFC
1FFFFFFFFC
0000F007C0
001FF007C0
007FF007C0
00FFF1E7C0
00FFF1E7C0
00F801E7C0
00F781E7C0
0E7FF007C0
071FF807C0
03863C07C0
01E07E07C0
007FFE07C0
003FFC07C0
001FFC07C0
00003C07C0
00003C07C0
0003FFFFC0
0007FFFFC0
0003FFFFC0
0003FC07C0
0001FC07C0
0000780FC0
00000003C0
00000001C0
ENDCHAR
STARTCHAR uni0919094D092F
ENCODING -1
SWIDTH 1259 0
DWIDTH 31 0
BBX 38 20 -4 0
BITMAP
FFFFFFFFE0
FFFFFFFFF8
7FFFFFFFFC
1FFFFFFFFC
0000F003C0
001FF003C0
007FF003C0
00FFF1E3C0
00FFF1E3C0
00F801E3C0
00F001E3C0
0077C003C0
043FF007C0
0E0FFC0FC0
03033E1FC0
01803FFFC0
00F07FFFC0
007FFEFFC0
003FF807C0
000FE001C0
ENDCHAR
STARTCHAR uni0919094D0930
ENCODING -1
SWIDTH 911 0
DWIDTH 23 0
BBX 31 33 -4 -13
BITMAP
FFFFFFF0
FFFFFFFC
7FFFFFFE
1FFFFFFE
0000F000
001FF000
007FF000
00FFF1E0
00FFF1E0
00F801E0
00F001E0
0077C000
043FF000
0E0FFC00
03033C00
01803E00
00F07E00
007FFE00
003FF800
000FE000
0007C000
0007F000
000FB800
000F8E00
001F0700
001F0180
00000080
00003800
00001C00
00000700
00000380
000000E0
00000060
ENDCHAR
STARTCHAR cadeva_radeva
ENCODING -1
SWIDTH 939 0
DWIDTH 23 0
BBX 29 21 -3 -1
BITMAP
FFFFFFC0
FFFFFFF0
7FFFFFF8
3FFFFFF8
00000780
00000780
0FFE0780
0FFF8780
07FFC780
01FFC780
003E0F80
001E1F80
001E3F80
000E7F80
0007FF80
0003FF80
0003F780
0003EF80
0003CF80
00018380
00008000
ENDCHAR
STARTCHAR uni091A094D091A
ENCODING -1
SWIDTH 1240 0
DWIDTH 31 0
BBX 37 20 -3 0
BITMAP
FFFFFFFFC0
FFFFFFFFE0
7FFFFFFFF8
3FFFFFFFF8
0000000F00
0000000F00
0FFFFE0F00
0FFFFF8F00
07FFFFCF00
01FFFFCF00
007C3E0F00
007C3C1F00
003C7C1F00
003CFE3F00
001FFFFF00
0007F3FF00
0001C06F00
0000001F00
0000000F00
0000000300
ENDCHAR
STARTCHAR uni091A094D091B
ENCODING -1
SWIDTH 1671 0
DWIDTH 42 0
BBX 47 20 -3 0
BITMAP
FFFFFFFFFFF0
FFFFFFFFFFFC
7FFFFFFFFFFE
3FFFFFFFFFFE
000003800F00
00000FE00F00
0FFE0FF01F00
0FFF0FF03F80
07FF8F007FC0
01FF8F007DE0
003E07F878F0
003C03FC78F0
003C07FE78F0
001E1FF03FF0
000FFFE01FF0
0007FFC007F0
0000F9E00FE0
000000F0FFC0
0000007FFF80
0000000FFE00
ENDCHAR
STARTCHAR uni091A094D0928
ENCODING -1
SWIDTH 1329 0
DWIDTH 33 0
BBX 39 20 -3 0
BITMAP
FFFFFFFFF0
FFFFFFFFFC
7FFFFFFFFE
3FFFFFFFFE
00000003E0
00000003E0
0FFE0003E0
0FFF0003E0
07FF8003E0
01FF87FFE0
003E1FFFE0
003C1FFFE0
003C1FFFE0
001E3FE3E0
000FFFC3E0
0007FD83E0
0000E003E0
00000003E0
00000003E0
00000000E0
ENDCHAR
STARTCHAR uni091A094D092E
ENCODING -1
SWIDTH 1436 0
DWIDTH 36 0
BBX 42 20 -3 0
BITMAP
FFFFFFFFFE00
FFFFFFFFFF00
7FFFFFFFFFC0
3FFFFFFFFFC0
000000F07800
000000F07800
0FFE00F07800
0FFF00F07800
07FF80F07800
01FF87FFF800
003E1FFFF800
003C1FFFF800
003C1FFFF800
001E3FE07800
000FFFE07800
0007FDC07800
0000E0007800
00000000F800
000000007800
000000001800
ENDCHAR
STARTCHAR uni091A094D092F
ENCODING -1
SWIDTH 1384 0
DWIDTH 35 0
BBX 40 20 -3 0
BITMAP
FFFFFFFFF8
FFFFFFFFFE
7FFFFFFFFF
3FFFFFFFFF
000001E0F0
000001E0F0
0FFE01E0F0
0FFF01E0F0
07FF83E0F0
01FF8FE0F0
007C0FC1F0
003C0F03F0
003C1F8FF0
001E3FFFF0
000FFEFFF0
0007FC00F0
0000F000F0
00000001F0
00000000F0
0000000070
ENDCHAR
STARTCHAR uni091A094D0930
ENCODING -1
SWIDTH 591 0
DWIDTH 15 0
BBX 25 22 -3 -2
BITMAP
FFFFFC00
FFFFFF00
7FFFFF80
3FFFFF80
00000000
00000000
0FFE0000
0FFF8000
07FFC000
01FFC000
003E0400
001E0F00
001E1F00
000E3F00
0007FE00
0003FC00
0001F800
0003F000
0003E000
0007C000
0007C000
00018000
ENDCHAR
STARTCHAR uni091B094D092F
ENCODING -1
SWIDTH 1489 0
DWIDTH 37 0
BBX 44 20 -4 0
BITMAP
FFFFFFFFFF80
FFFFFFFFFFE0
7FFFFFFFFFF0
1FFFFFFFFFF0
00F003C01F00
01F803C01F00
03FC07C01F00
03FC0FF01F00
03E01FF81F00
03E01F381F00
01FE1F3C1F00
007F9F3C1F00
00FF8F3C1F00
00FC0F7E3F00
00F807FC7F00
00F801FCFF00
007803FFFF00
003E1FFFFF00
001FFFE3DF00
0003FF800700
ENDCHAR
STARTCHAR uni091B094D0930
ENCODING -1
SWIDTH 1083 0
DWIDTH 27 0
BBX 34 33 -4 -13
BITMAP
FFFFFFFE00
FFFFFFFF00
7FFFFFFFC0
1FFFFFFFC0
00F0000000
01F8000000
03FC07C000
03FC0FF000
03E01FF800
03E01F3800
01FE1F3C00
007F9F3C00
00FF8F3C00
00FC0F7C00
00F807FC00
00F801FC00
007803FC00
003E1FF800
001FFFE000
0003FF8000
00003E0000
00007F0000
00007BC000
0000F8E000
0000F03800
0000F01C00
0000000000
0000038000
000001C000
0000007000
0000003C00
0000000E00
0000000200
ENDCHAR
STARTCHAR jadeva_radeva
ENCODING -1
SWIDTH 879 0
DWIDTH 22 0
BBX 28 26 -3 -6
BITMAP
FFFFFF80
FFFFFFC0
7FFFFFF0
1FFFFFF0
00001E00
00001E00
00001E00
00001E00
00001E00
007FFE00
007FFE00
003FFE00
001FFE00
001E1E00
000F1E00
000F1E00
0E1F1E00
07FF3E00
03FE3E00
01FC7E00
0000F800
0001F800
0003F000
0003E000
0003C000
00008000
ENDCHAR
STARTCHAR uni091C094D0915
ENCODING -1
SWIDTH 1516 0
DWIDTH 38 0
BBX 44 20 -3 0
BITMAP
FFFFFFFFFF80
FFFFFFFFFFE0
7FFFFFFFFFF0
1FFFFFFFFFF0
0000007C0000
0000007C0000
0000187D0000
00003E7FE000
00007F7FF800
007FFF7F3C00
00FFF87E1E00
007FF87C1E00
003FF8FC3E00
001C79FDFE00
001F3FFDFE00
081F0FFCFC00
0E1F03FC3000
07FF007C0000
03FE007C0000
01FC001C0000
ENDCHAR
STARTCHAR uni091C094D091C
ENCODING -1
SWIDTH 1428 0
DWIDTH 36 0
BBX 41 20 -3 0
BITMAP
FFFFFFFFFC00
FFFFFFFFFF00
7FFFFFFFFF80
1FFFFFFFFF80
000000007800
000000007800
000000007800
000000007800
000000007800
007FFFFFF800
00FFFFFFF800
007FFFFFF800
003FFFFFF800
001C00707800
001F007C7800
081F207C7800
0E1F387C7800
07FF1FFCF800
03FE0FF87800
01FC07F03800
ENDCHAR
STARTCHAR uni091C094D091C094D091E
ENCODING -1
SWIDTH 1442 0
DWIDTH 36 0
BBX 42 25 -3 -5
BITMAP
FFFFFFFFFE00
FFFFFFFFFF00
7FFFFFFFFFC0
1FFFFFFFFFC0
000000007800
000000007800
000000007800
000000007800
00FFFFFFF800
01FFFFFFF800
00FFFFFFF800
007FFFFFF800
003800707800
001C00787800
001F3F3C7800
081F3FFC7800
0E1F3FFC7800
07FF1FFCF800
03FE0FF87800
01FC03FC1800
0000000E0000
000000070000
000000038000
00000001C000
000000008000
ENDCHAR
STARTCHAR uni091C094D091C094D092F
ENCODING -1
SWIDTH 1704 0
DWIDTH 43 0
BBX 48 20 -3 0
BITMAP
FFFFFFFFFFF8
FFFFFFFFFFFE
7FFFFFFFFFFF
1FFFFFFFFFFF
00000001E0F0
00000001E0F0
00000001E0F0
00000001F0F0
00000003E0F0
007FFFFFE0F0
00FFFFFFC1F0
007FFFFF03F0
003FFFFF8FF0
001C00F3FFF0
001F00F8FFF0
081F40F800F0
0E1F70F800F0
07FF3FF801F0
03FE1FF000F0
01FC0FE00070
ENDCHAR
STARTCHAR uni091C094D091C094D0935
ENCODING -1
SWIDTH 1650 0
DWIDTH 41 0
BBX 47 20 -3 0
BITMAP
FFFFFFFFFFF0
FFFFFFFFFFFC
7FFFFFFFFFFE
1FFFFFFFFFFE
0000000003E0
0000000003E0
0000000183E0
00000003E3E0
00000007F3E0
007FFFFFF3E0
00FFFFFF83E0
007FFFFF83E0
003FFFFF87E0
001C00F78FE0
001F00FBFFE0
081F40F8FFE0
0E1F70F80BE0
07FF3FF803E0
03FE1FF003E0
01FC0FE000E0
ENDCHAR
STARTCHAR uni091C094D091D
ENCODING -1
SWIDTH 1654 0
DWIDTH 41 0
BBX 47 27 -3 -7
BITMAP
FFFFFFFFFFF0
FFFFFFFFFFFC
7FFFFFFFFFFE
1FFFFFFFFFFE
00000007C3E0
0000007FC3E0
000003FFC3E0
007FFFFFC3E0
00FFFFFFC7E0
007FFFC00FE0
003FFF801FE0
001C03FFFFE0
001F39FFFFE0
081F3CFFFFE0
0E1F3E18E3E0
07FF3E01F3E0
03FE1F03F3E0
01FC0FFFF3E0
000007FFE3E0
000001FF00E0
000000700000
000000380000
0000000E0000
00000007FC00
00000001FF00
000000007F00
000000000E00
ENDCHAR
STARTCHAR uni091C094D091D.ss11
ENCODING -1
SWIDTH 1692 0
DWIDTH 42 0
BBX 49 20 -3 0
BITMAP
FFFFC0FFFFFC00
FFFFF8FFFFFE00
7FFFFC7FFFFF80
1FFFFE3FFFFF80
00000F03C00000
00000783C00000
00000783C00000
00000783C00000
00000783C00000
007FFFFFFE0000
00FFFFFFFF8000
007FFFFFFFC000
003FFFFFFFE000
001C3F03C0F000
001F1F03C0F000
081F0E03C0F000
0E1F0003C0F000
07FF0007C0F000
03FE0007C1F000
01FC0001C0F000
ENDCHAR
STARTCHAR uni091C094D091E
ENCODING -1
SWIDTH 871 0
DWIDTH 22 0
BBX 28 25 -3 -5
BITMAP
FFFFFF00
FFFFFFC0
7FFFFFF0
1FFFFFF0
00001E00
00001E00
00001E00
00001E00
00FFFE00
00FFFE00
00FFFE00
007FFE00
00381E00
001E1E00
0FCF1E00
0FFF1E00
0FFF1E00
07FF3E00
03FE1E00
00FE0E00
00030000
00018000
0000E000
00007000
00002000
ENDCHAR
STARTCHAR uni091C094D091E094D
ENCODING -1
SWIDTH 523 0
DWIDTH 13 0
BBX 23 25 -3 -5
BITMAP
FFFFF0
FFFFF8
7FFFFE
1FFFFE
000000
000000
000000
000000
00FFF0
00FFF8
00FFFE
007FFE
003800
001E00
0FCF00
0FFF00
0FFF00
07FF00
03FE00
00FE00
000300
000180
0000E0
000070
000020
ENDCHAR
STARTCHAR uni091C094D091E094D092F
ENCODING -1
SWIDTH 1188 0
DWIDTH 30 0
BBX 36 25 -3 -5
BITMAP
FFFFFFFF00
FFFFFFFFC0
7FFFFFFFF0
1FFFFFFFF0
00003C1E00
00003C1E00
00003E1E00
00003E1E00
00FF7E1E00
00FFFC1E00
00FFF83E00
007FF07E00
0038F1FE00
001E7FFE00
0FCF1FFE00
0FFF001E00
0FFF001E00
07FF003E00
03FE001E00
00FE000E00
0003000000
0001800000
0000E00000
0000700000
0000200000
ENDCHAR
STARTCHAR uni091C094D091F
ENCODING -1
SWIDTH 1249 0
DWIDTH 31 0
BBX 38 20 -3 0
BITMAP
FFFFFFFFE0
FFFFFFFFF0
7FFFFFFFFC
1FFFFFFFFC
000000F000
000000F000
000000F000
00000FF000
00001FF000
007FFFF000
00FFFF0000
007FFC0000
003FFC0000
001C780000
001F780200
081F380700
0E1F1C0F80
07FF0E3F80
03FE07FF00
01FC01FC00
ENDCHAR
STARTCHAR uni091C094D0921
ENCODING -1
SWIDTH 1260 0
DWIDTH 32 0
BBX 37 20 -3 0
BITMAP
FFFFFFFFC0
FFFFFFFFF0
7FFFFFFFF8
1FFFFFFFF8
0000001E00
000001FE00
00000FFE00
007FFFFE00
00FFFFFE00
007FFF0000
003FFF0000
001C0FF800
001F07FE00
081F01FF00
0E1F606780
07FF3007C0
03FE1E1FC0
01FC0FFFC0
000007FF00
000003FC00
ENDCHAR
STARTCHAR uni091C094D0924
ENCODING -1
SWIDTH 1242 0
DWIDTH 31 0
BBX 37 20 -3 0
BITMAP
FFFFFFFFC0
FFFFFFFFE0
7FFFFFFFF8
1FFFFFFFF8
0000000F00
0000000F00
0000000F00
0000000F00
0000000F00
007FFFFF00
00FFFFFF00
007FFFFF00
003FFFFF00
001C3E0F00
001F3E0F00
081F3E0F00
0E1F1E0F00
07FF0F1F00
03FE038F00
01FC01C300
ENDCHAR
STARTCHAR uni091C094D0926
ENCODING -1
SWIDTH 1209 0
DWIDTH 30 0
BBX 37 24 -3 -4
BITMAP
FFFFFFFFC0
FFFFFFFFE0
7FFFFFFFF8
1FFFFFFFF8
000000F800
000000F800
000000F800
00001FF800
00003FF800
007FFFF800
00FFFE0000
007FF80000
003FF80000
001C787800
001F387E00
081F387F00
0E1F1C7F00
07FF0FFF80
03FE03FF00
01FC00FE00
0000000E00
0000000700
00000001C0
00000000C0
ENDCHAR
STARTCHAR uni091C094D0928
ENCODING -1
SWIDTH 1228 0
DWIDTH 31 0
BBX 36 20 -3 0
BITMAP
FFFFFFFF80
FFFFFFFFE0
7FFFFFFFF0
1FFFFFFFF0
0000000F00
0000000F00
0000000F00
0000000F00
0000000F00
007FFFFF00
00FFFFFF00
007FFFFF00
003FFFFF00
001C3F0F00
001F1F0F00
081F0E0F00
0E1F000F00
07FF001F00
03FE000F00
01FC000700
ENDCHAR
STARTCHAR uni091C094D092C
ENCODING -1
SWIDTH 1165 0
DWIDTH 29 0
BBX 35 20 -3 0
BITMAP
FFFFFFFF00
FFFFFFFFC0
7FFFFFFFE0
1FFFFFFFE0
0000003E00
0000003E00
0000183E00
00003E3E00
00007F3E00
007FFF3E00
00FFFE3E00
007FFB3E00
003FF9FE00
001C78FE00
001F3FFE00
081F0FFE00
0E1F00BE00
07FF007E00
03FE003E00
01FC000E00
ENDCHAR
STARTCHAR uni091C094D092E
ENCODING -1
SWIDTH 1335 0
DWIDTH 33 0
BBX 39 20 -3 0
BITMAP
FFFFFFFFF0
FFFFFFFFFC
7FFFFFFFFE
1FFFFFFFFE
00000783E0
00000783E0
00000783E0
00000783E0
00000783E0
007FFFFFE0
00FFFFFFE0
007FFFFFE0
003FFFFFE0
001C3F83E0
001F1F03E0
081F0603E0
0E1F0003E0
07FF0003E0
03FE0003E0
01FC0000E0
ENDCHAR
STARTCHAR uni091C094D092F
ENCODING -1
SWIDTH 1191 0
DWIDTH 30 0
BBX 36 20 -3 0
BITMAP
FFFFFFFF00
FFFFFFFFC0
7FFFFFFFF0
1FFFFFFFF0
00003C1E00
00003C1E00
00003E1E00
00003E1E00
00007E1E00
007FFC1E00
007FF83E00
003FF07E00
001FF1FE00
001E7FFE00
000F1FFE00
000F001E00
0E1F001E00
07FF003E00
03FE001E00
01FC000E00
ENDCHAR
STARTCHAR uni091C094D0930
ENCODING -1
SWIDTH 531 0
DWIDTH 13 0
BBX 23 26 -3 -6
BITMAP
FFFFF0
FFFFFC
7FFFFE
1FFFFE
000000
000000
000000
000000
000000
007FF0
007FFC
003FFE
001FFE
001E00
000F00
000F00
0E1F00
07FF18
03FE3C
01FC7C
0000F8
0001F8
0003F0
0003E0
0003C0
000080
ENDCHAR
STARTCHAR uni091C094D0935
ENCODING -1
SWIDTH 1165 0
DWIDTH 29 0
BBX 35 20 -3 0
BITMAP
FFFFFFFF00
FFFFFFFFC0
7FFFFFFFE0
1FFFFFFFE0
0000003E00
0000003E00
0000183E00
00003E3E00
00007F3E00
007FFF3E00
00FFF83E00
007FF83E00
003FF87E00
001C78FE00
001F3FFE00
081F0FFE00
0E1F00BE00
07FF007E00
03FE003E00
01FC000E00
ENDCHAR
STARTCHAR jhadeva_radeva
ENCODING -1
SWIDTH 1110 0
DWIDTH 28 0
BBX 34 27 -3 -7
BITMAP
FFFFFFFC00
FFFFFFFF00
7FFFFFFFC0
1FFFFFFFC0
0000F07800
001FF07800
007FF07800
00FFF07800
01FFF0F800
01F001F800
00F003F800
00FFFFF800
0E7FFFF800
0F1FFF7800
0F823C7800
07C03C7800
07E0FE7800
03FFFCF800
00FFF9F800
007FE7F800
001C1FF000
00077FC000
0003FF8000
0000FF0000
00007FC000
00001FC000
0000018000
ENDCHAR
STARTCHAR jhadeva_radeva.ss11
ENCODING -1
SWIDTH 1230 0
DWIDTH 31 0
BBX 36 22 -2 -2
BITMAP
F81FFFFF80
FF1FFFFFE0
7FCFFFFFF0
1FE3FFFFF0
00E0780000
00F0780000
00F0780000
00F8780000
00F8780000
07FFFFC000
0FFFFFF000
0FFFFFFC00
0FFFFFFC00
07F1F81E00
03E3F81F00
00C3F81F00
0007F81F00
000FF81F00
001F781F00
003F381E00
003E000000
000C000000
ENDCHAR
STARTCHAR uni091D094D0928
ENCODING -1
SWIDTH 1480 0
DWIDTH 37 0
BBX 43 27 -3 -7
BITMAP
FFFFFFFFFF00
FFFFFFFFFF80
7FFFFFFFFFE0
1FFFFFFFFFE0
0000F0003C00
001FF0003C00
007FF0003C00
00FFF0003C00
01FFF0003C00
01F0007FFC00
00F001FFFC00
00FFC3FFFC00
0E7FFFFFFC00
0F1FFFFE3C00
0F823FFC3C00
07C03E383C00
07E0FE003C00
03FFFC007C00
00FFF8003C00
007FE0000C00
001C00000000
000700000000
0003C0000000
0000FF000000
00007FC00000
00001FC00000
000001800000
ENDCHAR
STARTCHAR uni091D094D0928.ss11
ENCODING -1
SWIDTH 1230 0
DWIDTH 31 0
BBX 36 23 -2 -3
BITMAP
F81FFFFF80
FF1FFFFFE0
7FCFFFFFF0
1FE3FFFFF0
00E0780000
00F0780000
00F0780000
00F8780000
00F8780000
07FFFFC000
0FFFFFF000
0FFFFFFC00
0FFFFFFC00
07F3F81E00
03E7F81F00
00CFF81F00
001FF81F00
003FF81F00
007F781F00
007F381E00
003F000000
001F800000
000F000000
ENDCHAR
STARTCHAR uni091D094D092E
ENCODING -1
SWIDTH 1587 0
DWIDTH 40 0
BBX 45 27 -3 -7
BITMAP
FFFFFFFFFFC0
FFFFFFFFFFF0
7FFFFFFFFFF8
1FFFFFFFFFF8
0000F01F0780
001FF01F0780
007FF01F0780
00FFF01F0780
01FFF01F0780
01F0007FFF80
00F001FFFF80
00FFC3FFFF80
0E7FFFFFFF80
0F1FFFFE0780
0F823FFC0780
07C03E180780
07E0FE000780
03FFFC000F80
00FFF8000780
007FE0000380
001C00000000
000700000000
0003C0000000
0000FF000000
00007FC00000
00001FC00000
000001800000
ENDCHAR
STARTCHAR uni091D094D092E.ss11
ENCODING -1
SWIDTH 1547 0
DWIDTH 39 0
BBX 43 20 -2 0
BITMAP
F81FFFFFFF00
FF1FFFFFFFC0
7FCFFFFFFFE0
1FE3FFFFFFE0
00E03C001E00
00F03C001E00
00F03C001E00
0FFFFFE01E00
0FFFFFF81E00
0FFFFFFC1E00
07F03C3E1E00
03F03C031E00
01E03CFFFE00
00003DFFFE00
00003CFFFE00
00003CFE1E00
00003C7E1E00
00007C3C3E00
00003C001E00
00001C000E00
ENDCHAR
STARTCHAR uni091D094D092F
ENCODING -1
SWIDTH 1529 0
DWIDTH 38 0
BBX 44 27 -3 -7
BITMAP
FFFFFFFFFF80
FFFFFFFFFFC0
7FFFFFFFFFF0
1FFFFFFFFFF0
0000F03C1F00
001FF01E1F00
007FF03E1F00
00FFF03E1F00
01FFF03E1F00
01F000FE1F00
00F001FC3F00
00FFC3F07F00
0E7FFFF0FF00
0F1FFFFFFF00
0F823F9FFF00
07C03E011F00
07E0FE001F00
03FFFC001F00
00FFF8001F00
007FE0000700
001C00000000
000700000000
0003C0000000
0000FF000000
00007FC00000
00001FC00000
000001800000
ENDCHAR
STARTCHAR uni091D094D092F.ss11
ENCODING -1
SWIDTH 1568 0
DWIDTH 39 0
BBX 44 20 -2 0
BITMAP
F81FFFFFFF80
FF1FFFFFFFE0
7FCFFFFFFFF0
1FE3FFFFFFF0
00E03C001F00
00F03C001F00
00F03C001F00
0FFFFFE01F00
0FFFFFF81F00
0FFFFFFC1F00
07F03C3E1F00
03F03C3F1F00
01E03C7F1F00
00003CFE3F00
00003CFC7F00
00003C79FF00
00003C3FFF00
00007C0FFF00
00003C001F00
00001C000700
ENDCHAR
STARTCHAR uni091D094D0930
ENCODING -1
SWIDTH 763 0
DWIDTH 19 0
BBX 29 27 -3 -7
BITMAP
FFFFFF00
FFFFFFC0
7FFFFFE0
1FFFFFE0
0000F000
001FF000
007FF000
00FFF040
01FFF0F0
01F001F0
01F003E0
00FFFFC0
0E7FFF80
0F1FFF00
0F863C00
07803C00
07E0FE00
03FFFC70
00FFF9F8
007FE7F8
001C1FF0
00077FC0
0003FF80
0000FF00
00007FC0
00001FC0
00000380
ENDCHAR
STARTCHAR nyadeva_radeva
ENCODING -1
SWIDTH 874 0
DWIDTH 22 0
BBX 28 25 -3 -5
BITMAP
FFFFFF80
FFFFFFC0
7FFFFFF0
1FFFFFF0
00001E00
00001E00
01F01E00
07FC1E00
07FE3E00
03CF7E00
0087FE00
0007FE00
000FFE00
071F9E00
07FF1E00
01FF3E00
00FC7E00
0000FE00
0001FE00
0003FE00
0007E000
000FC000
000F8000
000F0000
00070000
ENDCHAR
STARTCHAR uni091E094D091A
ENCODING -1
SWIDTH 1030 0
DWIDTH 26 0
BBX 26 27 3 -7
BITMAP
1E07FC00
7F87FF00
7FC3FFC0
79E1FFC0
10F07800
00F07800
81FFF800
F3FFF800
7FFFF800
3FC37800
0F007800
00007800
FFE07800
FFF87800
7FFC7800
3FFC7800
01F07800
01E0F800
01E0F800
00E1F800
007FF800
003FF800
00077800
0000F800
0000F800
00003800
00001800
ENDCHAR
STARTCHAR uni091E094D091A094D092F
ENCODING -1
SWIDTH 1878 0
DWIDTH 47 0
BBX 53 20 -3 0
BITMAP
FFFFFFFFFFFFC0
FFFFFFFFFFFFE0
7FFFFFFFFFFFF8
1FFFFFFFFFFFF8
000000001E0F00
000000001E0F00
00E0FFE01F0F00
03FCFFF01F0F00
07FE3FFC3F0F00
03CF1FFC7E0F00
018F83E0FE1F00
000F83C0F83F00
040F83E0F8FF00
071FEFE3FFFF00
03FFFFFFEFFF00
01FE7FFFC00F00
00FC1C07000F00
00000000001F00
00000000000F00
00000000000700
ENDCHAR
STARTCHAR uni091E094D091B
ENCODING -1
SWIDTH 1608 0
DWIDTH 40 0
BBX 46 20 -3 0
BITMAP
FFFFFFFFFFE0
FFFFFFFFFFF0
7FFFFFFFFFFC
1FFFFFFFFFFC
00000F003C00
00001F803C00
00F03FE07C00
03FC3FE0FF00
07FE3E01FF80
03CF1E01F380
018F9FE1F3C0
000F87F9F3C0
040F87F8F3E0
071FFFC0FFE0
03FFFF803FE0
01FE7F801FC0
00F83F803FC0
000003E1FF80
000000FFFE00
0000003FF800
ENDCHAR
STARTCHAR uni091E094D091C
ENCODING -1
SWIDTH 1035 0
DWIDTH 26 0
BBX 26 22 3 -2
BITMAP
1E07FE00
7F87FF00
7FE3FFC0
79E1FFC0
10F07800
00F07800
01FFF800
F3FFF800
7FFFF800
3FE37800
0F807800
00007800
01FFF800
03FFF800
01FFF800
01FFF800
81F07800
C1F07800
7FF07800
3FE0F800
1FC07800
00001800
ENDCHAR
STARTCHAR uni091E094D091C094D091E
ENCODING -1
SWIDTH 1061 0
DWIDTH 27 0
BBX 25 29 4 -9
BITMAP
1E0FFC00
7F8FFF00
FFC7FF80
79E1FF80
31F07800
01F0F800
81FFF800
F3FFF800
7FFFF800
3FC37800
1F007800
00007800
00007800
0FFFF800
0FFFF800
07FFF800
03807800
01C07800
78F07800
FFF07800
FFF07800
7FF07800
3FF07800
1FE0F800
0030F800
00183800
000C1800
00070000
00020000
ENDCHAR
STARTCHAR uni091E094D091C094D092F
ENCODING -1
SWIDTH 1398 0
DWIDTH 35 0
BBX 35 21 3 -1
BITMAP
1E07FFFF00
7F87FFFF80
7FE3FFFFE0
79E1FFFFE0
10F0783C00
00F0783C00
01F87C3C00
F3FFFC3C00
7FFFFC3C00
3FE3F83C00
0F8FF07C00
003FE0FC00
007FE3FC00
007F7FFC00
003C3FFC00
003C003C00
103E003C00
3E7E007C00
0FFC003C00
07F8000C00
03E0000000
ENDCHAR
STARTCHAR uni091E094D0930
ENCODING -1
SWIDTH 526 0
DWIDTH 13 0
BBX 23 24 -3 -4
BITMAP
FFFFE0
FFFFF0
7FFFFC
1FFFFC
000000
000000
01F000
07FC00
07FE38
03CF7E
0087FE
0007FC
040FF8
071F90
07FF3C
01FF7C
00FCFC
0001F8
0003F0
0007E0
000FC0
000F80
000F00
000300
ENDCHAR
STARTCHAR uni091E094D0936
ENCODING -1
SWIDTH 1418 0
DWIDTH 35 0
BBX 41 20 -3 0
BITMAP
FFFF1F0FFC00
FFFFBF8FFF00
7FFFFFC7FF80
3FFFFCE1FF80
00003CE07800
00001FF07800
00E00FF07800
03FC03F07800
07FE00F07800
03CF1EF07800
018F3FF07800
000FBFF07800
040FBFF07800
071F9FF07800
03FF0FF87800
01FE038E7800
00FC00047800
00000000F800
00000000F800
000000003800
ENDCHAR
STARTCHAR uni091F094D091F
ENCODING -1
SWIDTH 804 0
DWIDTH 20 0
BBX 27 28 -3 -8
BITMAP
FFFFFF00
FFFFFF80
7FFFFFE0
3FFFFFE0
00078000
001F8000
00FF8000
01FF8000
03FF8000
03F00000
03E01000
03C03800
01C0FC00
00E3FC00
007FF800
001FF000
00078000
007F8000
01FF8000
03FF8000
03FF8000
03E00000
03E03000
03C07C00
01E0FC00
00FFFC00
003FF800
000FC000
ENDCHAR
STARTCHAR uni091F094D091F094D092F
ENCODING -1
SWIDTH 1541 0
DWIDTH 39 0
BBX 44 28 -3 -8
BITMAP
FFFFFFFFFF80
FFFFFFFFFFE0
7FFFFFFFFFF0
3FFFFFFFFFF0
000780000F00
001FFF000F00
00FFFFE00F00
01FFFFF80F00
03FFFFFC0F00
03F0003E0F00
03E0103E0F00
03C038FE1F00
01C0FDFE3F00
00E3FCF8FF00
007FF87FFF00
001FF01FFF00
000780038F00
007F80001F00
01FF80000F00
03FF80000700
03FF80000000
03E000000000
03E030000000
03C07C000000
01E0FC000000
00FFFC000000
003FF8000000
000FC0000000
ENDCHAR
STARTCHAR uni091F094D0920
ENCODING -1
SWIDTH 804 0
DWIDTH 20 0
BBX 27 28 -3 -8
BITMAP
FFFFFF00
FFFFFF80
7FFFFFE0
3FFFFFE0
00078000
001F8000
00FF8000
01FF8000
03FF8000
03F00000
03E01000
03C03800
01E0FC00
00E3FC00
007FF800
001FE000
00078000
003FC000
00FFF000
03FFF800
03FFBC00
03E01E00
03E03E00
03C03E00
01E07E00
00FFFC00
003FF800
000FE000
ENDCHAR
ENDFONT
